<svg id="Layer_1" data-name="Layer 1" xmlns="http://www.w3.org/2000/svg" width="250" height="250" viewBox="0 0 250 250">
  <title>Artboard 1</title>
  <path d="M249.31494,131.204A6.20406,6.20406,0,1,1,250,118.83575V0H0V118.862A6.20033,6.20033,0,0,1,5.34674,125,6.20033,6.20033,0,0,1,0,131.138V243.63965A6.3603,6.3603,0,0,0,6.36029,250H243.63965A6.36035,6.36035,0,0,0,250,243.63965V131.16425A6.25194,6.25194,0,0,1,249.31494,131.204Z" fill="#3246c8"/>
  <g>
    <g>
      <path d="M109.99357,80.71767a6.47987,6.47987,0,0,1-5.75188-9.447l15.85266-30.748a6.4775,6.4775,0,0,1,11.51476,5.93649l-15.85266,30.748A6.4776,6.4776,0,0,1,109.99357,80.71767Z" fill="#fff"/>
      <path d="M84.42115,129.587a6.47945,6.47945,0,0,1-5.7216-9.50428l9.693-18.34768a6.47681,6.47681,0,0,1,5.72711-3.4517H123.8609a6.47735,6.47735,0,1,1,0,12.9547H98.02347l-7.86971,14.896A6.47665,6.47665,0,0,1,84.42115,129.587Z" fill="#fff"/>
      <path d="M166.60994,129.57129a6.47642,6.47642,0,0,1-5.7448-3.47578L136.47234,79.47533a6.47744,6.47744,0,0,1,11.47859-6.00589l24.39279,46.62037a6.4796,6.4796,0,0,1-5.7338,9.48148Z" fill="#fff"/>
    </g>
    <g>
      <path d="M78.00952,165.832a6.93216,6.93216,0,0,0-1.67106-1.357,7.94538,7.94538,0,0,0-2.105-.8539l-3.46614-.88737a4.91467,4.91467,0,0,1-2.24324-1.26653,2.76119,2.76119,0,0,1-.85922-2.01257,2.8397,2.8397,0,0,1,.32474-1.32436,3.45926,3.45926,0,0,1,.91968-1.10265,4.7249,4.7249,0,0,1,1.39915-.759,5.34027,5.34027,0,0,1,1.76652-.28033,9.07042,9.07042,0,0,1,2.68916.37955,8.93962,8.93962,0,0,1,2.2339,1.04388,1.02,1.02,0,0,0,.68362.21416,1.14525,1.14525,0,0,0,1.14113-1.14119,1.07245,1.07245,0,0,0-.15309-.55962,1.35375,1.35375,0,0,0-.38217-.41165,12.33469,12.33469,0,0,0-2.863-1.34013,10.95773,10.95773,0,0,0-3.3495-.495,7.46414,7.46414,0,0,0-2.63693.45651,7.04773,7.04773,0,0,0-2.11291,1.2285,5.73588,5.73588,0,0,0-1.42238,1.82513,5.07525,5.07525,0,0,0-.52,2.26613,4.82147,4.82147,0,0,0,.36171,1.83751,5.69221,5.69221,0,0,0,1.00608,1.60985,6.41664,6.41664,0,0,0,1.53172,1.26015,7.08415,7.08415,0,0,0,1.91324.78552l3.57377.88632a5.54634,5.54634,0,0,1,2.494,1.44679,3.22,3.22,0,0,1,.97112,2.30463,3.26589,3.26589,0,0,1-.36645,1.519,4.01689,4.01689,0,0,1-1.03251,1.25677,5.04882,5.04882,0,0,1-1.54942.85448,5.8682,5.8682,0,0,1-1.93343.30817,9.04474,9.04474,0,0,1-3.11022-.50159,9.61976,9.61976,0,0,1-2.52572-1.38033,1.17779,1.17779,0,0,0-.66468-.1998,1.10289,1.10289,0,0,0-.8056.33533l-.0002.0002a1.10281,1.10281,0,0,0-.33533.80566,1.04143,1.04143,0,0,0,.4681.93539,12.21474,12.21474,0,0,0,3.15949,1.69276,11.22661,11.22661,0,0,0,3.81417.62224,7.97887,7.97887,0,0,0,2.803-.48428,7.23129,7.23129,0,0,0,2.26791-1.34152,6.27811,6.27811,0,0,0,1.51856-1.99146,5.563,5.563,0,0,0,.54685-2.431,5.30379,5.30379,0,0,0-.38954-2.01772A6.05712,6.05712,0,0,0,78.00952,165.832Z" fill="#fff"/>
      <path d="M97.65985,165.832a6.93623,6.93623,0,0,0-1.67087-1.357,7.94671,7.94671,0,0,0-2.10521-.8539l-3.46614-.88737a4.91288,4.91288,0,0,1-2.243-1.26653,2.76085,2.76085,0,0,1-.85922-2.01257,2.8409,2.8409,0,0,1,.32474-1.32455,3.45472,3.45472,0,0,1,.91968-1.10245,4.7269,4.7269,0,0,1,1.39889-.759,5.34266,5.34266,0,0,1,1.76679-.28033,9.07644,9.07644,0,0,1,2.68916.37941,8.94625,8.94625,0,0,1,2.2339,1.044,1.02,1.02,0,0,0,.68362.21416,1.14525,1.14525,0,0,0,1.14113-1.14119,1.07432,1.07432,0,0,0-.15309-.55962,1.36,1.36,0,0,0-.38224-.41165,12.33767,12.33767,0,0,0-2.86318-1.34013,10.95735,10.95735,0,0,0-3.3493-.495,7.4638,7.4638,0,0,0-2.637.45651,7.04822,7.04822,0,0,0-2.11284,1.2285,5.737,5.737,0,0,0-1.42244,1.82513,5.07565,5.07565,0,0,0-.51994,2.26613,4.82254,4.82254,0,0,0,.36165,1.83751,5.70314,5.70314,0,0,0,1.006,1.60988,6.41778,6.41778,0,0,0,1.53192,1.26015,7.07885,7.07885,0,0,0,1.91324.78552l3.57377.88632a5.54634,5.54634,0,0,1,2.494,1.44679,3.21976,3.21976,0,0,1,.97106,2.30463,3.26759,3.26759,0,0,1-.36638,1.519,4.01967,4.01967,0,0,1-1.03251,1.25677,5.04989,5.04989,0,0,1-1.54962.85448,5.86658,5.86658,0,0,1-1.93343.30817,9.04325,9.04325,0,0,1-3.11009-.50159,9.62138,9.62138,0,0,1-2.52587-1.38034,1.1775,1.1775,0,0,0-.66468-.1998,1.10281,1.10281,0,0,0-.8054.33533l-.00026.0002a1.10239,1.10239,0,0,0-.33546.80566,1.04143,1.04143,0,0,0,.4681.93539,12.21487,12.21487,0,0,0,3.15969,1.69276,11.22562,11.22562,0,0,0,3.814.62224,7.97783,7.97783,0,0,0,2.803-.48428,7.23214,7.23214,0,0,0,2.26811-1.34152,6.276,6.276,0,0,0,1.51837-1.99146,5.56175,5.56175,0,0,0,.54685-2.431A5.30287,5.30287,0,0,0,98.75,167.5677,6.05968,6.05968,0,0,0,97.65985,165.832Z" fill="#fff"/>
      <path d="M120.362,154.15025H107.09471a1.14492,1.14492,0,0,0-1.141,1.14093v5.66228a1.14908,1.14908,0,0,0,1.95719.809,1.08177,1.08177,0,0,0,.35283-.809v-4.52109H120.362a1.14106,1.14106,0,0,0,0-2.28212Z" fill="#fff"/>
      <path d="M120.362,173.052h-12.0983v-7.127H118.447a1.14922,1.14922,0,0,0,.809-1.95732,1.0824,1.0824,0,0,0-.809-.35271H107.09471a1.08253,1.08253,0,0,0-.80908.35271,1.15,1.15,0,0,0-.33191.81619v9.437a1.14491,1.14491,0,0,0,1.141,1.141H120.362a1.13934,1.13934,0,0,0,.80579-1.94659A1.21964,1.21964,0,0,0,120.362,173.052Z" fill="#fff"/>
      <path d="M147.44472,154.26349l-8.63136,8.63158-8.65887-8.63177a1.1411,1.1411,0,0,0-1.94672.806v19.37363a1.10344,1.10344,0,0,0,.33527.80566,1.1561,1.1561,0,0,0,1.62186.00336,1.0818,1.0818,0,0,0,.35283-.809V157.82433l7.49,7.543a1.13544,1.13544,0,0,0,1.60573.00592l.00632-.00632,7.48965-7.54262v16.61861a1.14936,1.14936,0,0,0,1.95732.809,1.08168,1.08168,0,0,0,.35271-.809V155.06928a1.08147,1.08147,0,0,0-.35291-.80914A1.15641,1.15641,0,0,0,147.44472,154.26349Z" fill="#fff"/>
      <path d="M192.53989,173.07965h-11.127V155.06928a1.0816,1.0816,0,0,0-.35263-.80914,1.15671,1.15671,0,0,0-1.62186.00316v.0002a1.10345,1.10345,0,0,0-.33527.80579v19.1515a1.14479,1.14479,0,0,0,1.14093,1.141h12.29587a1.14106,1.14106,0,0,0,0-2.28212Z" fill="#fff"/>
      <path d="M209.95512,154.56453a1.19342,1.19342,0,0,0-.398-.44942,1.06152,1.06152,0,0,0-.61125-.18678,1.092,1.092,0,0,0-.938.47131l-7.28767,10.25415a1.04886,1.04886,0,0,0-.243.713v9.07611a1.14116,1.14116,0,0,0,2.28232,0v-8.73544l7.12135-9.96446a.98778.98778,0,0,0,.20619-.60428A1.27362,1.27362,0,0,0,209.95512,154.56453Z" fill="#fff"/>
      <path d="M200.25838,161.41319l-4.9984-7.03648a1.00979,1.00979,0,0,0-.76836-.46132,1.28883,1.28883,0,0,0-.872.2169,1.12128,1.12128,0,0,0-.45277.73586,1.064,1.064,0,0,0,.186.8429l4.99846,7.03629a1.04286,1.04286,0,0,0,.747.47449,1.26642,1.26642,0,0,0,.18047.01315,1.21492,1.21492,0,0,0,.6852-.21533,1.18362,1.18362,0,0,0,.46573-.74422A1.049,1.049,0,0,0,200.25838,161.41319Z" fill="#fff"/>
      <path d="M52.32711,154.90343c-.00737-.01572-.01829-.02863-.02632-.04382a1.10825,1.10825,0,0,0-.0602-.10033c-.01954-.02908-.03947-.057-.06138-.08376-.023-.028-.04743-.05421-.07316-.07986a1.10374,1.10374,0,0,0-.08158-.07474c-.02605-.02138-.05342-.041-.08191-.06026a1.12677,1.12677,0,0,0-.1023-.06145c-.01493-.00783-.0275-.01842-.04283-.02567s-.03132-.01007-.04665-.01659a1.1101,1.1101,0,0,0-.11026-.03908c-.03388-.01013-.06737-.01913-.10145-.02592-.03493-.007-.07-.01132-.10566-.01488-.03632-.00356-.07237-.00626-.10849-.00626-.03487,0-.06941.00256-.10428.006-.03711.00356-.07355.00816-.10987.01533-.03289.00658-.06513.01526-.09783.02493a1.08872,1.08872,0,0,0-.11362.04025c-.015.00618-.03053.009-.04526.016-.015.007-.02711.0173-.04171.02493a1.109,1.109,0,0,0-.10421.06258c-.02816.019-.05507.03828-.081.0594a1.08671,1.08671,0,0,0-.08191.07494,1.05784,1.05784,0,0,0-.073.0798c-.02191.0267-.042.05467-.06178.08382a1.12835,1.12835,0,0,0-.06.10013c-.00816.01526-.019.02815-.02651.04388l-4.81319,10.23782a1.10709,1.10709,0,0,0,2.00278.94415h0l3.81121-8.11163,8.25163,17.53374a1.107,1.107,0,1,0,2.00317-.943h0Z" fill="#fff"/>
      <path d="M53.77916,168.22679h-8.9544a1.10548,1.10548,0,0,0-1.078.63L41.05,174.57808a1.10711,1.10711,0,0,0,2.00284.94415l2.39508-5.08134h8.33127a1.107,1.107,0,0,0,0-2.2141Z" fill="#fff"/>
      <path d="M172.365,166.87172a6.08248,6.08248,0,0,0-5.63576-3.72864h-4.942a1.08133,1.08133,0,0,0-.809.35263,1.14926,1.14926,0,0,0,.809,1.95738h4.942a3.6171,3.6171,0,0,1,1.47449.30237,3.90536,3.90536,0,0,1,2.02251,2.02238,3.62282,3.62282,0,0,1,.30244,1.47469,3.71943,3.71943,0,0,1-.30283,1.48962,3.91325,3.91325,0,0,1-.819,1.21573,3.74142,3.74142,0,0,1-2.67758,1.09409h-7.60194v-16.6196h7.13a3.19436,3.19436,0,0,1,1.28133.26112,3.43011,3.43011,0,0,1,1.06316.72191,3.38733,3.38733,0,0,1,.72131,1.07573,3.29088,3.29088,0,0,1,.26178,1.29646,3.54889,3.54889,0,0,1-.17244,1.0802c-.01086.03421-.01993.06854-.03185.10263a1.12282,1.12282,0,0,0-.04842.31059,1.1353,1.1353,0,0,0,2.18173.44032l.00034-.00034a2.0384,2.0384,0,0,0,.1777-.4881,4.95987,4.95987,0,0,0,.2029-1.44534,5.49575,5.49575,0,0,0-.44632-2.18738,5.62664,5.62664,0,0,0-3.00357-3.00365,5.49758,5.49758,0,0,0-2.18765-.44632h-8.299a1.1449,1.1449,0,0,0-1.14119,1.14093v18.9296a1.14525,1.14525,0,0,0,1.14119,1.141h8.7709a6.12764,6.12764,0,0,0,5.63576-8.49007Z" fill="#fff"/>
    </g>
    <g style="isolation: isolate">
      <g style="isolation: isolate">
        <path d="M87.39667,202.96129v-.03223a5.72889,5.72889,0,0,1,5.83887-5.85449,5.93853,5.93853,0,0,1,3.88184,1.27734.99577.99577,0,0,1,.38867.793.99537.99537,0,0,1-1.58594.77539,4.11013,4.11013,0,0,0-2.70117-1.01855,3.81045,3.81045,0,0,0-3.73535,3.99512v.03223a3.81469,3.81469,0,0,0,3.73535,4.01172,4.05986,4.05986,0,0,0,2.83105-1.084.90213.90213,0,0,1,.59863-.22656.94622.94622,0,0,1,.9375.92188.95686.95686,0,0,1-.32324.71191,5.78685,5.78685,0,0,1-4.1084,1.52051A5.69434,5.69434,0,0,1,87.39667,202.96129Z" fill="#fff"/>
      </g>
      <g style="isolation: isolate">
        <path d="M100.63251,202.96129v-.03223a5.92051,5.92051,0,0,1,11.83984-.03223v.03223a5.9205,5.9205,0,0,1-11.83984.03223Zm9.75342,0v-.03223a3.87969,3.87969,0,0,0-3.84961-4.02734,3.8257,3.8257,0,0,0-3.81689,3.99512v.03223a3.86536,3.86536,0,0,0,3.84912,4.01172A3.812,3.812,0,0,0,110.38593,202.96129Z" fill="#fff"/>
        <path d="M116.50555,198.27086a.98764.98764,0,0,1,1.00293-1.00293h6.59912a.90576.90576,0,0,1,0,1.81152h-5.6123v3.08984h4.88428a.90576.90576,0,1,1,0,1.81152H118.4953v3.70313a.9949.9949,0,0,1-1.98975,0Z" fill="#fff"/>
        <path d="M128.73846,198.27086a.98735.98735,0,0,1,1.00293-1.00293H136.34a.90576.90576,0,1,1,0,1.81152h-5.6123v3.08984h4.88477a.90576.90576,0,0,1,0,1.81152h-4.88477v3.70313a.99466.99466,0,0,1-1.98926,0Z" fill="#fff"/>
        <path d="M140.97089,207.58727v-9.31641a.98735.98735,0,0,1,1.00293-1.00293h6.583a.89743.89743,0,0,1,.88965.88965.88668.88668,0,0,1-.88965.88965h-5.59668v2.94336h4.86816a.90163.90163,0,0,1,.88965.90625.88324.88324,0,0,1-.88965.873h-4.86816v3.041h5.67676a.89743.89743,0,0,1,.88965.88965.8873.8873,0,0,1-.88965.88965h-6.66309A.98735.98735,0,0,1,140.97089,207.58727Z" fill="#fff"/>
        <path d="M153.42987,207.58727v-9.31641a.98794.98794,0,0,1,1.00293-1.00293h6.583a.89743.89743,0,0,1,.88965.88965.88668.88668,0,0,1-.88965.88965h-5.5957v2.94336h4.86816a.90163.90163,0,0,1,.88965.90625.88324.88324,0,0,1-.88965.873h-4.86816v3.041h5.67676a.89743.89743,0,0,1,.88965.88965.8873.8873,0,0,1-.88965.88965H154.4328A.98794.98794,0,0,1,153.42987,207.58727Z" fill="#fff"/>
      </g>
    </g>
  </g>
</svg>
