<?xml version="1.0" encoding="utf-8"?>
<!-- Generator: Adobe Illustrator 21.1.0, SVG Export Plug-In . SVG Version: 6.00 Build 0)  -->
<!DOCTYPE svg PUBLIC "-//W3C//DTD SVG 1.1//EN" "http://www.w3.org/Graphics/SVG/1.1/DTD/svg11.dtd">
<svg version="1.1" id="Layer_1" xmlns="http://www.w3.org/2000/svg" xmlns:xlink="http://www.w3.org/1999/xlink" x="0px" y="0px"
	 viewBox="0 0 250 250" style="enable-background:new 0 0 250 250;" xml:space="preserve">
<style type="text/css">
	.st0{fill:#3246C8;}
	.st1{fill:#FFFFFF;}
	.st2{enable-background:new    ;}
</style>
<path class="st0" d="M249.3,131.2c-3.4,0-6.2-2.8-6.2-6.2s2.8-6.2,6.2-6.2c0.2,0,0.5,0,0.7,0V0H0v118.9c3,0.4,5.3,3,5.3,6.1
	S3,130.7,0,131.1v112.5c0,3.5,2.8,6.4,6.4,6.4h237.3c3.5,0,6.4-2.8,6.4-6.4V131.2C249.8,131.2,249.5,131.2,249.3,131.2z"/>
<g>
	<g>
		<path class="st1" d="M110,80.7c-3.6,0-6.5-2.9-6.5-6.5c0-1,0.2-2,0.7-3l15.9-30.7c1.6-3.2,5.6-4.4,8.7-2.8
			c3.2,1.6,4.4,5.5,2.8,8.7l-15.9,30.7C114.6,79.4,112.4,80.7,110,80.7z"/>
		<path class="st1" d="M84.4,129.6c-3.6,0-6.5-2.9-6.5-6.5c0-1.1,0.3-2.1,0.7-3l9.7-18.3c1.1-2.1,3.3-3.5,5.7-3.5h29.7
			c3.6,0,6.5,2.9,6.5,6.5c0,3.6-2.9,6.5-6.5,6.5H98l-7.9,14.9C89,128.3,86.8,129.6,84.4,129.6z"/>
		<path class="st1" d="M166.6,129.6c-2.4,0-4.6-1.3-5.7-3.5l-24.4-46.6c-1.7-3.2-0.4-7.1,2.7-8.7c3.2-1.7,7.1-0.4,8.7,2.7l24.4,46.6
			c1.7,3.2,0.4,7.1-2.7,8.7C168.7,129.3,167.7,129.6,166.6,129.6L166.6,129.6z"/>
	</g>
	<g>
		<path class="st1" d="M78,165.8c-0.5-0.5-1-1-1.7-1.4c-0.7-0.4-1.4-0.7-2.1-0.9l-3.5-0.9c-0.8-0.2-1.6-0.7-2.2-1.3
			c-0.6-0.5-0.9-1.3-0.9-2c0-0.5,0.1-0.9,0.3-1.3c0.2-0.4,0.5-0.8,0.9-1.1c0.4-0.3,0.9-0.6,1.4-0.8c0.6-0.2,1.2-0.3,1.8-0.3
			c0.9,0,1.8,0.1,2.7,0.4c0.8,0.2,1.5,0.6,2.2,1c0.2,0.2,0.4,0.2,0.7,0.2c0.6,0,1.1-0.5,1.1-1.1c0-0.2-0.1-0.4-0.2-0.6
			c-0.1-0.2-0.2-0.3-0.4-0.4c-0.9-0.6-1.9-1-2.9-1.3c-1.1-0.3-2.2-0.5-3.3-0.5c-0.9,0-1.8,0.1-2.6,0.5c-0.8,0.3-1.5,0.7-2.1,1.2
			c-0.6,0.5-1.1,1.1-1.4,1.8c-0.3,0.7-0.5,1.5-0.5,2.3c0,0.6,0.1,1.3,0.4,1.8c0.2,0.6,0.6,1.1,1,1.6c0.4,0.5,1,0.9,1.5,1.3
			c0.6,0.4,1.2,0.6,1.9,0.8l3.6,0.9c0.9,0.3,1.8,0.8,2.5,1.4c0.6,0.6,1,1.4,1,2.3c0,0.5-0.1,1-0.4,1.5c-0.3,0.5-0.6,0.9-1,1.3
			c-0.5,0.4-1,0.7-1.5,0.9c-0.6,0.2-1.3,0.3-1.9,0.3c-1.1,0-2.1-0.2-3.1-0.5c-0.9-0.3-1.8-0.8-2.5-1.4c-0.2-0.1-0.4-0.2-0.7-0.2
			c-0.3,0-0.6,0.1-0.8,0.3l0,0c-0.2,0.2-0.3,0.5-0.3,0.8c0,0.4,0.2,0.7,0.5,0.9c1,0.7,2,1.3,3.2,1.7c1.2,0.4,2.5,0.6,3.8,0.6
			c1,0,1.9-0.2,2.8-0.5c0.8-0.3,1.6-0.8,2.3-1.3c0.6-0.6,1.2-1.2,1.5-2c0.4-0.8,0.6-1.6,0.5-2.4c0-0.7-0.1-1.4-0.4-2
			C78.8,166.9,78.5,166.3,78,165.8z"/>
		<path class="st1" d="M97.7,165.8c-0.5-0.5-1-1-1.7-1.4c-0.7-0.4-1.4-0.7-2.1-0.9l-3.5-0.9c-0.8-0.2-1.6-0.7-2.2-1.3
			c-0.6-0.5-0.9-1.3-0.9-2c0-0.5,0.1-0.9,0.3-1.3c0.2-0.4,0.5-0.8,0.9-1.1c0.4-0.3,0.9-0.6,1.4-0.8c0.6-0.2,1.2-0.3,1.8-0.3
			c0.9,0,1.8,0.1,2.7,0.4c0.8,0.2,1.5,0.6,2.2,1c0.2,0.2,0.4,0.2,0.7,0.2c0.6,0,1.1-0.5,1.1-1.1c0-0.2-0.1-0.4-0.2-0.6
			c-0.1-0.2-0.2-0.3-0.4-0.4c-0.9-0.6-1.9-1-2.9-1.3c-1.1-0.3-2.2-0.5-3.3-0.5c-0.9,0-1.8,0.1-2.6,0.5c-0.8,0.3-1.5,0.7-2.1,1.2
			c-0.6,0.5-1.1,1.1-1.4,1.8c-0.3,0.7-0.5,1.5-0.5,2.3c0,0.6,0.1,1.3,0.4,1.8c0.2,0.6,0.6,1.1,1,1.6c0.4,0.5,1,0.9,1.5,1.3
			c0.6,0.4,1.2,0.6,1.9,0.8l3.6,0.9c0.9,0.3,1.8,0.8,2.5,1.4c0.6,0.6,1,1.4,1,2.3c0,0.5-0.1,1-0.4,1.5c-0.3,0.5-0.6,0.9-1,1.3
			c-0.5,0.4-1,0.7-1.5,0.9c-0.6,0.2-1.3,0.3-1.9,0.3c-1.1,0-2.1-0.2-3.1-0.5c-0.9-0.3-1.8-0.8-2.5-1.4c-0.2-0.1-0.4-0.2-0.7-0.2
			c-0.3,0-0.6,0.1-0.8,0.3l0,0c-0.2,0.2-0.3,0.5-0.3,0.8c0,0.4,0.2,0.7,0.5,0.9c1,0.7,2,1.3,3.2,1.7c1.2,0.4,2.5,0.6,3.8,0.6
			c1,0,1.9-0.2,2.8-0.5c0.8-0.3,1.6-0.8,2.3-1.3c0.6-0.6,1.2-1.2,1.5-2c0.4-0.8,0.6-1.6,0.5-2.4c0-0.7-0.1-1.4-0.4-2
			C98.5,166.9,98.1,166.3,97.7,165.8z"/>
		<path class="st1" d="M120.4,154.2h-13.3c-0.6,0-1.1,0.5-1.1,1.1v5.7c0,0.6,0.5,1.1,1.1,1.1c0.3,0,0.6-0.1,0.8-0.3
			c0.2-0.2,0.4-0.5,0.4-0.8v-4.5h12.1c0.6,0,1.1-0.5,1.1-1.1C121.5,154.7,121,154.2,120.4,154.2L120.4,154.2z"/>
		<path class="st1" d="M120.4,173.1h-12.1v-7.1h10.2c0.6,0,1.1-0.5,1.1-1.1c0-0.3-0.1-0.6-0.3-0.8c-0.2-0.2-0.5-0.4-0.8-0.4h-11.4
			c-0.3,0-0.6,0.1-0.8,0.4c-0.2,0.2-0.3,0.5-0.3,0.8v9.4c0,0.6,0.5,1.1,1.1,1.1h13.3c0.6,0,1.1-0.5,1.1-1.1c0-0.3-0.1-0.6-0.3-0.8
			C121,173.2,120.7,173.1,120.4,173.1z"/>
		<path class="st1" d="M147.4,154.3l-8.6,8.6l-8.7-8.6c-0.4-0.4-1.2-0.4-1.6,0c-0.2,0.2-0.3,0.5-0.3,0.8v19.4c0,0.3,0.1,0.6,0.3,0.8
			c0.4,0.4,1.2,0.4,1.6,0c0.2-0.2,0.4-0.5,0.4-0.8v-16.6l7.5,7.5c0.4,0.4,1.2,0.4,1.6,0c0,0,0,0,0,0l7.5-7.5v16.6
			c0,0.6,0.5,1.1,1.1,1.1c0.3,0,0.6-0.1,0.8-0.3c0.2-0.2,0.4-0.5,0.4-0.8v-19.4c0-0.3-0.1-0.6-0.4-0.8
			C148.6,153.8,147.9,153.8,147.4,154.3z"/>
		<path class="st1" d="M192.5,173.1h-11.1v-18c0-0.3-0.1-0.6-0.4-0.8c-0.5-0.4-1.2-0.4-1.6,0v0c-0.2,0.2-0.3,0.5-0.3,0.8v19.2
			c0,0.6,0.5,1.1,1.1,1.1h12.3c0.6,0,1.1-0.5,1.1-1.1C193.7,173.6,193.2,173.1,192.5,173.1L192.5,173.1z"/>
		<path class="st1" d="M210,154.6c-0.1-0.2-0.2-0.3-0.4-0.4c-0.2-0.1-0.4-0.2-0.6-0.2c-0.4,0-0.7,0.2-0.9,0.5l-7.3,10.3
			c-0.2,0.2-0.3,0.5-0.2,0.7v9.1c0,0.6,0.5,1.1,1.1,1.1c0.6,0,1.1-0.5,1.1-1.1v-8.7l7.1-10c0.1-0.2,0.2-0.4,0.2-0.6
			C210.1,154.9,210,154.7,210,154.6z"/>
		<path class="st1" d="M200.3,161.4l-5-7c-0.2-0.3-0.5-0.4-0.8-0.5c-0.3,0-0.6,0-0.9,0.2c-0.2,0.2-0.4,0.4-0.5,0.7
			c-0.1,0.3,0,0.6,0.2,0.8l5,7c0.2,0.3,0.4,0.4,0.7,0.5c0.1,0,0.1,0,0.2,0c0.2,0,0.5-0.1,0.7-0.2c0.2-0.2,0.4-0.4,0.5-0.7
			C200.5,162,200.4,161.7,200.3,161.4z"/>
		<path class="st1" d="M52.3,154.9C52.3,154.9,52.3,154.9,52.3,154.9c0-0.1-0.1-0.1-0.1-0.1c0,0,0-0.1-0.1-0.1c0,0,0-0.1-0.1-0.1
			c0,0-0.1-0.1-0.1-0.1c0,0-0.1,0-0.1-0.1c0,0-0.1,0-0.1-0.1c0,0,0,0,0,0s0,0,0,0c0,0-0.1,0-0.1,0c0,0-0.1,0-0.1,0c0,0-0.1,0-0.1,0
			c0,0-0.1,0-0.1,0c0,0-0.1,0-0.1,0c0,0-0.1,0-0.1,0c0,0-0.1,0-0.1,0c0,0-0.1,0-0.1,0c0,0,0,0,0,0c0,0,0,0,0,0c0,0-0.1,0-0.1,0.1
			c0,0-0.1,0-0.1,0.1c0,0-0.1,0-0.1,0.1c0,0-0.1,0.1-0.1,0.1c0,0,0,0.1-0.1,0.1c0,0,0,0.1-0.1,0.1c0,0,0,0,0,0l-4.8,10.2
			c-0.3,0.6,0,1.2,0.5,1.5c0.6,0.3,1.2,0,1.5-0.5l0,0l3.8-8.1l8.3,17.5c0.3,0.6,0.9,0.8,1.5,0.5s0.8-0.9,0.5-1.5l0,0L52.3,154.9z"/>
		<path class="st1" d="M53.8,168.2h-9c-0.5,0-0.9,0.2-1.1,0.6l-2.7,5.7c-0.3,0.6,0,1.2,0.5,1.5s1.2,0,1.5-0.5l2.4-5.1h8.3
			c0.6,0,1.1-0.5,1.1-1.1C54.9,168.7,54.4,168.2,53.8,168.2z"/>
		<path class="st1" d="M172.4,166.9c-1-2.3-3.2-3.7-5.6-3.7h-4.9c-0.3,0-0.6,0.1-0.8,0.4c-0.2,0.2-0.3,0.5-0.3,0.8
			c0,0.6,0.5,1.1,1.1,1.1h4.9c0.5,0,1,0.1,1.5,0.3c0.9,0.4,1.6,1.1,2,2c0.2,0.5,0.3,1,0.3,1.5c0,0.5-0.1,1-0.3,1.5
			c-0.2,0.5-0.5,0.9-0.8,1.2c-0.7,0.7-1.7,1.1-2.7,1.1h-7.6v-16.6h7.1c0.4,0,0.9,0.1,1.3,0.3c0.4,0.2,0.8,0.4,1.1,0.7
			c0.3,0.3,0.6,0.7,0.7,1.1c0.2,0.4,0.3,0.9,0.3,1.3c0,0.4-0.1,0.7-0.2,1.1c0,0,0,0.1,0,0.1c0,0.1,0,0.2,0,0.3
			c0,0.6,0.5,1.1,1.1,1.1c0.5,0,0.9-0.3,1-0.7l0,0c0.1-0.2,0.1-0.3,0.2-0.5c0.1-0.5,0.2-1,0.2-1.4c0-0.8-0.1-1.5-0.4-2.2
			c-0.6-1.4-1.6-2.4-3-3c-0.7-0.3-1.4-0.4-2.2-0.4H158c-0.6,0-1.1,0.5-1.1,1.1v18.9c0,0.6,0.5,1.1,1.1,1.1h8.8
			c3.4,0,6.1-2.8,6.1-6.1C172.8,168.4,172.7,167.6,172.4,166.9L172.4,166.9z"/>
	</g>
	<g class="st2">
		<path class="st1" d="M87.4,203L87.4,203c0-3.3,2.4-5.9,5.8-5.9c1.7,0,2.9,0.5,3.9,1.3c0.2,0.2,0.4,0.4,0.4,0.8c0,0.5-0.4,1-1,1
			c-0.3,0-0.5-0.1-0.6-0.2c-0.8-0.6-1.6-1-2.7-1c-2.2,0-3.7,1.8-3.7,4v0c0,2.2,1.6,4,3.7,4c1.2,0,2-0.4,2.8-1.1
			c0.1-0.1,0.4-0.2,0.6-0.2c0.5,0,0.9,0.4,0.9,0.9c0,0.3-0.1,0.5-0.3,0.7c-1.1,0.9-2.3,1.5-4.1,1.5C89.9,208.8,87.4,206.2,87.4,203z
			"/>
	</g>
	<g class="st2">
		<path class="st1" d="M100.6,203L100.6,203c0-3.2,2.5-5.9,5.9-5.9s5.9,2.6,5.9,5.8v0c0,3.2-2.5,5.9-5.9,5.9S100.6,206.1,100.6,203z
			 M110.4,203L110.4,203c0-2.2-1.6-4.1-3.8-4.1s-3.8,1.8-3.8,4v0c0,2.2,1.6,4,3.8,4C108.8,206.9,110.4,205.2,110.4,203z"/>
		<path class="st1" d="M116.5,198.3c0-0.6,0.4-1,1-1h6.6c0.5,0,0.9,0.4,0.9,0.9c0,0.5-0.4,0.9-0.9,0.9h-5.6v3.1h4.9
			c0.5,0,0.9,0.4,0.9,0.9c0,0.5-0.4,0.9-0.9,0.9h-4.9v3.7c0,0.6-0.4,1-1,1c-0.6,0-1-0.4-1-1V198.3z"/>
		<path class="st1" d="M128.7,198.3c0-0.6,0.4-1,1-1h6.6c0.5,0,0.9,0.4,0.9,0.9c0,0.5-0.4,0.9-0.9,0.9h-5.6v3.1h4.9
			c0.5,0,0.9,0.4,0.9,0.9c0,0.5-0.4,0.9-0.9,0.9h-4.9v3.7c0,0.6-0.4,1-1,1c-0.6,0-1-0.4-1-1V198.3z"/>
		<path class="st1" d="M141,207.6v-9.3c0-0.6,0.4-1,1-1h6.6c0.5,0,0.9,0.4,0.9,0.9c0,0.5-0.4,0.9-0.9,0.9H143v2.9h4.9
			c0.5,0,0.9,0.4,0.9,0.9c0,0.5-0.4,0.9-0.9,0.9H143v3h5.7c0.5,0,0.9,0.4,0.9,0.9c0,0.5-0.4,0.9-0.9,0.9H142
			C141.4,208.6,141,208.2,141,207.6z"/>
		<path class="st1" d="M153.4,207.6v-9.3c0-0.6,0.4-1,1-1h6.6c0.5,0,0.9,0.4,0.9,0.9c0,0.5-0.4,0.9-0.9,0.9h-5.6v2.9h4.9
			c0.5,0,0.9,0.4,0.9,0.9c0,0.5-0.4,0.9-0.9,0.9h-4.9v3h5.7c0.5,0,0.9,0.4,0.9,0.9c0,0.5-0.4,0.9-0.9,0.9h-6.7
			C153.9,208.6,153.4,208.2,153.4,207.6z"/>
	</g>
</g>
</svg>
