<svg xmlns="http://www.w3.org/2000/svg" width="24.69458" height="17.85303" viewBox="0 0 24.69458 17.85303">
  <title>find-arrow</title>
  <g id="Layer_2" data-name="Layer 2">
    <g id="Layer_1-2" data-name="Layer 1">
      <g>
        <path d="M23.63184,9.95557H1a1,1,0,0,1,0-2H23.63184a1,1,0,0,1,0,2Z" fill="#3246c8"/>
        <path d="M23.69458,9.89746a.99634.99634,0,0,1-.707-.293L15.09009,1.707A.99989.99989,0,0,1,16.50415.293l7.89746,7.89746a1,1,0,0,1-.707,1.707Z" fill="#3246c8"/>
        <path d="M15.79712,17.853a1,1,0,0,1-.707-1.707l7.89746-7.89746A.99989.99989,0,0,1,24.40161,9.6626l-7.89746,7.89746A.99634.99634,0,0,1,15.79712,17.853Z" fill="#3246c8"/>
      </g>
    </g>
  </g>
</svg>
