<svg xmlns="http://www.w3.org/2000/svg" width="12.8006" height="19.0252" viewBox="0 0 12.8006 19.0252">
  <title>icon-filter_1</title>
  <g id="Layer_2" data-name="Layer 2">
    <g id="Layer_1-2" data-name="Layer 1">
      <g>
        <path d="M6.3883,13.28108a.76073.76073,0,0,0,.7585-.7585c0-.41717-.7585-1.13775-.7585-1.13775s-.7585.72057-.7585,1.13775A.76073.76073,0,0,0,6.3883,13.28108Z" fill="none" stroke="#3246c8" stroke-linecap="round" stroke-miterlimit="10" stroke-width="0.6"/>
        <path d="M1.97176,2.73352h8.73371a.48575.48575,0,0,1,.47915.56561l-.368,2.20789a3.30274,3.30274,0,0,0,.0366,1.2723l.481,2.12446a.48575.48575,0,0,1-.47376.593H1.77608a.48575.48575,0,0,1-.47046-.60668l.531-2.06574a3.30274,3.30274,0,0,0,.04775-1.429L1.49428,3.30852A.48575.48575,0,0,1,1.97176,2.73352Z" fill="none" stroke="#3246c8" stroke-miterlimit="10" stroke-width="0.6"/>
        <line x1="1.54482" y1="6.06586" x2="11.18408" y2="6.06586" fill="none" stroke="#3246c8" stroke-linecap="round" stroke-miterlimit="10" stroke-width="0.6"/>
        <path d="M10.63254,2.71218,11.11468,1.06A.5937.5937,0,0,0,10.54475.3h-8.313a.5937.5937,0,0,0-.57559.73921L2.03382,2.533" fill="none" stroke="#3246c8" stroke-miterlimit="10" stroke-width="0.6"/>
        <path d="M2.00551,9.53373l-1.612,5.90074A2.6044,2.6044,0,0,0,2.90588,18.7252H9.89451a2.6044,2.6044,0,0,0,2.4966-3.34594L10.61348,9.39435" fill="none" stroke="#3246c8" stroke-miterlimit="10" stroke-width="0.6"/>
        <circle cx="11.48088" cy="6.06586" r="0.56885" fill="none" stroke="#3246c8" stroke-miterlimit="10"/>
        <path d="M11.72871,14.38342a6.90764,6.90764,0,0,1-2.21615.48078c-2.73948.12407-3.02775-.63063-5.65231-.92014a7.61409,7.61409,0,0,0-3.08861.34767" fill="none" stroke="#3246c8" stroke-linecap="round" stroke-miterlimit="10" stroke-width="0.6"/>
      </g>
    </g>
  </g>
</svg>
