<svg xmlns="http://www.w3.org/2000/svg" width="20.41068" height="16.58368" viewBox="0 0 20.41068 16.58368">
  <title>icon-twitter</title>
  <g id="Layer_2" data-name="Layer 2">
    <g id="Layer_1-2" data-name="Layer 1">
      <path d="M20.41068,1.9135a7.54953,7.54953,0,0,1-2.42377.63783A3.60668,3.60668,0,0,0,19.77285.25513a8.36955,8.36955,0,0,1-2.6789,1.02053A4.4546,4.4546,0,0,0,14.03234,0,4.2233,4.2233,0,0,0,9.95021,4.2097a1.89151,1.89151,0,0,0,.12757.893A11.73822,11.73822,0,0,1,1.40323.7654,3.909,3.909,0,0,0,.893,2.934a4.1864,4.1864,0,0,0,1.9135,3.4443A5.346,5.346,0,0,1,.893,5.86807h0A4.11781,4.11781,0,0,0,4.2097,9.95021a3.53175,3.53175,0,0,1-1.1481.12757,1.618,1.618,0,0,1-.7654-.12757,4.13329,4.13329,0,0,0,3.95457,2.934,8.11176,8.11176,0,0,1-5.23024,1.78593H0a12.44632,12.44632,0,0,0,6.37834,1.9135A11.80787,11.80787,0,0,0,18.242,4.72V4.2097a7.41631,7.41631,0,0,0,2.16863-2.2962Z" fill="#fff"/>
    </g>
  </g>
</svg>
