<svg xmlns="http://www.w3.org/2000/svg" width="59.88387" height="71.57036" viewBox="0 0 59.88387 71.57036">
  <title>icon-littleguy</title>
  <g id="Layer_2" data-name="Layer 2">
    <g id="Layer_1-2" data-name="Layer 1">
      <g>
        <polyline points="6.258 56.526 6.258 64.042 13.259 64.042 13.259 60.589" fill="none" stroke="#fff" stroke-linecap="round" stroke-linejoin="round" stroke-width="1.5"/>
        <polyline points="47.236 59.864 47.236 64.042 54.237 64.042 54.237 55.829" fill="none" stroke="#fff" stroke-linecap="round" stroke-linejoin="round" stroke-width="1.5"/>
        <path d="M52.54264,56.72832,36.4584,66.01456a13.08278,13.08278,0,0,1-13.08278,0L7.29139,56.72832A13.08278,13.08278,0,0,1,.75,45.39831V23.119a13.08278,13.08278,0,0,1,6.54139-11.33L23.37562,2.50276a13.08278,13.08278,0,0,1,13.08278,0L52.54264,11.789A13.08278,13.08278,0,0,1,59.084,23.119V45.39831A13.08278,13.08278,0,0,1,52.54264,56.72832Z" fill="none" stroke="#fff" stroke-miterlimit="10" stroke-width="1.5"/>
        <path d="M14.53243,64.13841H5.1945c0,4.41167-3.62311,4.84564-3.62311,4.84564v1.83632H18.15555V68.984S14.53243,68.55008,14.53243,64.13841Z" fill="none" stroke="#fff" stroke-linecap="round" stroke-linejoin="round" stroke-width="1.5"/>
        <path d="M55.51075,64.13841H46.17282c0,4.41167-3.62311,4.84564-3.62311,4.84564v1.83632H59.13387V68.984S55.51075,68.55008,55.51075,64.13841Z" fill="none" stroke="#fff" stroke-linecap="round" stroke-linejoin="round" stroke-width="1.5"/>
        <g>
          <path d="M10.61556,34.58231a.07248.07248,0,0,1-.06641-.04492l-.39478-.99951a.07952.07952,0,0,1,.03979-.0918l9.85937-3.89355.092.03955.39478.99951a.07952.07952,0,0,1-.03979.0918L10.6412,34.57694Z" fill="#3246c8"/>
          <path d="M20.07919,28.79709a.82054.82054,0,0,0-.30127.05762L9.919,32.74845a.82066.82066,0,0,0-.46191,1.065l.39453.99927a.82.82,0,0,0,1.06494.462L20.776,31.381a.82116.82116,0,0,0,.46191-1.06506l-.39453-.99927a.82124.82124,0,0,0-.76416-.51959Z" fill="#fff"/>
        </g>
        <line x1="15.44458" y1="24.8215" x2="15.44458" y2="22.92563" fill="none" stroke="#fff" stroke-linecap="round" stroke-linejoin="round" stroke-width="1.5"/>
        <line x1="15.36485" y1="39.02402" x2="15.36485" y2="40.91989" fill="none" stroke="#fff" stroke-linecap="round" stroke-linejoin="round" stroke-width="1.5"/>
        <line x1="15.40472" y1="24.8215" x2="15.40472" y2="22.92563" fill="none" stroke="#fff" stroke-linecap="round" stroke-linejoin="round" stroke-width="1.5"/>
        <line x1="8.30346" y1="31.8829" x2="6.40758" y2="31.8829" fill="none" stroke="#fff" stroke-linecap="round" stroke-linejoin="round" stroke-width="1.5"/>
        <line x1="22.50598" y1="31.92276" x2="24.40185" y2="31.92276" fill="none" stroke="#fff" stroke-linecap="round" stroke-linejoin="round" stroke-width="1.5"/>
        <line x1="20.39788" y1="36.9723" x2="21.73846" y2="38.31288" fill="none" stroke="#fff" stroke-linecap="round" stroke-linejoin="round" stroke-width="1.5"/>
        <line x1="10.38337" y1="26.90141" x2="9.04278" y2="25.56083" fill="none" stroke="#fff" stroke-linecap="round" stroke-linejoin="round" stroke-width="1.5"/>
        <line x1="10.35518" y1="36.91592" x2="9.0146" y2="38.25651" fill="none" stroke="#fff" stroke-linecap="round" stroke-linejoin="round" stroke-width="1.5"/>
        <line x1="20.42607" y1="26.90141" x2="21.76665" y2="25.56083" fill="none" stroke="#fff" stroke-linecap="round" stroke-linejoin="round" stroke-width="1.5"/>
        <g>
          <path d="M46.63925,37.2034a.07216.07216,0,0,1-.06665-.04639l-3.7334-9.9209a.0709.0709,0,0,1,.04126-.09131l1.00562-.37842.09131.0415,3.7334,9.9209a.07183.07183,0,0,1-.04126.0918l-1.00562.37793Z" fill="#3246c8"/>
          <path d="M43.91073,26.01157a.81915.81915,0,0,0-.28906.05286l-1.00537.37836a.82079.82079,0,0,0-.479,1.05737l3.7334,9.92114a.81991.81991,0,0,0,1.05713.47913l1.00586-.37842a.82077.82077,0,0,0,.479-1.05737l-3.7334-9.92108a.82151.82151,0,0,0-.76855-.532Z" fill="#fff"/>
        </g>
        <line x1="38.03428" y1="31.76783" x2="36.13865" y2="31.73711" fill="none" stroke="#fff" stroke-linecap="round" stroke-linejoin="round" stroke-width="1.5"/>
        <line x1="52.23364" y1="32.07769" x2="54.12927" y2="32.10841" fill="none" stroke="#fff" stroke-linecap="round" stroke-linejoin="round" stroke-width="1.5"/>
        <line x1="38.03363" y1="31.80769" x2="36.13801" y2="31.77697" fill="none" stroke="#fff" stroke-linecap="round" stroke-linejoin="round" stroke-width="1.5"/>
        <line x1="44.97903" y1="39.02244" x2="44.94831" y2="40.91807" fill="none" stroke="#fff" stroke-linecap="round" stroke-linejoin="round" stroke-width="1.5"/>
        <line x1="45.24903" y1="24.82243" x2="45.27975" y2="22.92681" fill="none" stroke="#fff" stroke-linecap="round" stroke-linejoin="round" stroke-width="1.5"/>
        <line x1="50.26374" y1="27.01208" x2="51.62587" y2="25.69339" fill="none" stroke="#fff" stroke-linecap="round" stroke-linejoin="round" stroke-width="1.5"/>
        <line x1="40.0319" y1="36.86208" x2="38.66977" y2="38.18077" fill="none" stroke="#fff" stroke-linecap="round" stroke-linejoin="round" stroke-width="1.5"/>
        <line x1="50.04464" y1="37.05254" x2="51.36333" y2="38.41468" fill="none" stroke="#fff" stroke-linecap="round" stroke-linejoin="round" stroke-width="1.5"/>
        <line x1="40.19464" y1="26.8207" x2="38.87595" y2="25.45857" fill="none" stroke="#fff" stroke-linecap="round" stroke-linejoin="round" stroke-width="1.5"/>
        <line x1="30.24704" y1="21.44118" x2="30.24704" y2="41.33209" fill="none" stroke="#fff" stroke-linecap="round" stroke-linejoin="round" stroke-width="1.5"/>
        <path d="M32.01669,34.1771v.44232h-3.5835V34.1771h3.5835m.55518-1.5H27.878a.94461.94461,0,0,0-.94482.94458V35.1749a.94455.94455,0,0,0,.94482.94452h4.69385a.94455.94455,0,0,0,.94482-.94452V33.62168a.94461.94461,0,0,0-.94482-.94458Z" fill="#fff"/>
        <path d="M57.86528,17.98693A24.34115,24.34115,0,0,1,33.26788,11.509a4.52245,4.52245,0,0,0-6.445,0C15.76258,22.82776,1.90157,17.98693,1.90157,17.98693" fill="none" stroke="#fff" stroke-linecap="round" stroke-linejoin="round" stroke-width="1.5"/>
        <path d="M46.05648,50.05115a.38428.38428,0,0,0-.72218-.16606A3.213,3.213,0,0,1,42.428,51.83621c-1.63311,0-2.76249-1.78751-2.76249-1.78751-4.02938-5.85124-8.50966-5.11221-9.41848-4.88838-.90885-.22382-5.38914-.96286-9.41851,4.88838,0,0-1.12938,1.78751-2.76249,1.78751a3.21669,3.21669,0,0,1-2.91151-1.96142.38157.38157,0,0,0-.717.17711c-.06053,1.9938.5704,5.2046,5.05033,6.00161a9.48408,9.48408,0,0,0,10.48687-7.13533.28083.28083,0,0,1,.54454,0,9.484,9.484,0,0,0,10.48684,7.13533C45.48666,55.25641,46.11722,52.04489,46.05648,50.05115Z" fill="none" stroke="#fff" stroke-miterlimit="10" stroke-width="1.5"/>
        <path d="M15.40487,28.07144a3.85132,3.85132,0,1,1-3.85156,3.85132,3.85551,3.85551,0,0,1,3.85156-3.85132m0-1.5a5.35132,5.35132,0,1,0,5.35107,5.35132,5.35146,5.35146,0,0,0-5.35107-5.35132Z" fill="#fff"/>
        <path d="M45.13241,28.07144h0l.064.00055a3.8513,3.8513,0,0,1-.06055,7.70209l-.064-.00055a3.8513,3.8513,0,0,1,.06055-7.70209m0-1.5a5.3513,5.3513,0,0,0-.085,10.7019c.02979.00049.05908.00073.08838.00073a5.35131,5.35131,0,0,0,.085-10.7019c-.02979-.00049-.05908-.00073-.08838-.00073Z" fill="#fff"/>
      </g>
    </g>
  </g>
</svg>
