<svg xmlns="http://www.w3.org/2000/svg" width="20.00016" height="20" viewBox="0 0 20.00016 20">
  <title>icon-insta</title>
  <g id="Layer_2" data-name="Layer 2">
    <g id="Layer_1-2" data-name="Layer 1">
      <g>
        <path d="M10,1.80184c2.67013,0,2.98638.0102,4.041.05831a5.53367,5.53367,0,0,1,1.85686.34431,3.09828,3.09828,0,0,1,1.14981.74805,3.09828,3.09828,0,0,1,.74805,1.14981A5.53241,5.53241,0,0,1,18.14,5.95918c.04811,1.0545.05831,1.37075.05831,4.041s-.0102,2.98638-.05831,4.041a5.5347,5.5347,0,0,1-.34432,1.85686,3.31164,3.31164,0,0,1-1.89786,1.89786,5.53242,5.53242,0,0,1-1.85686.34432c-1.0543.04811-1.37055.05831-4.041.05831s-2.98654-.0102-4.041-.05831a5.5347,5.5347,0,0,1-1.85686-.34432,3.09824,3.09824,0,0,1-1.14981-.74805A3.09832,3.09832,0,0,1,2.20435,15.898,5.53241,5.53241,0,0,1,1.86,14.0411c-.04811-1.05446-.05831-1.37075-.05831-4.041s.0102-2.98638.05831-4.041a5.53367,5.53367,0,0,1,.34431-1.85686,3.09828,3.09828,0,0,1,.74813-1.14985,3.09832,3.09832,0,0,1,1.14981-.74805,5.5324,5.5324,0,0,1,1.85686-.34431c1.0545-.04811,1.37075-.05831,4.041-.05831m0-1.8018c-2.71586,0-3.05652.01151-4.123.06018A7.33963,7.33963,0,0,0,3.44974.525,4.90186,4.90186,0,0,0,1.67855,1.67843,4.90186,4.90186,0,0,0,.52481,3.44962,7.34123,7.34123,0,0,0,.06038,5.87705C.01151,6.9435,0,7.28416,0,10s.01151,3.05652.06038,4.123a7.33964,7.33964,0,0,0,.46483,2.42739,4.9019,4.9019,0,0,0,1.15342,1.77119A4.90177,4.90177,0,0,0,3.44982,19.475a7.34007,7.34007,0,0,0,2.42739.46483C6.94382,19.98849,7.28436,20,10.00018,20s3.05652-.01151,4.123-.06018a7.33963,7.33963,0,0,0,2.42739-.46483,5.1134,5.1134,0,0,0,2.92461-2.92461A7.34007,7.34007,0,0,0,19.94,14.123c.04867-1.06661.06018-1.40715.06018-4.123s-.01151-3.05652-.06018-4.123a7.33964,7.33964,0,0,0-.46483-2.42739,4.90177,4.90177,0,0,0-1.15342-1.77119A4.90183,4.90183,0,0,0,16.55042.52481,7.34123,7.34123,0,0,0,14.123.06038C13.05654.01151,12.71588,0,10,0h.00008Z" fill="#fff"/>
        <path d="M10,4.86487A5.13515,5.13515,0,1,0,15.13517,10h0A5.13515,5.13515,0,0,0,10,4.86487Zm0,8.46847A3.33331,3.33331,0,1,1,13.33337,10,3.33331,3.33331,0,0,1,10,13.33333Z" fill="#fff"/>
        <circle cx="15.33805" cy="4.66199" r="1.19998" fill="#fff"/>
      </g>
    </g>
  </g>
</svg>
