<svg xmlns="http://www.w3.org/2000/svg" width="28.94646" height="12.23321" viewBox="0 0 28.94646 12.23321">
  <title>icon-espresso_1</title>
  <g id="Layer_2" data-name="Layer 2">
    <g id="Layer_1-2" data-name="Layer 1">
      <g>
        <path d="M16.65661,3.49795c0,.56111-.68868,1.06563-1.374,1.06563-.96156-.11817-1.54991-.252-2.51333-.35195a3.66023,3.66023,0,0,0-.89165.052c-.93552.13609-1.86528.31693-2.80347.42818a23.22219,23.22219,0,0,1-3.83545.14471,28.53414,28.53414,0,0,1-3.84574-.44938,1.15432,1.15432,0,0,1-.955-.64936,1.66882,1.66882,0,0,1-.12569-.56633c-.01887-.3916-.01245-.7849-.00413-1.17723A1.149,1.149,0,0,1,1.32675.794,24.64527,24.64527,0,0,1,6.65831.306a28.73821,28.73821,0,0,1,4.29958.43689c.44283.07784.88368.17974,1.33.2202a3.48613,3.48613,0,0,0,.85617-.072c.751-.12152,1.49516-.28665,2.24784-.39542a1.066,1.066,0,0,1,1.28855,1.01965S16.65661,3.00226,16.65661,3.49795Z" fill="none" stroke="#3246c8" stroke-linecap="round" stroke-linejoin="round" stroke-width="0.6"/>
        <path d="M24.14084,9.178a5.05175,5.05175,0,0,1,.94966,1.172.96489.96489,0,0,1-.10237,1.18556,1.08584,1.08584,0,0,1-1.15079.35162,1.06067,1.06067,0,0,1-.788-.94379,1.20763,1.20763,0,0,1,.14659-.58945A4.76484,4.76484,0,0,1,24.14084,9.178Z" fill="none" stroke="#3246c8" stroke-linecap="round" stroke-linejoin="round" stroke-width="0.6"/>
        <polygon points="19.706 0.318 19.706 4.022 21.143 5.78 27.059 5.78 28.646 4.022 28.646 0.318 19.706 0.318" fill="none" stroke="#3246c8" stroke-linecap="round" stroke-linejoin="round" stroke-width="0.6"/>
        <polyline points="23.049 5.78 23.634 7.575 24.681 7.575 25.247 5.78" fill="none" stroke="#3246c8" stroke-linecap="round" stroke-linejoin="round" stroke-width="0.6"/>
        <line x1="19.7061" y1="1.44054" x2="16.68046" y2="1.44054" fill="none" stroke="#3246c8" stroke-linecap="round" stroke-linejoin="round" stroke-width="0.6"/>
        <line x1="19.7061" y1="3.49795" x2="16.67611" y2="3.49795" fill="none" stroke="#3246c8" stroke-linecap="round" stroke-linejoin="round" stroke-width="0.6"/>
      </g>
    </g>
  </g>
</svg>
