<svg xmlns="http://www.w3.org/2000/svg" xmlns:xlink="http://www.w3.org/1999/xlink" width="1264.97963" height="234.32906" viewBox="0 0 1264.97963 234.32906">
  <defs>
    <clipPath id="clip-path" transform="translate(0 -7.88751)">
      <rect x="324.69557" width="942.71682" height="249.41625" fill="none"/>
    </clipPath>
  </defs>
  <title>illu-subscriptions</title>
  <g id="Layer_2" data-name="Layer 2">
    <g id="Layer_1-2" data-name="Layer 1">
      <g clip-path="url(#clip-path)">
        <g>
          <rect x="0.75" y="193.87569" width="1060.11008" height="27.38941" rx="13.65911" ry="13.65911" fill="none" stroke="#fff" stroke-linecap="round" stroke-linejoin="round" stroke-width="1.5"/>
          <path d="M441.15948,205.75308a9.70483,9.70483,0,1,1-9.70508,9.70483,9.7157,9.7157,0,0,1,9.70508-9.70483m0-1.5a11.20483,11.20483,0,1,0,11.20459,11.20483,11.20492,11.20492,0,0,0-11.20459-11.20483Z" transform="translate(0 -7.88751)" fill="#fff"/>
          <circle cx="441.15928" cy="207.5704" r="6.22487" fill="none" stroke="#fff" stroke-miterlimit="10" stroke-width="1.5"/>
          <path d="M373.931,205.75308a9.70483,9.70483,0,1,1-9.70508,9.70483,9.7157,9.7157,0,0,1,9.70508-9.70483m0-1.5a11.20483,11.20483,0,1,0,11.20459,11.20483A11.20492,11.20492,0,0,0,373.931,204.25308Z" transform="translate(0 -7.88751)" fill="#fff"/>
          <circle cx="373.93072" cy="207.5704" r="6.22487" fill="none" stroke="#fff" stroke-miterlimit="10" stroke-width="1.5"/>
          <path d="M508.388,205.75308a9.70483,9.70483,0,1,1-9.70508,9.70483,9.7157,9.7157,0,0,1,9.70508-9.70483m0-1.5a11.20483,11.20483,0,1,0,11.20459,11.20483A11.20492,11.20492,0,0,0,508.388,204.25308Z" transform="translate(0 -7.88751)" fill="#fff"/>
          <circle cx="508.38783" cy="207.5704" r="6.22487" fill="none" stroke="#fff" stroke-miterlimit="10" stroke-width="1.5"/>
          <path d="M441.15948,205.75308a9.70483,9.70483,0,1,1-9.70508,9.70483,9.7157,9.7157,0,0,1,9.70508-9.70483m0-1.5a11.20483,11.20483,0,1,0,11.20459,11.20483,11.20492,11.20492,0,0,0-11.20459-11.20483Z" transform="translate(0 -7.88751)" fill="#fff"/>
          <circle cx="441.15928" cy="207.5704" r="6.22487" fill="none" stroke="#fff" stroke-miterlimit="10" stroke-width="1.5"/>
          <path d="M575.61651,205.75308a9.70483,9.70483,0,1,1-9.70508,9.70483,9.7157,9.7157,0,0,1,9.70508-9.70483m0-1.5a11.20483,11.20483,0,1,0,11.20459,11.20483,11.20492,11.20492,0,0,0-11.20459-11.20483Z" transform="translate(0 -7.88751)" fill="#fff"/>
          <circle cx="575.61639" cy="207.5704" r="6.22487" fill="none" stroke="#fff" stroke-miterlimit="10" stroke-width="1.5"/>
          <path d="M508.388,205.75308a9.70483,9.70483,0,1,1-9.70508,9.70483,9.7157,9.7157,0,0,1,9.70508-9.70483m0-1.5a11.20483,11.20483,0,1,0,11.20459,11.20483A11.20492,11.20492,0,0,0,508.388,204.25308Z" transform="translate(0 -7.88751)" fill="#fff"/>
          <circle cx="508.38783" cy="207.5704" r="6.22487" fill="none" stroke="#fff" stroke-miterlimit="10" stroke-width="1.5"/>
          <path d="M642.845,205.75308a9.70483,9.70483,0,1,1-9.70508,9.70483,9.7157,9.7157,0,0,1,9.70508-9.70483m0-1.5a11.20483,11.20483,0,1,0,11.20459,11.20483A11.20492,11.20492,0,0,0,642.845,204.25308Z" transform="translate(0 -7.88751)" fill="#fff"/>
          <circle cx="642.84494" cy="207.5704" r="6.22487" fill="none" stroke="#fff" stroke-miterlimit="10" stroke-width="1.5"/>
          <path d="M575.61651,205.75308a9.70483,9.70483,0,1,1-9.70508,9.70483,9.7157,9.7157,0,0,1,9.70508-9.70483m0-1.5a11.20483,11.20483,0,1,0,11.20459,11.20483,11.20492,11.20492,0,0,0-11.20459-11.20483Z" transform="translate(0 -7.88751)" fill="#fff"/>
          <circle cx="575.61639" cy="207.5704" r="6.22487" fill="none" stroke="#fff" stroke-miterlimit="10" stroke-width="1.5"/>
          <path d="M710.07354,205.75308a9.70483,9.70483,0,1,1-9.70459,9.70483,9.7157,9.7157,0,0,1,9.70459-9.70483m0-1.5a11.20483,11.20483,0,1,0,11.20459,11.20483,11.2045,11.2045,0,0,0-11.20459-11.20483Z" transform="translate(0 -7.88751)" fill="#fff"/>
          <circle cx="710.0735" cy="207.5704" r="6.22487" fill="none" stroke="#fff" stroke-miterlimit="10" stroke-width="1.5"/>
          <path d="M642.845,205.75308a9.70483,9.70483,0,1,1-9.70508,9.70483,9.7157,9.7157,0,0,1,9.70508-9.70483m0-1.5a11.20483,11.20483,0,1,0,11.20459,11.20483A11.20492,11.20492,0,0,0,642.845,204.25308Z" transform="translate(0 -7.88751)" fill="#fff"/>
          <circle cx="642.84494" cy="207.5704" r="6.22487" fill="none" stroke="#fff" stroke-miterlimit="10" stroke-width="1.5"/>
          <path d="M777.30206,205.75308a9.70483,9.70483,0,1,1-9.70459,9.70483,9.7157,9.7157,0,0,1,9.70459-9.70483m0-1.5a11.20483,11.20483,0,1,0,11.20459,11.20483,11.20482,11.20482,0,0,0-11.20459-11.20483Z" transform="translate(0 -7.88751)" fill="#fff"/>
          <circle cx="777.30206" cy="207.5704" r="6.22487" fill="none" stroke="#fff" stroke-miterlimit="10" stroke-width="1.5"/>
          <path d="M710.07354,205.75308a9.70483,9.70483,0,1,1-9.70459,9.70483,9.7157,9.7157,0,0,1,9.70459-9.70483m0-1.5a11.20483,11.20483,0,1,0,11.20459,11.20483,11.2045,11.2045,0,0,0-11.20459-11.20483Z" transform="translate(0 -7.88751)" fill="#fff"/>
          <circle cx="710.0735" cy="207.5704" r="6.22487" fill="none" stroke="#fff" stroke-miterlimit="10" stroke-width="1.5"/>
          <path d="M844.53057,205.75308a9.70483,9.70483,0,1,1-9.70459,9.70483,9.7157,9.7157,0,0,1,9.70459-9.70483m0-1.5a11.20483,11.20483,0,1,0,11.20459,11.20483,11.20482,11.20482,0,0,0-11.20459-11.20483Z" transform="translate(0 -7.88751)" fill="#fff"/>
          <circle cx="844.53061" cy="207.5704" r="6.22487" fill="none" stroke="#fff" stroke-miterlimit="10" stroke-width="1.5"/>
          <path d="M777.30206,205.75308a9.70483,9.70483,0,1,1-9.70459,9.70483,9.7157,9.7157,0,0,1,9.70459-9.70483m0-1.5a11.20483,11.20483,0,1,0,11.20459,11.20483,11.20482,11.20482,0,0,0-11.20459-11.20483Z" transform="translate(0 -7.88751)" fill="#fff"/>
          <circle cx="777.30206" cy="207.5704" r="6.22487" fill="none" stroke="#fff" stroke-miterlimit="10" stroke-width="1.5"/>
          <path d="M911.75909,205.75308a9.70483,9.70483,0,1,1-9.70459,9.70483,9.71581,9.71581,0,0,1,9.70459-9.70483m0-1.5a11.20483,11.20483,0,1,0,11.20508,11.20483,11.20482,11.20482,0,0,0-11.20508-11.20483Z" transform="translate(0 -7.88751)" fill="#fff"/>
          <circle cx="911.75917" cy="207.5704" r="6.22487" fill="none" stroke="#fff" stroke-miterlimit="10" stroke-width="1.5"/>
          <path d="M844.53057,205.75308a9.70483,9.70483,0,1,1-9.70459,9.70483,9.7157,9.7157,0,0,1,9.70459-9.70483m0-1.5a11.20483,11.20483,0,1,0,11.20459,11.20483,11.20482,11.20482,0,0,0-11.20459-11.20483Z" transform="translate(0 -7.88751)" fill="#fff"/>
          <circle cx="844.53061" cy="207.5704" r="6.22487" fill="none" stroke="#fff" stroke-miterlimit="10" stroke-width="1.5"/>
          <path d="M978.98761,205.75308a9.70483,9.70483,0,1,1-9.70459,9.70483,9.71581,9.71581,0,0,1,9.70459-9.70483m0-1.5a11.20483,11.20483,0,1,0,11.20508,11.20483,11.20482,11.20482,0,0,0-11.20508-11.20483Z" transform="translate(0 -7.88751)" fill="#fff"/>
          <circle cx="978.98772" cy="207.5704" r="6.22487" fill="none" stroke="#fff" stroke-miterlimit="10" stroke-width="1.5"/>
          <path d="M911.75909,205.75308a9.70483,9.70483,0,1,1-9.70459,9.70483,9.71581,9.71581,0,0,1,9.70459-9.70483m0-1.5a11.20483,11.20483,0,1,0,11.20508,11.20483,11.20482,11.20482,0,0,0-11.20508-11.20483Z" transform="translate(0 -7.88751)" fill="#fff"/>
          <circle cx="911.75917" cy="207.5704" r="6.22487" fill="none" stroke="#fff" stroke-miterlimit="10" stroke-width="1.5"/>
          <path d="M1046.21612,205.75308a9.70483,9.70483,0,1,1-9.70459,9.70483,9.71581,9.71581,0,0,1,9.70459-9.70483m0-1.5a11.20483,11.20483,0,1,0,11.20508,11.20483,11.20482,11.20482,0,0,0-11.20508-11.20483Z" transform="translate(0 -7.88751)" fill="#fff"/>
          <circle cx="1046.21628" cy="207.5704" r="6.22487" fill="none" stroke="#fff" stroke-miterlimit="10" stroke-width="1.5"/>
          <path d="M978.98761,205.75308a9.70483,9.70483,0,1,1-9.70459,9.70483,9.71581,9.71581,0,0,1,9.70459-9.70483m0-1.5a11.20483,11.20483,0,1,0,11.20508,11.20483,11.20482,11.20482,0,0,0-11.20508-11.20483Z" transform="translate(0 -7.88751)" fill="#fff"/>
          <circle cx="978.98772" cy="207.5704" r="6.22487" fill="none" stroke="#fff" stroke-miterlimit="10" stroke-width="1.5"/>
        </g>
        <polyline points="1098.072 233.501 1098.072 0.726 1246.572 0.726 1246.572 233.501" fill="none" stroke="#fff" stroke-miterlimit="10" stroke-width="1.45266"/>
        <rect x="1113.04319" y="15.69743" width="118.5578" height="217.80335" fill="none" stroke="#fff" stroke-miterlimit="10" stroke-width="1.45266"/>
        <g>
          <rect x="986.00147" y="113.41041" width="52.5255" height="79.47337" fill="#3246c8" stroke="#fff" stroke-linecap="round" stroke-linejoin="round" stroke-width="1.40353"/>
          <line x1="986.45821" y1="125.74248" x2="1038.52697" y2="125.74248" fill="#3246c8" stroke="#fff" stroke-linecap="round" stroke-linejoin="round" stroke-width="1.40353"/>
          <path d="M994.13822,112.80616H1030.844a0,0,0,0,1,0,0V155.1297a3.54618,3.54618,0,0,1-3.54618,3.54618H997.68439a3.54618,3.54618,0,0,1-3.54618-3.54618V112.80616a0,0,0,0,1,0,0Z" fill="#fff"/>
          <g>
            <line x1="1012.23404" y1="129.20495" x2="1009.02726" y2="135.42488" fill="none" stroke="#3246c8" stroke-linecap="round" stroke-miterlimit="10" stroke-width="2.74742"/>
            <polyline points="1011.831 141.599 1005.815 141.599 1003.854 145.311" fill="none" stroke="#3246c8" stroke-linecap="round" stroke-miterlimit="10" stroke-width="2.74742"/>
            <line x1="1015.54347" y1="135.87667" x2="1020.47785" y2="145.30735" fill="none" stroke="#3246c8" stroke-linecap="round" stroke-miterlimit="10" stroke-width="2.74742"/>
          </g>
        </g>
        <g>
          <path d="M987.48775,229.22351H970.48766c0,8.03163-6.596,8.82169-6.596,8.82169v3.34309H994.0838V238.0452S987.48775,237.25514,987.48775,229.22351Z" transform="translate(0 -7.88751)" fill="#3246c8" stroke="#fff" stroke-linecap="round" stroke-linejoin="round" stroke-width="1.60668"/>
          <line x1="963.89165" y1="230.15769" x2="994.0838" y2="230.15769" fill="#3246c8" stroke="#fff" stroke-linecap="round" stroke-linejoin="round" stroke-width="1.59595"/>
        </g>
        <g>
          <path d="M785.80208,229.22351H768.802c0,8.03163-6.596,8.82169-6.596,8.82169v3.34309h30.19215V238.0452S785.80208,237.25514,785.80208,229.22351Z" transform="translate(0 -7.88751)" fill="#3246c8" stroke="#fff" stroke-linecap="round" stroke-linejoin="round" stroke-width="1.60668"/>
          <line x1="762.20598" y1="230.15769" x2="792.39813" y2="230.15769" fill="#3246c8" stroke="#fff" stroke-linecap="round" stroke-linejoin="round" stroke-width="1.59595"/>
        </g>
        <g>
          <path d="M584.11641,229.22351H567.11633c0,8.03163-6.596,8.82169-6.596,8.82169v3.34309h30.19215V238.0452S584.11641,237.25514,584.11641,229.22351Z" transform="translate(0 -7.88751)" fill="#3246c8" stroke="#fff" stroke-linecap="round" stroke-linejoin="round" stroke-width="1.60668"/>
          <line x1="560.52031" y1="230.15769" x2="590.71246" y2="230.15769" fill="#3246c8" stroke="#fff" stroke-linecap="round" stroke-linejoin="round" stroke-width="1.59595"/>
        </g>
        <g>
          <path d="M382.43075,229.22351H365.43066c0,8.03163-6.596,8.82169-6.596,8.82169v3.34309H389.0268V238.0452S382.43075,237.25514,382.43075,229.22351Z" transform="translate(0 -7.88751)" fill="#3246c8" stroke="#fff" stroke-linecap="round" stroke-linejoin="round" stroke-width="1.60668"/>
          <line x1="358.83465" y1="230.15769" x2="389.0268" y2="230.15769" fill="#3246c8" stroke="#fff" stroke-linecap="round" stroke-linejoin="round" stroke-width="1.59595"/>
        </g>
        <line x1="1087.36792" y1="233.50078" x2="1264.97963" y2="233.50078" fill="none" stroke="#fff" stroke-miterlimit="10" stroke-width="1.65656"/>
        <line x1="944.04143" y1="233.50078" x2="1015.49041" y2="233.50078" fill="none" stroke="#fff" stroke-miterlimit="10" stroke-width="1.65656"/>
        <line x1="741.57756" y1="233.50078" x2="813.02655" y2="233.50078" fill="none" stroke="#fff" stroke-miterlimit="10" stroke-width="1.65656"/>
        <line x1="539.1137" y1="233.50078" x2="610.56269" y2="233.50078" fill="none" stroke="#fff" stroke-miterlimit="10" stroke-width="1.65656"/>
        <line x1="336.64984" y1="233.50078" x2="408.09882" y2="233.50078" fill="none" stroke="#fff" stroke-miterlimit="10" stroke-width="1.65656"/>
        <g>
          <polyline points="1127.234 129.217 1127.234 27.124 1165.597 27.124" fill="none" stroke="#fff" stroke-miterlimit="10" stroke-width="1.45266"/>
          <polyline points="1127.234 211.228 1127.234 143.165 1165.597 143.165" fill="none" stroke="#fff" stroke-miterlimit="10" stroke-width="1.45266"/>
          <polyline points="1179.047 211.228 1179.047 143.165 1217.41 143.165" fill="none" stroke="#fff" stroke-miterlimit="10" stroke-width="1.45266"/>
          <polyline points="1179.047 129.217 1179.047 27.124 1217.41 27.124" fill="none" stroke="#fff" stroke-miterlimit="10" stroke-width="1.45266"/>
        </g>
        <path d="M1099.51432,53.8749a137.07083,137.07083,0,0,0-70.53241,39.83125.48165.48165,0,0,1-.29608.14756,6.6507,6.6507,0,0,0-3.04533,1.16454l-8.02567,5.639c-.0956.06728-.18206.14213-.27321.21319a16.61665,16.61665,0,0,0-17.49977,6.236.51832.51832,0,0,0-.1009.32607c.10579,2.55882,1.69294,3.82545,3.3043,3.883a3.20491,3.20491,0,0,0,2.51932-1.07722,10.34442,10.34442,0,0,1,3.78734-2.70454,10.04394,10.04394,0,0,1,1.72685-.53026.49316.49316,0,0,1,.32209.92708,26.26282,26.26282,0,0,0-11.7861,11.0528.51706.51706,0,0,0-.05275.34992c.47137,2.24749,1.93239,3.27817,3.37723,3.33027a3.2096,3.2096,0,0,0,2.84395-1.51135,19.822,19.822,0,0,1,6.68271-6.52668.495.495,0,0,1,.63159.743,44.10575,44.10575,0,0,0-7.45843,12.48746.51154.51154,0,0,0-.0024.36558A3.858,3.858,0,0,0,1009.01,131.021a3.212,3.212,0,0,0,3.06819-1.94645,37.736,37.736,0,0,1,7.52644-11.32957.49307.49307,0,0,1,.82061.51185,55.24572,55.24572,0,0,0-3.01717,12.4575.50949.50949,0,0,0,.1208.3941,4.44541,4.44541,0,0,0,3.14842,1.78207,3.212,3.212,0,0,0,3.28771-2.73245,48.72471,48.72471,0,0,1,4.01881-13.34428.49806.49806,0,0,1,.19919-.2175q.22069-.13081.43415-.28024l4.40829-3.09744a.497.497,0,0,1,.77691.33364c.435,2.97957.25619,3.68092-.65565,6.831a25.62581,25.62581,0,0,0,6.13353,1.94369c1.158-4.18587,1.73719-7.53854.36355-11.99263a14.41209,14.41209,0,0,0-.76027-1.9373.48687.48687,0,0,1-.0011-.413,6.721,6.721,0,0,0,.56128-3.51223.49578.49578,0,0,1,.127-.39382,121.97577,121.97577,0,0,1,56.26819-34.03614" transform="translate(0 -7.88751)" fill="#3246c8" stroke="#fff" stroke-miterlimit="10" stroke-width="1.28587"/>
      </g>
    </g>
  </g>
</svg>
