<svg xmlns="http://www.w3.org/2000/svg" width="221.10236" height="291.96924" viewBox="0 0 221.10236 291.96924">
  <title>label-dynamo_2</title>
  <g id="Layer_2" data-name="Layer 2">
    <g id="Layer_1-2" data-name="Layer 1">
      <g>
        <path d="M0,0V188.9375A4.76114,4.76114,0,0,1,4.74561,193.782H216.35675a4.76111,4.76111,0,0,1,4.74561-4.84448V0Z" fill="#3d44ac"/>
        <path d="M0,198.52759v87.76563a5.67607,5.67607,0,0,0,5.67615,5.676H215.42621a5.67611,5.67611,0,0,0,5.67615-5.676V198.52759a4.74566,4.74566,0,0,1-4.74561-4.74561H4.74561A4.74566,4.74566,0,0,1,0,198.52759Z" fill="#50c9ed"/>
        <path d="M107.56245,59.54495h.32628a10.42853,10.42853,0,0,1,3.10314.46993l-.48881-.9409a10.55331,10.55331,0,0,1-.87842-2.31019l-.06488.12426A10.588,10.588,0,0,1,107.56245,59.54495Z" fill="none"/>
        <g>
          <path d="M28.59947,222.58818a.82461.82461,0,0,1,.83691-.8374h2.6875A4.7116,4.7116,0,0,1,37.14732,226.45v.02734a4.73266,4.73266,0,0,1-5.02344,4.72656h-2.6875a.82461.82461,0,0,1-.83691-.8374Zm3.52441,7.103a3.081,3.081,0,0,0,3.28174-3.187v-.02686a3.10187,3.10187,0,0,0-3.28174-3.21387H30.2606v6.42773Z" fill="#fff"/>
          <path d="M42.5189,227.53056,39.264,223.06084a1.02817,1.02817,0,0,1-.189-.58057.80795.80795,0,0,1,.8374-.79687.95594.95594,0,0,1,.81006.49951l2.6333,3.79443,2.67383-3.80762a.95335.95335,0,0,1,.79688-.5.78753.78753,0,0,1,.81006.81055,1.00625,1.00625,0,0,1-.22949.59375l-3.22754,4.416v2.95752a.83035.83035,0,0,1-1.66064,0Z" fill="#fff"/>
          <path d="M50.60435,222.534a.83274.83274,0,0,1,.8374-.83691h.17578a1.04644,1.04644,0,0,1,.86426.48584l4.72607,6.11768v-5.80713a.81717.81717,0,0,1,1.63428,0v7.94043a.80695.80695,0,0,1-.81055.82373h-.06738A1.04447,1.04447,0,0,1,57.1,230.7581l-4.86133-6.293v5.99561a.81717.81717,0,0,1-1.63428,0Z" fill="#fff"/>
          <path d="M62.07945,230.12334l3.51074-7.83252a1.05373,1.05373,0,0,1,.99951-.6748h.08105a1.0363,1.0363,0,0,1,.98584.6748l3.51074,7.83252a.72547.72547,0,0,1,.09473.35107.77888.77888,0,0,1-.7832.79688.85628.85628,0,0,1-.81055-.58105l-.76953-1.76855H64.30748l-.79687,1.82275a.79876.79876,0,0,1-.76953.52686.7613.7613,0,0,1-.77-.76953A.84689.84689,0,0,1,62.07945,230.12334Zm6.18457-2.67383-1.66113-3.82178-1.66064,3.82178Z" fill="#fff"/>
          <path d="M74.40465,222.534a.83274.83274,0,0,1,.8374-.83691h.17578a.874.874,0,0,1,.76953.44531l2.86279,4.4834,2.87646-4.49707a.83534.83534,0,0,1,.75635-.43164h.17529a.83274.83274,0,0,1,.8374.83691v7.91357a.82172.82172,0,0,1-.8374.82373.83571.83571,0,0,1-.82373-.82373v-5.67187l-2.30908,3.4707a.77583.77583,0,0,1-1.39111,0l-2.29541-3.44385v5.6582a.80755.80755,0,0,1-.82373.81055.79618.79618,0,0,1-.81055-.81055Z" fill="#fff"/>
          <path d="M87.05406,226.5042v-.02686a4.94287,4.94287,0,0,1,9.88477-.02734v.02734a4.94286,4.94286,0,0,1-9.88477.02686Zm8.14307,0v-.02686a3.23849,3.23849,0,0,0-3.21436-3.3623,3.19323,3.19323,0,0,0-3.18652,3.335v.02734a3.227,3.227,0,0,0,3.21387,3.34863A3.18245,3.18245,0,0,0,95.19713,226.5042Z" fill="#fff"/>
        </g>
        <g>
          <path d="M28.44078,259.56914a.51889.51889,0,0,1,.52686-.52686h3.46777a.47583.47583,0,1,1,0,.95166H29.48619v1.62354h2.56689a.47583.47583,0,1,1,0,.95166H29.48619v1.94678a.52273.52273,0,0,1-1.04541,0Z" fill="#fff"/>
          <path d="M34.73082,259.29765a.59353.59353,0,0,1,1.17285,0v.05078a.59219.59219,0,0,1-1.17285,0Zm.07666,1.67383a.50811.50811,0,0,1,.50977-.51855.51517.51517,0,0,1,.51855.51855v3.55273a.51418.51418,0,0,1-1.02832,0Z" fill="#fff"/>
          <path d="M38.08824,259.25468a.5061.5061,0,0,1,.50977-.50977.51332.51332,0,0,1,.51855.50977v5.26953a.51418.51418,0,0,1-1.02832,0Z" fill="#fff"/>
          <path d="M41.52232,263.75078V261.388H41.3524a.44189.44189,0,0,1,0-.88379h.16992v-.76514a.51418.51418,0,0,1,1.02832,0v.76514h.80762a.442.442,0,1,1,0,.88379h-.80762v2.20166a.48938.48938,0,0,0,.55225.56055,2.454,2.454,0,0,0,.25537-.02539.43352.43352,0,0,1,.43311.4248.44192.44192,0,0,1-.272.39941,2.03857,2.03857,0,0,1-.70508.11914A1.15,1.15,0,0,1,41.52232,263.75078Z" fill="#fff"/>
          <path d="M47.58238,265.09355a2.239,2.239,0,0,1-2.30322-2.32861v-.01709a2.2272,2.2272,0,0,1,2.19287-2.33691,2.12275,2.12275,0,0,1,2.1333,2.20947.48039.48039,0,0,1-.48437.49268H46.30748a1.25313,1.25313,0,0,0,1.292,1.13916,1.61155,1.61155,0,0,0,1.0625-.39111.38293.38293,0,0,1,.26367-.09326.4044.4044,0,0,1,.40771.4165.44962.44962,0,0,1-.13574.31445A2.3059,2.3059,0,0,1,47.58238,265.09355Zm1.02-2.66016a1.16464,1.16464,0,0,0-1.13867-1.18115,1.21469,1.21469,0,0,0-1.16455,1.18115Z" fill="#fff"/>
          <path d="M51.50963,260.97148a.50811.50811,0,0,1,.50977-.51855.51517.51517,0,0,1,.51855.51855v.459a1.42784,1.42784,0,0,1,1.13037-.98584.47748.47748,0,0,1,.51025.51025.48283.48283,0,0,1-.4082.49268c-.731.12744-1.23242.68848-1.23242,1.751v1.32568a.51332.51332,0,0,1-.51855.50977.5058.5058,0,0,1-.50977-.50977Z" fill="#fff"/>
        </g>
        <path d="M192.55113,246.01006h-164a.375.375,0,0,1,0-.75h164a.375.375,0,0,1,0,.75Z" fill="#fff"/>
        <g>
          <g>
            <path d="M102.69189,92.50775a3.28095,3.28095,0,0,1-2.91234-4.78328l8.02666-15.56858a3.27974,3.27974,0,0,1,5.83026,3.00582l-8.02666,15.56858A3.27979,3.27979,0,0,1,102.69189,92.50775Z" fill="#f4f4f4"/>
            <path d="M89.74383,117.25172a3.28073,3.28073,0,0,1-2.897-4.8123l4.90786-9.29a3.27939,3.27939,0,0,1,2.8998-1.74769h15.05885a3.27967,3.27967,0,0,1,0,6.55934H96.63108l-3.98466,7.54227A3.27933,3.27933,0,0,1,89.74383,117.25172Z" fill="#f4f4f4"/>
            <path d="M131.35841,117.24375a3.27921,3.27921,0,0,1-2.90876-1.75989L116.09887,91.87871a3.27972,3.27972,0,0,1,5.81194-3.041L134.26159,112.443a3.28081,3.28081,0,0,1-2.90319,4.80075Z" fill="#f4f4f4"/>
          </g>
          <g>
            <path d="M76.78039,144.357a4.928,4.928,0,0,0-1.18791-.96469,5.64813,5.64813,0,0,0-1.4964-.607l-2.464-.63081a3.49369,3.49369,0,0,1-1.59466-.90034,1.96283,1.96283,0,0,1-.61079-1.43069,2.01864,2.01864,0,0,1,.23085-.94144,2.45908,2.45908,0,0,1,.65377-.78384,3.359,3.359,0,0,1,.99462-.53952,3.79645,3.79645,0,0,1,1.25577-.19928,6.448,6.448,0,0,1,1.91165.26981,6.35528,6.35528,0,0,1,1.588.74207.72511.72511,0,0,0,.486.15223.81413.81413,0,0,0,.81119-.81124.76239.76239,0,0,0-.10883-.39781.96229.96229,0,0,0-.27168-.29263,8.76828,8.76828,0,0,0-2.03526-.95267,7.78949,7.78949,0,0,0-2.38106-.35188,5.30613,5.30613,0,0,0-1.87452.32452,5.01006,5.01006,0,0,0-1.502.8733A4.07745,4.07745,0,0,0,68.174,138.2125a3.60785,3.60785,0,0,0-.36966,1.61093,3.42741,3.42741,0,0,0,.25713,1.30624,4.04641,4.04641,0,0,0,.71523,1.14442,4.5614,4.5614,0,0,0,1.08886.8958,5.03588,5.03588,0,0,0,1.36007.55841l2.5405.63006a3.94274,3.94274,0,0,1,1.77294,1.02848,2.289,2.289,0,0,1,.69035,1.63829,2.32162,2.32162,0,0,1-.2605,1.07978,2.85552,2.85552,0,0,1-.734.89341,3.58912,3.58912,0,0,1-1.10144.60743,4.1714,4.1714,0,0,1-1.37442.21906,6.42957,6.42957,0,0,1-2.211-.35656,6.83813,6.83813,0,0,1-1.79548-.98124.83731.83731,0,0,0-.4725-.142.784.784,0,0,0-.57268.23838l-.00014.00014a.78394.78394,0,0,0-.23838.57272.74033.74033,0,0,0,.33276.665,8.68326,8.68326,0,0,0,2.246,1.20335,7.98081,7.98081,0,0,0,2.71139.44233,5.6718,5.6718,0,0,0,1.99261-.34426,5.14039,5.14039,0,0,0,1.61219-.95365,4.46289,4.46289,0,0,0,1.0795-1.41567,3.9546,3.9546,0,0,0,.38874-1.72813,3.77036,3.77036,0,0,0-.27691-1.43433A4.3058,4.3058,0,0,0,76.78039,144.357Z" fill="#f4f4f4"/>
            <path d="M90.74926,144.357a4.93081,4.93081,0,0,0-1.18777-.96469,5.64907,5.64907,0,0,0-1.49654-.607l-2.464-.63081a3.49248,3.49248,0,0,1-1.59452-.90034,1.9626,1.9626,0,0,1-.61079-1.43069,2.01947,2.01947,0,0,1,.23085-.94158,2.45586,2.45586,0,0,1,.65377-.7837,3.36025,3.36025,0,0,1,.99443-.53952,3.79778,3.79778,0,0,1,1.256-.19928,6.452,6.452,0,0,1,1.91165.26971,6.35956,6.35956,0,0,1,1.588.74216.72511.72511,0,0,0,.486.15223.81413.81413,0,0,0,.81119-.81124.7637.7637,0,0,0-.10883-.39781.96684.96684,0,0,0-.27172-.29263,8.77075,8.77075,0,0,0-2.03535-.95267,7.78923,7.78923,0,0,0-2.38092-.35188,5.30583,5.30583,0,0,0-1.87456.32452,5.01038,5.01038,0,0,0-1.502.8733A4.07826,4.07826,0,0,0,82.143,138.2125a3.60815,3.60815,0,0,0-.36961,1.61093,3.42825,3.42825,0,0,0,.25708,1.30624,4.05423,4.05423,0,0,0,.71513,1.14442,4.56215,4.56215,0,0,0,1.089.8958,5.03218,5.03218,0,0,0,1.36007.55841l2.5405.63006a3.94274,3.94274,0,0,1,1.77294,1.02848,2.28884,2.28884,0,0,1,.6903,1.63829,2.32288,2.32288,0,0,1-.26045,1.07978,2.85745,2.85745,0,0,1-.734.89341,3.58987,3.58987,0,0,1-1.10158.60743,4.1702,4.1702,0,0,1-1.37442.21906,6.42883,6.42883,0,0,1-2.21087-.35656,6.83942,6.83942,0,0,1-1.79557-.98124.837.837,0,0,0-.4725-.142.78393.78393,0,0,0-.57254.23838l-.00019.00014a.78366.78366,0,0,0-.23847.57272.74033.74033,0,0,0,.33276.665,8.68335,8.68335,0,0,0,2.24614,1.20335,7.98,7.98,0,0,0,2.71125.44233,5.67123,5.67123,0,0,0,1.99261-.34426,5.14108,5.14108,0,0,0,1.61233-.95365,4.46141,4.46141,0,0,0,1.07936-1.41567,3.95371,3.95371,0,0,0,.38874-1.72813,3.76973,3.76973,0,0,0-.27677-1.43433A4.30768,4.30768,0,0,0,90.74926,144.357Z" fill="#f4f4f4"/>
            <path d="M106.88762,136.05269H97.45624a.81389.81389,0,0,0-.8111.81105v4.02515a.81413.81413,0,0,0,.8111.81124.81719.81719,0,0,0,.58021-.23613.769.769,0,0,0,.25082-.57511V137.675h8.60035a.81115.81115,0,0,0,0-1.6223Z" fill="#f4f4f4"/>
            <path d="M106.88762,149.48939H98.28727V144.423h7.239a.81437.81437,0,0,0,.81119-.81119.8179.8179,0,0,0-.23609-.58021.76945.76945,0,0,0-.57511-.25072h-8.07a.76955.76955,0,0,0-.57516.25072.81752.81752,0,0,0-.23595.58021v6.70848a.81389.81389,0,0,0,.8111.8111h9.43137a.80992.80992,0,0,0,.57282-1.38378A.867.867,0,0,0,106.88762,149.48939Z" fill="#f4f4f4"/>
            <path d="M126.13994,136.13318l-6.1358,6.13594-6.15535-6.13608a.81117.81117,0,0,0-1.38387.573v13.77217a.78443.78443,0,0,0,.23833.57272.82184.82184,0,0,0,1.15293.00239.769.769,0,0,0,.25082-.57511v-11.8137l5.32447,5.36212a.80715.80715,0,0,0,1.146-.00028l5.32419-5.36184v11.8137a.81373.81373,0,0,0,.81119.81105.818.818,0,0,0,.58021-.23595.76893.76893,0,0,0,.25072-.57511V136.706a.76876.76876,0,0,0-.25086-.5752A.82205.82205,0,0,0,126.13994,136.13318Z" fill="#f4f4f4"/>
            <path d="M158.19685,149.50908h-7.90991V136.706a.76887.76887,0,0,0-.25068-.5752.82227.82227,0,0,0-1.15293.00224v.00014a.78441.78441,0,0,0-.23833.57282v13.61428a.81381.81381,0,0,0,.81105.8111h8.74079a.81115.81115,0,0,0,0-1.6223Z" fill="#f4f4f4"/>
            <path d="M170.57686,136.34719a.84833.84833,0,0,0-.2829-.31947.7546.7546,0,0,0-.43452-.13278.77629.77629,0,0,0-.66677.335l-5.18061,7.28939a.74561.74561,0,0,0-.17276.50683v6.452a.81122.81122,0,0,0,1.62244,0v-6.20979l5.06238-7.08347a.70219.70219,0,0,0,.14657-.42957A.90537.90537,0,0,0,170.57686,136.34719Z" fill="#f4f4f4"/>
            <path d="M163.6837,141.21572l-3.55322-5.002a.71783.71783,0,0,0-.54621-.32794.9162.9162,0,0,0-.61987.15419.79711.79711,0,0,0-.32186.5231.75642.75642,0,0,0,.13221.59919l3.55327,5.0019a.74134.74134,0,0,0,.531.33729.90091.90091,0,0,0,.12829.00935.86359.86359,0,0,0,.48709-.15307.8414.8414,0,0,0,.33107-.529A.7457.7457,0,0,0,163.6837,141.21572Z" fill="#f4f4f4"/>
            <path d="M58.52347,136.5881c-.00524-.01118-.013-.02034-.01871-.03115a.78823.78823,0,0,0-.04279-.07132c-.01389-.02067-.02806-.04055-.04363-.05954-.01632-.01988-.03372-.03854-.052-.05678a.7857.7857,0,0,0-.058-.05313c-.01852-.0152-.038-.02918-.05823-.04284a.80243.80243,0,0,0-.07272-.04368c-.01062-.00557-.01955-.0131-.03045-.01824s-.02226-.00716-.03316-.01179a.78836.78836,0,0,0-.07838-.02778c-.02409-.0072-.04789-.01361-.07212-.01843-.02483-.005-.04976-.008-.07511-.01057-.02582-.00253-.05145-.00444-.07712-.00444-.02479,0-.04934.00182-.07413.00426-.02638.00253-.05229.0058-.0781.0109-.02338.00468-.0463.01085-.06954.01773a.77394.77394,0,0,0-.08077.02862c-.01066.0044-.0217.00636-.03218.01136-.01066.005-.01927.0123-.02965.01773a.79014.79014,0,0,0-.07408.04448c-.02.01347-.03914.02722-.05757.04223a.77244.77244,0,0,0-.05823.05327.75106.75106,0,0,0-.05191.05673c-.01557.019-.02988.03886-.04392.05958a.80213.80213,0,0,0-.04265.07118c-.0058.01085-.01347.02-.01885.03119l-3.42156,7.27779a.787.787,0,1,0,1.42372.67117l2.70928-5.76633,5.86586,12.46425a.78694.78694,0,0,0,1.424-.67033Z" fill="#f4f4f4"/>
            <path d="M59.5557,146.05932H53.19026a.78586.78586,0,0,0-.7663.44785l-1.91708,4.0671a.787.787,0,1,0,1.42377.67117l1.7026-3.61219H59.5557a.787.787,0,1,0,0-1.57394Z" fill="#f4f4f4"/>
            <path d="M143.85509,145.096a4.32387,4.32387,0,0,0-4.00631-2.65059h-3.51314a.76867.76867,0,0,0-.57511.25068.81782.81782,0,0,0-.23609.58021.81429.81429,0,0,0,.81119.81124h3.51314a2.57134,2.57134,0,0,1,1.04817.21495,2.77619,2.77619,0,0,1,1.43775,1.43766,2.57533,2.57533,0,0,1,.215,1.04831,2.644,2.644,0,0,1-.21527,1.05893,2.78193,2.78193,0,0,1-.58222.86423,2.6597,2.6597,0,0,1-1.90342.77776h-5.404V137.675h5.06851a2.27083,2.27083,0,0,1,.91086.18562,2.43823,2.43823,0,0,1,.75577.51319,2.408,2.408,0,0,1,.51277.76471,2.33939,2.33939,0,0,1,.18609.92161,2.52281,2.52281,0,0,1-.12258.76789c-.00772.02432-.01417.04873-.02264.073a.7978.7978,0,0,0-.03442.22079.80706.80706,0,0,0,1.55093.313l.00028-.00028a1.45034,1.45034,0,0,0,.12627-.34693,3.52582,3.52582,0,0,0,.14423-1.02745,3.90675,3.90675,0,0,0-.31728-1.55495,3.99982,3.99982,0,0,0-2.13516-2.1352,3.90812,3.90812,0,0,0-1.55514-.31728h-5.89953a.81389.81389,0,0,0-.81124.81105v13.45653a.81413.81413,0,0,0,.81124.8111h6.235a4.356,4.356,0,0,0,4.00631-6.03535Z" fill="#f4f4f4"/>
          </g>
        </g>
        <g>
          <path d="M168.5355,263.98076l1.82715-1.55518c.81592-.68848,1.11328-1.07129,1.11328-1.60645a.892.892,0,0,0-.96045-.92627,1.45646,1.45646,0,0,0-1.17285.6626.48145.48145,0,0,1-.84131-.31445.52125.52125,0,0,1,.11914-.32275,2.30117,2.30117,0,0,1,1.97168-.96045,1.78157,1.78157,0,0,1,1.96338,1.77637v.01709c0,.93506-.49316,1.44482-1.54687,2.30322l-1.22412,1.01953h2.41406a.459.459,0,0,1,0,.918h-3.374a.50182.50182,0,0,1-.561-.49268A.64872.64872,0,0,1,168.5355,263.98076Z" fill="#fff"/>
          <path d="M174.67222,264.448a.51428.51428,0,0,1-.2124-.40771.508.508,0,0,1,.50146-.50146.45854.45854,0,0,1,.30566.10205,1.99715,1.99715,0,0,0,1.292.50146,1.04159,1.04159,0,0,0,1.15576-1.02832V263.097c0-.61182-.50977-.98584-1.23242-.98584a4.04343,4.04343,0,0,0-1.01953.2041.818.818,0,0,1-.49316-.2041.49671.49671,0,0,1-.2041-.459l.12744-2.1416a.47883.47883,0,0,1,.47607-.46777h2.69434a.47186.47186,0,0,1,.46729.46777.46433.46433,0,0,1-.46729.459H175.828l-.09326,1.39355a2.52748,2.52748,0,0,1,.94336-.16992,1.83779,1.83779,0,0,1,2.07373,1.87012v.0166a2.00057,2.00057,0,0,1-2.17578,2.01465A3.014,3.014,0,0,1,174.67222,264.448Z" fill="#fff"/>
          <path d="M180.58824,262.03447v-.01709c0-1.69971,1.03662-3.07666,2.60059-3.07666,1.55566,0,2.584,1.35986,2.584,3.06006v.0166c0,1.7002-1.03711,3.07715-2.60107,3.07715C181.60826,265.09453,180.58824,263.73418,180.58824,262.03447Zm4.105,0v-.01709c0-1.17285-.60352-2.13281-1.52148-2.13281-.91748,0-1.50439.93457-1.50439,2.11621v.0166c0,1.17285.59521,2.13379,1.52148,2.13379S184.69322,263.199,184.69322,262.03447Z" fill="#fff"/>
          <path d="M188.01695,265.96953a.42128.42128,0,0,1-.28906-.4082.434.434,0,0,1,.43359-.4248.3993.3993,0,0,1,.187.043,2.74439,2.74439,0,0,0,1.377.35645,1.25464,1.25464,0,0,0,1.41943-1.377v-.34814a1.88084,1.88084,0,0,1-1.58105.82471,2.01679,2.01679,0,0,1-2.03955-2.09961v-.0166a2.02387,2.02387,0,0,1,2.03955-2.1084,1.93588,1.93588,0,0,1,1.57227.76514v-.2124a.51418.51418,0,0,1,1.02832.00879V264.074a2.29542,2.29542,0,0,1-.56934,1.69141,2.52427,2.52427,0,0,1-1.84424.60352A3.87473,3.87473,0,0,1,188.01695,265.96953Zm3.13623-3.44238v-.0166a1.25344,1.25344,0,0,0-1.31738-1.23242,1.21255,1.21255,0,0,0-1.2749,1.23242v.0166a1.22184,1.22184,0,0,0,1.2749,1.23242A1.25314,1.25314,0,0,0,191.15318,262.52714Z" fill="#fff"/>
        </g>
      </g>
    </g>
  </g>
</svg>
