<svg xmlns="http://www.w3.org/2000/svg" width="205" height="266.06955" viewBox="0 0 205 266.06955">
  <title>label-harrar</title>
  <g id="Layer_2" data-name="Layer 2">
    <g id="Layer_1-2" data-name="Layer 1">
      <g>
        <path d="M200.57824,174.13H4.42176A4.42176,4.42176,0,0,0,0,169.70827V0H205V169.70827A4.42176,4.42176,0,0,0,200.57824,174.13Z" fill="#3246c8"/>
        <path d="M196.64393,266.06955H8.35607A8.35607,8.35607,0,0,1,0,257.71347V178.55178A4.42176,4.42176,0,0,0,4.42176,174.13H200.57824A4.42176,4.42176,0,0,0,205,178.55178v79.16169A8.35607,8.35607,0,0,1,196.64393,266.06955Z" fill="#ff5057"/>
        <text transform="translate(24.04022 211.39619)" font-size="13.19742" fill="#f2edec" font-family="GothamRounded-Medium, Gotham Rounded" letter-spacing="0.10004em">ETHIOPIAN HARRAR</text>
        <text transform="translate(24.04022 243.11055)" font-size="7.91845" fill="#f2edec" font-family="GothamRounded-Medium, Gotham Rounded" letter-spacing="0.10002em">E<tspan x="6.09766" y="0" letter-spacing="0.09003em">S</tspan><tspan x="11.87793" y="0">SPRE</tspan><tspan x="36.43262" y="0" letter-spacing="0.09003em">S</tspan><tspan x="42.21289" y="0" letter-spacing="0.10014em">SO</tspan></text>
        <line x1="23.50695" y1="224.94162" x2="178.01415" y2="224.94162" fill="none" stroke="#f2edec" stroke-linecap="round" stroke-linejoin="round" stroke-width="0.65987"/>
        <path d="M99.69469,55.89014h.30625a9.78858,9.78858,0,0,1,2.91271.4411l-.45882-.88316a9.90569,9.90569,0,0,1-.82452-2.16842l-.0609.11664A9.93828,9.93828,0,0,1,99.69469,55.89014Z" fill="none"/>
        <g>
          <path d="M104.02976,50.03854a2.99913,2.99913,0,0,0-4.03943,1.29113L92.65158,65.56411a2.99867,2.99867,0,1,0,5.33056,2.74829L105.32077,54.078A2.99865,2.99865,0,0,0,104.02976,50.03854Z" fill="#f2edec"/>
          <path d="M101.73409,78.06918H87.96576A2.99843,2.99843,0,0,0,85.31449,79.667L80.827,88.16081a2.99868,2.99868,0,1,0,5.30281,2.80151l3.64308-6.89594h11.96117a2.9986,2.9986,0,1,0,0-5.9972Z" fill="#f2edec"/>
          <path d="M124.17851,88.16412,112.88615,66.58189a2.9986,2.9986,0,1,0-5.31376,2.78038L118.86476,90.9445a2.9986,2.9986,0,1,0,5.31376-2.78038Z" fill="#f2edec"/>
        </g>
        <g>
          <path d="M65.2558,126.31552a5.43688,5.43688,0,0,0-1.31009-1.06392,6.228,6.228,0,0,0-1.65034-.66942l-2.71739-.69568a3.85313,3.85313,0,0,1-1.75866-.993,2.16459,2.16459,0,0,1-.67364-1.57782,2.22574,2.22574,0,0,1,.25461-1.03828,2.71123,2.71123,0,0,1,.721-.86448,3.70588,3.70588,0,0,1,1.0969-.595,4.18812,4.18812,0,0,1,1.385-.21975,7.11123,7.11123,0,0,1,2.1083.29759,7.00786,7.00786,0,0,1,1.75131.81837.79981.79981,0,0,0,.53594.16786.89786.89786,0,0,0,.89465-.89465.84048.84048,0,0,0-.12-.43873,1.06086,1.06086,0,0,0-.29962-.32275,9.67078,9.67078,0,0,0-2.24459-1.05063,8.59061,8.59061,0,0,0-2.626-.38809,5.852,5.852,0,0,0-2.06735.35792,5.52569,5.52569,0,0,0-1.65644.9631,4.498,4.498,0,0,0-1.11518,1.4309,3.97936,3.97936,0,0,0-.40762,1.77663,3.78077,3.78077,0,0,0,.28352,1.44059,4.463,4.463,0,0,0,.78883,1.2621,5.03093,5.03093,0,0,0,1.20083.988,5.55483,5.55483,0,0,0,1.5.61581l2.80179.6949a4.34772,4.34772,0,0,1,1.95528,1.13425,2.52446,2.52446,0,0,1,.76132,1.8068,2.56043,2.56043,0,0,1-.28727,1.19083,3.14944,3.14944,0,0,1-.80946.9853,3.95836,3.95836,0,0,1-1.21474.66989,4.60035,4.60035,0,0,1-1.51577.24164,7.09145,7.09145,0,0,1-2.4384-.39324,7.54153,7.54153,0,0,1-1.98013-1.0822.92339.92339,0,0,0-.5211-.15661.86457.86457,0,0,0-.6316.26289l-.00016.00016a.86457.86457,0,0,0-.26289.6316.81652.81652,0,0,0,.367.73335,9.57675,9.57675,0,0,0,2.477,1.32712,8.802,8.802,0,0,0,2.99028.4878,6.25523,6.25523,0,0,0,2.19754-.37965,5.66937,5.66937,0,0,0,1.778-1.05173A4.92317,4.92317,0,0,0,65.987,131.164a4.36152,4.36152,0,0,0,.42872-1.90589,4.158,4.158,0,0,0-.30541-1.58189A4.74883,4.74883,0,0,0,65.2558,126.31552Z" fill="#f2edec"/>
          <path d="M80.66141,126.31552a5.43907,5.43907,0,0,0-1.30993-1.06392,6.229,6.229,0,0,0-1.6505-.66942l-2.71739-.69568a3.85178,3.85178,0,0,1-1.7585-.993,2.16434,2.16434,0,0,1-.67364-1.57782,2.22729,2.22729,0,0,1,.25461-1.03844,2.70832,2.70832,0,0,1,.721-.86432,3.707,3.707,0,0,1,1.09674-.595,4.18906,4.18906,0,0,1,1.38511-.21975,7.11717,7.11717,0,0,1,2.1083.29743,7.01372,7.01372,0,0,1,1.75131.81853.79981.79981,0,0,0,.53594.16786.89786.89786,0,0,0,.89465-.89465.84194.84194,0,0,0-.12-.43873,1.0664,1.0664,0,0,0-.29962-.32275,9.6749,9.6749,0,0,0-2.24474-1.05063,8.59031,8.59031,0,0,0-2.6258-.38809,5.85137,5.85137,0,0,0-2.06735.35792,5.52569,5.52569,0,0,0-1.65644.9631,4.498,4.498,0,0,0-1.11518,1.4309,3.97887,3.97887,0,0,0-.40762,1.77663,3.78077,3.78077,0,0,0,.28352,1.44059,4.47034,4.47034,0,0,0,.78868,1.2621,5.03176,5.03176,0,0,0,1.201.988,5.55071,5.55071,0,0,0,1.5.61581l2.80179.6949a4.34772,4.34772,0,0,1,1.95528,1.13425,2.5242,2.5242,0,0,1,.76132,1.8068,2.56187,2.56187,0,0,1-.28727,1.19083,3.15159,3.15159,0,0,1-.80946.9853,3.95919,3.95919,0,0,1-1.2149.66989,4.599,4.599,0,0,1-1.51577.24164,7.09054,7.09054,0,0,1-2.43824-.39324,7.54245,7.54245,0,0,1-1.98029-1.0822.923.923,0,0,0-.5211-.15661.86447.86447,0,0,0-.63144.26289l-.00016.00016a.8641.8641,0,0,0-.263.6316.81652.81652,0,0,0,.367.73335,9.5777,9.5777,0,0,0,2.47716,1.32712,8.8011,8.8011,0,0,0,2.99013.4878A6.2546,6.2546,0,0,0,78.424,133.777a5.67014,5.67014,0,0,0,1.7782-1.05173,4.92094,4.92094,0,0,0,1.19036-1.56126,4.36053,4.36053,0,0,0,.42872-1.90589,4.15727,4.15727,0,0,0-.30525-1.58189A4.75021,4.75021,0,0,0,80.66141,126.31552Z" fill="#f2edec"/>
          <path d="M98.45963,117.15712H88.05819a.89759.89759,0,0,0-.89449.89449v4.43916a.89786.89786,0,0,0,.89449.89465.901.901,0,0,0,.63988-.26039.84805.84805,0,0,0,.27665-.63425v-3.54451h9.48491a.89457.89457,0,0,0,0-1.78914Z" fill="#f2edec"/>
          <path d="M98.45963,131.97584H88.97472v-5.58748h7.98352a.89813.89813,0,0,0,.89465-.89465.90194.90194,0,0,0-.26039-.63988.84839.84839,0,0,0-.63425-.27649h-8.9a.84839.84839,0,0,0-.63425.27649.90152.90152,0,0,0-.26024.63988v7.3985a.89759.89759,0,0,0,.89449.89449H98.45963a.89322.89322,0,0,0,.63175-1.52609A.95637.95637,0,0,0,98.45963,131.97584Z" fill="#f2edec"/>
          <path d="M119.69217,117.2459l-6.7669,6.76705-6.78847-6.76721a.89465.89465,0,0,0-1.52624.63191v15.18867a.86507.86507,0,0,0,.26289.6316.9063.9063,0,0,0,1.27148.00266.84805.84805,0,0,0,.27665-.63425v-13.0288l5.87209,5.91367a.89016.89016,0,0,0,1.26382-.00031l5.87178-5.91336v13.0288a.89759.89759,0,0,0,.89465.89449.90231.90231,0,0,0,.63988-.26024.8479.8479,0,0,0,.27649-.63425V117.87765a.84782.84782,0,0,0-.27665-.63441A.90659.90659,0,0,0,119.69217,117.2459Z" fill="#f2edec"/>
          <path d="M138.20622,125.60187a4.78836,4.78836,0,0,0-3.39525-1.39449h-4.0692a.84765.84765,0,0,0-.63425.27649.90207.90207,0,0,0-.26039.63988.89813.89813,0,0,0,.89465.89465h4.0692a2.83526,2.83526,0,0,1,1.156.2371,3.0613,3.0613,0,0,1,1.58564,1.58548,2.84071,2.84071,0,0,1,.2371,1.15613,2.91641,2.91641,0,0,1-.23742,1.16785,3.06788,3.06788,0,0,1-.64207.9531,2.93329,2.93329,0,0,1-2.09923.85776H128.8512V118.94626H134.441a2.504,2.504,0,0,1,1.00452.20475,2.68858,2.68858,0,0,1,.83353.566,2.65592,2.65592,0,0,1,.56548.84338,2.57949,2.57949,0,0,1,.20522,1.0164,2.83781,2.83781,0,0,1-.272,1.2049q-.04056.102-.08143.18381l-.00016.00016a.58519.58519,0,0,0-.05986.26508.884.884,0,0,0,.24929.62878.82894.82894,0,0,0,.62347.26571.78894.78894,0,0,0,.445-.13473,1.07873,1.07873,0,0,0,.317-.329,3.84686,3.84686,0,0,0,.58971-2.0847,4.30875,4.30875,0,0,0-.35-1.7149,4.41074,4.41074,0,0,0-2.35478-2.35478,4.309,4.309,0,0,0-1.71505-.34995h-6.50635a.89759.89759,0,0,0-.89465.89449v14.8406a.89786.89786,0,0,0,.89465.89449H134.811a4.80014,4.80014,0,0,0,3.39525-8.18483Z" fill="#f2edec"/>
          <path d="M155.04618,131.99756h-8.72343V117.87765a.848.848,0,0,0-.27649-.63441.90688.90688,0,0,0-1.27148.0025v.00016a.86517.86517,0,0,0-.26289.63175v15.01456a.89759.89759,0,0,0,.89449.89449h9.6398a.89457.89457,0,0,0,0-1.78914Z" fill="#f2edec"/>
          <path d="M168.69954,117.48191a.93511.93511,0,0,0-.312-.35229.832.832,0,0,0-.47921-.14645.85617.85617,0,0,0-.73538.36949l-5.71345,8.03916a.82235.82235,0,0,0-.19053.55892v7.1156a.89465.89465,0,0,0,1.78929,0v-6.84848l5.5831-7.81206a.77435.77435,0,0,0,.16161-.47374A.99824.99824,0,0,0,168.69954,117.48191Z" fill="#f2edec"/>
          <path d="M161.24525,123.05391l-4.06655-5.71924a.79158.79158,0,0,0-.60237-.36167,1.01056,1.01056,0,0,0-.68364.17005.87928.87928,0,0,0-.355.57689.83428.83428,0,0,0,.14583.66083l4.06655,5.71908a.81765.81765,0,0,0,.58565.372.9902.9902,0,0,0,.14145.01032.95237.95237,0,0,0,.53719-.1688.9279.9279,0,0,0,.36511-.58346A.82244.82244,0,0,0,161.24525,123.05391Z" fill="#f2edec"/>
          <path d="M45.1211,117.74761c-.00578-.01235-.01438-.02243-.02063-.03439a.872.872,0,0,0-.0472-.07862c-.01532-.02282-.03095-.0447-.04814-.06564-.018-.022-.0372-.04251-.05736-.06268-.02063-.02063-.04158-.04025-.06393-.05853-.02047-.0168-.04189-.0322-.06424-.04728a.88851.88851,0,0,0-.08018-.04814c-.01172-.00617-.02157-.01446-.0336-.02016s-.02454-.00789-.03657-.013a.86051.86051,0,0,0-.08643-.03063c-.02657-.008-.05283-.015-.07956-.02032a.83489.83489,0,0,0-.08284-.01164c-.02845-.00281-.05674-.00492-.085-.00492-.02735,0-.05439.002-.08174.00469-.02907.00281-.05767.00641-.08612.012-.02579.00516-.05111.012-.07674.01954a.86151.86151,0,0,0-.08909.03157c-.01172.00485-.02391.007-.03548.0125-.01172.00547-.02126.0136-.03267.01954a.88732.88732,0,0,0-.08174.04908c-.022.01485-.04314.03-.06346.04658a.844.844,0,0,0-.06424.05877.82872.82872,0,0,0-.0572.06252c-.01719.02094-.033.0429-.04845.06572a.88016.88016,0,0,0-.047.07854c-.00641.012-.01485.022-.02079.03439l-3.97933,8.44256a.86795.86795,0,1,0,1.57016.74022l3.19378-6.77565,6.46915,13.7462a.86789.86789,0,0,0,1.57048-.73929Z" fill="#f2edec"/>
          <path d="M46.574,128.193H39.23931a.86669.86669,0,0,0-.8451.4939L36.28,133.17229a.86795.86795,0,1,0,1.57016.74022l1.87776-3.98371H46.574a.86792.86792,0,0,0,0-1.73584Z" fill="#f2edec"/>
        </g>
        <text transform="translate(154.01678 243.11055)" font-size="7.91845" fill="#f2edec" font-family="GothamRounded-Medium, Gotham Rounded" letter-spacing="0.10002em">250g</text>
      </g>
    </g>
  </g>
</svg>
