<svg xmlns="http://www.w3.org/2000/svg" width="205" height="266.06955" viewBox="0 0 205 266.06955">
  <title>label-special</title>
  <g id="Layer_2" data-name="Layer 2">
    <g id="Layer_1-2" data-name="Layer 1">
      <g>
        <path d="M200.57824,174.13H4.42176A4.42176,4.42176,0,0,0,0,169.70827V0H205V169.70827A4.42176,4.42176,0,0,0,200.57824,174.13Z" fill="#3246c8"/>
        <path d="M196.64393,266.06955H8.35607A8.35607,8.35607,0,0,1,0,257.71347V178.55178A4.42176,4.42176,0,0,0,4.42176,174.13H200.57824A4.42176,4.42176,0,0,0,205,178.55178v79.16169A8.35607,8.35607,0,0,1,196.64393,266.06955Z" fill="#525766"/>
        <g>
          <path d="M24.99027,210.3663a.7567.7567,0,0,1,.44922-1.37207.75286.75286,0,0,1,.47461.14453,4.00562,4.00562,0,0,0,2.58691.95068c1.00293,0,1.63672-.4751,1.63672-1.16162v-.02637c0-.66016-.36914-1.0166-2.085-1.41211-1.9668-.47559-3.0752-1.05615-3.0752-2.75879v-.02637c0-1.584,1.31934-2.6792,3.1543-2.6792a5.07922,5.07922,0,0,1,2.92969.85791.73127.73127,0,0,1,.35645.64648.75447.75447,0,0,1-.76562.75244.78425.78425,0,0,1-.42187-.11865,3.8445,3.8445,0,0,0-2.125-.69971c-.9502,0-1.50488.48877-1.50488,1.0957v.02637c0,.7124.42285,1.02979,2.2041,1.45166,1.95313.47559,2.957,1.1748,2.957,2.70605v.02637c0,1.729-1.35937,2.75879-3.2998,2.75879A5.75263,5.75263,0,0,1,24.99027,210.3663Z" fill="#f2edec"/>
          <path d="M34.9932,202.97518a.806.806,0,0,1,.81836-.81836h2.8252c2.16406,0,3.51074,1.22754,3.51074,3.08838v.02637c0,2.07227-1.66309,3.15479-3.69629,3.15479h-1.834v2.23047a.812.812,0,0,1-1.624,0Zm3.51172,3.98584c1.22754,0,1.99219-.686,1.99219-1.64941v-.02637c0-1.08252-.77832-1.65039-1.99219-1.65039h-1.8877V206.961Z" fill="#f2edec"/>
          <path d="M45.12894,210.57772v-7.60254a.806.806,0,0,1,.81836-.81836h5.37207a.73268.73268,0,0,1,.72656.72607.72372.72372,0,0,1-.72656.72559H46.753v2.40234h3.97266a.73532.73532,0,0,1,.72559.73926.72119.72119,0,0,1-.72559.71289H46.753v2.48145h4.63281a.73238.73238,0,0,1,.72559.72559.72393.72393,0,0,1-.72559.72607H45.9473A.806.806,0,0,1,45.12894,210.57772Z" fill="#f2edec"/>
          <path d="M54.88187,206.80282v-.02637a4.67559,4.67559,0,0,1,4.76563-4.77783,4.84466,4.84466,0,0,1,3.167,1.04248.81078.81078,0,0,1,.31738.647.81247.81247,0,0,1-1.29395.6333,3.35031,3.35031,0,0,0-2.2041-.83105,3.10874,3.10874,0,0,0-3.04883,3.25977v.02637a3.11283,3.11283,0,0,0,3.04883,3.27344,3.30923,3.30923,0,0,0,2.30957-.88477.74116.74116,0,0,1,.48828-.18457.75827.75827,0,0,1,.502,1.333,4.72094,4.72094,0,0,1-3.35254,1.24121A4.64728,4.64728,0,0,1,54.88187,206.80282Z" fill="#f2edec"/>
          <path d="M66.4434,202.89608a.81155.81155,0,0,1,1.623,0v7.76074a.81155.81155,0,0,1-1.623,0Z" fill="#f2edec"/>
          <path d="M71.32621,210.33993l3.43164-7.65527a1.02922,1.02922,0,0,1,.97656-.65967h.0791a1.01262,1.01262,0,0,1,.96387.65967l3.43164,7.65527a.714.714,0,0,1,.0918.34375.76.76,0,0,1-.76562.77832.83592.83592,0,0,1-.791-.56738l-.75293-1.72949h-4.4873l-.7793,1.78223a.78024.78024,0,0,1-.752.51465.74368.74368,0,0,1-.752-.752A.82782.82782,0,0,1,71.32621,210.33993Zm6.04492-2.61328-1.623-3.73535-1.624,3.73535Z" fill="#f2edec"/>
          <path d="M83.375,202.89608a.812.812,0,0,1,1.624,0v7.022h4.18359a.739.739,0,1,1,0,1.478H84.1934a.806.806,0,0,1-.81836-.81836Z" fill="#f2edec"/>
          <path d="M98.14262,210.57772v-7.60254a.806.806,0,0,1,.81836-.81836H104.333a.73268.73268,0,0,1,.72656.72607.72372.72372,0,0,1-.72656.72559H99.76664v2.40234h3.97266a.73532.73532,0,0,1,.72559.73926.72119.72119,0,0,1-.72559.71289H99.76664v2.48145h4.63281a.73238.73238,0,0,1,.72559.72559.72393.72393,0,0,1-.72559.72607H98.961A.806.806,0,0,1,98.14262,210.57772Z" fill="#f2edec"/>
          <path d="M108.30473,202.97518a.806.806,0,0,1,.81836-.81836h2.627a4.60563,4.60563,0,0,1,4.91016,4.59326v.02637a4.62594,4.62594,0,0,1-4.91016,4.61963h-2.627a.806.806,0,0,1-.81836-.81836Zm3.44531,6.94287a3.011,3.011,0,0,0,3.207-3.11523v-.02637a3.03174,3.03174,0,0,0-3.207-3.1416h-1.82129v6.2832Z" fill="#f2edec"/>
          <path d="M120.03715,202.89608a.81155.81155,0,0,1,1.623,0v7.76074a.81155.81155,0,0,1-1.623,0Z" fill="#f2edec"/>
          <path d="M127.71781,203.66122h-2.24414a.7522.7522,0,0,1,0-1.50439h6.1377a.75231.75231,0,0,1,0,1.50439h-2.25684v6.99561a.81847.81847,0,0,1-1.63672,0Z" fill="#f2edec"/>
          <path d="M135.41215,202.89608a.81155.81155,0,0,1,1.623,0v7.76074a.81155.81155,0,0,1-1.623,0Z" fill="#f2edec"/>
          <path d="M140.41312,206.80282v-.02637a4.83154,4.83154,0,0,1,9.66211-.02637v.02637a4.83153,4.83153,0,0,1-9.66211.02637Zm7.959,0v-.02637a3.16518,3.16518,0,0,0-3.14062-3.28613,3.12154,3.12154,0,0,0-3.11523,3.25977v.02637a3.15453,3.15453,0,0,0,3.1416,3.27344A3.11058,3.11058,0,0,0,148.37211,206.80282Z" fill="#f2edec"/>
          <path d="M153.36039,202.92245a.81408.81408,0,0,1,.81836-.81836h.17188a1.02147,1.02147,0,0,1,.84473.4751l4.62012,5.97949V202.8829a.79837.79837,0,0,1,1.59668,0v7.76074a.78841.78841,0,0,1-.792.80518h-.06641a1.02153,1.02153,0,0,1-.84473-.48828l-4.751-6.15088V210.67a.79886.79886,0,0,1-1.59766,0Z" fill="#f2edec"/>
        </g>
        <g>
          <path d="M24.753,242.61923V238.0577a.48355.48355,0,0,1,.49121-.49072h3.22266a.43944.43944,0,0,1,.43555.43555.43437.43437,0,0,1-.43555.43555H25.7266v1.44141h2.38379a.44112.44112,0,0,1,.43555.44336.43276.43276,0,0,1-.43555.42773H25.7266v1.48877h2.78027a.43977.43977,0,0,1,.43555.43555.43437.43437,0,0,1-.43555.43555h-3.2627A.48366.48366,0,0,1,24.753,242.61923Z" fill="#f2edec"/>
          <path d="M30.708,242.49276a.46123.46123,0,0,1,.55469-.73682,2.40291,2.40291,0,0,0,1.55176.57031c.60156,0,.98242-.28516.98242-.69678v-.01611c0-.39551-.22266-.60937-1.252-.84717-1.17969-.28467-1.84473-.6333-1.84473-1.65479v-.01611a1.69579,1.69579,0,0,1,1.89258-1.60791,3.04947,3.04947,0,0,1,1.75781.51514.43818.43818,0,0,1,.21387.38818.45309.45309,0,0,1-.459.45117.468.468,0,0,1-.25391-.07129,2.303,2.303,0,0,0-1.27441-.41992c-.57031,0-.90332.293-.90332.65723v.01611c0,.42773.25391.61768,1.32227.87109,1.17285.28516,1.77441.70459,1.77441,1.62354v.01563c0,1.0376-.81543,1.65527-1.97949,1.65527A3.44834,3.44834,0,0,1,30.708,242.49276Z" fill="#f2edec"/>
          <path d="M36.48832,242.49276a.46123.46123,0,0,1,.55469-.73682,2.40291,2.40291,0,0,0,1.55176.57031c.60156,0,.98242-.28516.98242-.69678v-.01611c0-.39551-.22266-.60937-1.252-.84717-1.17969-.28467-1.84473-.6333-1.84473-1.65479v-.01611a1.69579,1.69579,0,0,1,1.89258-1.60791,3.04947,3.04947,0,0,1,1.75781.51514.43818.43818,0,0,1,.21387.38818.45309.45309,0,0,1-.459.45117.468.468,0,0,1-.25391-.07129,2.303,2.303,0,0,0-1.27441-.41992c-.57031,0-.90332.293-.90332.65723v.01611c0,.42773.25391.61768,1.32227.87109,1.17285.28516,1.77441.70459,1.77441,1.62354v.01563c0,1.0376-.81543,1.65527-1.97949,1.65527A3.44834,3.44834,0,0,1,36.48832,242.49276Z" fill="#f2edec"/>
          <path d="M42.49027,238.0577a.48355.48355,0,0,1,.49121-.49072h1.69434a1.8606,1.8606,0,0,1,2.10645,1.853v.01563c0,1.24365-.998,1.89307-2.21777,1.89307H43.46391v1.33838a.48683.48683,0,0,1-.97363,0Zm2.10645,2.3916c.73633,0,1.19531-.41162,1.19531-.98975v-.01611c0-.64893-.4668-.98926-1.19531-.98926H43.46391v1.99512Z" fill="#f2edec"/>
          <path d="M48.57133,238.0577a.48355.48355,0,0,1,.49121-.49072H51.042a2.23189,2.23189,0,0,1,1.59961.5542,1.6756,1.6756,0,0,1,.459,1.1958v.01611a1.64109,1.64109,0,0,1-1.25879,1.65527l1.06152,1.33789a.56668.56668,0,0,1,.1582.37207.45943.45943,0,0,1-.46777.45166.55534.55534,0,0,1-.47461-.25342l-1.34668-1.71875H49.545v1.48926a.48683.48683,0,0,1-.97363,0Zm2.39941,2.25732c.69727,0,1.14063-.36475,1.14063-.92676v-.01562c0-.59424-.42773-.91846-1.14844-.91846H49.545V240.315Z" fill="#f2edec"/>
          <path d="M55.08891,242.61923V238.0577a.48355.48355,0,0,1,.49121-.49072h3.22266a.43944.43944,0,0,1,.43555.43555.43437.43437,0,0,1-.43555.43555H56.06254v1.44141h2.38379a.44112.44112,0,0,1,.43555.44336.43276.43276,0,0,1-.43555.42773H56.06254v1.48877h2.78027a.43977.43977,0,0,1,.43555.43555.43437.43437,0,0,1-.43555.43555h-3.2627A.48366.48366,0,0,1,55.08891,242.61923Z" fill="#f2edec"/>
          <path d="M61.043,242.49276a.46123.46123,0,0,1,.55469-.73682,2.40291,2.40291,0,0,0,1.55176.57031c.60156,0,.98242-.28516.98242-.69678v-.01611c0-.39551-.22266-.60937-1.252-.84717-1.17969-.28467-1.84473-.6333-1.84473-1.65479v-.01611a1.69579,1.69579,0,0,1,1.89258-1.60791,3.04947,3.04947,0,0,1,1.75781.51514.43818.43818,0,0,1,.21387.38818.45309.45309,0,0,1-.459.45117.468.468,0,0,1-.25391-.07129,2.303,2.303,0,0,0-1.27441-.41992c-.57031,0-.90332.293-.90332.65723v.01611c0,.42773.25391.61768,1.32227.87109,1.17285.28516,1.77441.70459,1.77441,1.62354v.01563c0,1.0376-.81543,1.65527-1.97949,1.65527A3.44834,3.44834,0,0,1,61.043,242.49276Z" fill="#f2edec"/>
          <path d="M66.82328,242.49276a.46123.46123,0,0,1,.55469-.73682,2.40291,2.40291,0,0,0,1.55176.57031c.60156,0,.98242-.28516.98242-.69678v-.01611c0-.39551-.22266-.60937-1.252-.84717-1.17969-.28467-1.84473-.6333-1.84473-1.65479v-.01611a1.69579,1.69579,0,0,1,1.89258-1.60791,3.04947,3.04947,0,0,1,1.75781.51514.43818.43818,0,0,1,.21387.38818.45309.45309,0,0,1-.459.45117.468.468,0,0,1-.25391-.07129,2.303,2.303,0,0,0-1.27441-.41992c-.57031,0-.90332.293-.90332.65723v.01611c0,.42773.25391.61768,1.32227.87109,1.17285.28516,1.77441.70459,1.77441,1.62354v.01563c0,1.0376-.81543,1.65527-1.97949,1.65527A3.44834,3.44834,0,0,1,66.82328,242.49276Z" fill="#f2edec"/>
          <path d="M72.58012,240.35458V240.339a2.89921,2.89921,0,0,1,5.79785-.01611v.01611a2.89922,2.89922,0,0,1-5.79785.01563Zm4.77539,0V240.339a1.899,1.899,0,0,0-1.88477-1.97217,1.87242,1.87242,0,0,0-1.86816,1.95605v.01611a1.89221,1.89221,0,0,0,1.88477,1.96387A1.8658,1.8658,0,0,0,77.35551,240.35458Z" fill="#f2edec"/>
        </g>
        <line x1="23.50695" y1="224.94162" x2="178.01415" y2="224.94162" fill="none" stroke="#f2edec" stroke-linecap="round" stroke-linejoin="round" stroke-width="0.65987"/>
        <path d="M99.69469,55.89014h.30625a9.78858,9.78858,0,0,1,2.91271.4411l-.45882-.88316a9.90569,9.90569,0,0,1-.82452-2.16842l-.0609.11664A9.93828,9.93828,0,0,1,99.69469,55.89014Z" fill="none"/>
        <g>
          <path d="M104.02976,50.03854a2.99913,2.99913,0,0,0-4.03943,1.29113L92.65158,65.56411a2.99867,2.99867,0,1,0,5.33056,2.74829L105.32077,54.078A2.99865,2.99865,0,0,0,104.02976,50.03854Z" fill="#f2edec"/>
          <path d="M101.73409,78.06918H87.96576A2.99843,2.99843,0,0,0,85.31449,79.667L80.827,88.16081a2.99868,2.99868,0,1,0,5.30281,2.80151l3.64308-6.89594h11.96117a2.9986,2.9986,0,1,0,0-5.9972Z" fill="#f2edec"/>
          <path d="M124.17851,88.16412,112.88615,66.58189a2.9986,2.9986,0,1,0-5.31376,2.78038L118.86476,90.9445a2.9986,2.9986,0,1,0,5.31376-2.78038Z" fill="#f2edec"/>
        </g>
        <g>
          <path d="M65.2558,126.31552a5.43688,5.43688,0,0,0-1.31009-1.06392,6.228,6.228,0,0,0-1.65034-.66942l-2.71739-.69568a3.85313,3.85313,0,0,1-1.75866-.993,2.16459,2.16459,0,0,1-.67364-1.57782,2.22574,2.22574,0,0,1,.25461-1.03828,2.71123,2.71123,0,0,1,.721-.86448,3.70588,3.70588,0,0,1,1.0969-.595,4.18812,4.18812,0,0,1,1.385-.21975,7.11123,7.11123,0,0,1,2.1083.29759,7.00786,7.00786,0,0,1,1.75131.81837.79981.79981,0,0,0,.53594.16786.89786.89786,0,0,0,.89465-.89465.84048.84048,0,0,0-.12-.43873,1.06086,1.06086,0,0,0-.29962-.32275,9.67078,9.67078,0,0,0-2.24459-1.05063,8.59061,8.59061,0,0,0-2.626-.38809,5.852,5.852,0,0,0-2.06735.35792,5.52569,5.52569,0,0,0-1.65644.9631,4.498,4.498,0,0,0-1.11518,1.4309,3.97936,3.97936,0,0,0-.40762,1.77663,3.78077,3.78077,0,0,0,.28352,1.44059,4.463,4.463,0,0,0,.78883,1.2621,5.03093,5.03093,0,0,0,1.20083.988,5.55483,5.55483,0,0,0,1.5.61581l2.80179.6949a4.34772,4.34772,0,0,1,1.95528,1.13425,2.52446,2.52446,0,0,1,.76132,1.8068,2.56043,2.56043,0,0,1-.28727,1.19083,3.14944,3.14944,0,0,1-.80946.9853,3.95836,3.95836,0,0,1-1.21474.66989,4.60035,4.60035,0,0,1-1.51577.24164,7.09145,7.09145,0,0,1-2.4384-.39324,7.54153,7.54153,0,0,1-1.98013-1.0822.92339.92339,0,0,0-.5211-.15661.86457.86457,0,0,0-.6316.26289l-.00016.00016a.86457.86457,0,0,0-.26289.6316.81652.81652,0,0,0,.367.73335,9.57675,9.57675,0,0,0,2.477,1.32712,8.802,8.802,0,0,0,2.99028.4878,6.25523,6.25523,0,0,0,2.19754-.37965,5.66937,5.66937,0,0,0,1.778-1.05173A4.92317,4.92317,0,0,0,65.987,131.164a4.36152,4.36152,0,0,0,.42872-1.90589,4.158,4.158,0,0,0-.30541-1.58189A4.74883,4.74883,0,0,0,65.2558,126.31552Z" fill="#f2edec"/>
          <path d="M80.66141,126.31552a5.43907,5.43907,0,0,0-1.30993-1.06392,6.229,6.229,0,0,0-1.6505-.66942l-2.71739-.69568a3.85178,3.85178,0,0,1-1.7585-.993,2.16434,2.16434,0,0,1-.67364-1.57782,2.22729,2.22729,0,0,1,.25461-1.03844,2.70832,2.70832,0,0,1,.721-.86432,3.707,3.707,0,0,1,1.09674-.595,4.18906,4.18906,0,0,1,1.38511-.21975,7.11717,7.11717,0,0,1,2.1083.29743,7.01372,7.01372,0,0,1,1.75131.81853.79981.79981,0,0,0,.53594.16786.89786.89786,0,0,0,.89465-.89465.84194.84194,0,0,0-.12-.43873,1.0664,1.0664,0,0,0-.29962-.32275,9.6749,9.6749,0,0,0-2.24474-1.05063,8.59031,8.59031,0,0,0-2.6258-.38809,5.85137,5.85137,0,0,0-2.06735.35792,5.52569,5.52569,0,0,0-1.65644.9631,4.498,4.498,0,0,0-1.11518,1.4309,3.97887,3.97887,0,0,0-.40762,1.77663,3.78077,3.78077,0,0,0,.28352,1.44059,4.47034,4.47034,0,0,0,.78868,1.2621,5.03176,5.03176,0,0,0,1.201.988,5.55071,5.55071,0,0,0,1.5.61581l2.80179.6949a4.34772,4.34772,0,0,1,1.95528,1.13425,2.5242,2.5242,0,0,1,.76132,1.8068,2.56187,2.56187,0,0,1-.28727,1.19083,3.15159,3.15159,0,0,1-.80946.9853,3.95919,3.95919,0,0,1-1.2149.66989,4.599,4.599,0,0,1-1.51577.24164,7.09054,7.09054,0,0,1-2.43824-.39324,7.54245,7.54245,0,0,1-1.98029-1.0822.923.923,0,0,0-.5211-.15661.86447.86447,0,0,0-.63144.26289l-.00016.00016a.8641.8641,0,0,0-.263.6316.81652.81652,0,0,0,.367.73335,9.5777,9.5777,0,0,0,2.47716,1.32712,8.8011,8.8011,0,0,0,2.99013.4878A6.2546,6.2546,0,0,0,78.424,133.777a5.67014,5.67014,0,0,0,1.7782-1.05173,4.92094,4.92094,0,0,0,1.19036-1.56126,4.36053,4.36053,0,0,0,.42872-1.90589,4.15727,4.15727,0,0,0-.30525-1.58189A4.75021,4.75021,0,0,0,80.66141,126.31552Z" fill="#f2edec"/>
          <path d="M98.45963,117.15712H88.05819a.89759.89759,0,0,0-.89449.89449v4.43916a.89786.89786,0,0,0,.89449.89465.901.901,0,0,0,.63988-.26039.84805.84805,0,0,0,.27665-.63425v-3.54451h9.48491a.89457.89457,0,0,0,0-1.78914Z" fill="#f2edec"/>
          <path d="M98.45963,131.97584H88.97472v-5.58748h7.98352a.89813.89813,0,0,0,.89465-.89465.90194.90194,0,0,0-.26039-.63988.84839.84839,0,0,0-.63425-.27649h-8.9a.84839.84839,0,0,0-.63425.27649.90152.90152,0,0,0-.26024.63988v7.3985a.89759.89759,0,0,0,.89449.89449H98.45963a.89322.89322,0,0,0,.63175-1.52609A.95637.95637,0,0,0,98.45963,131.97584Z" fill="#f2edec"/>
          <path d="M119.69217,117.2459l-6.7669,6.76705-6.78847-6.76721a.89465.89465,0,0,0-1.52624.63191v15.18867a.86507.86507,0,0,0,.26289.6316.9063.9063,0,0,0,1.27148.00266.84805.84805,0,0,0,.27665-.63425v-13.0288l5.87209,5.91367a.89016.89016,0,0,0,1.26382-.00031l5.87178-5.91336v13.0288a.89759.89759,0,0,0,.89465.89449.90231.90231,0,0,0,.63988-.26024.8479.8479,0,0,0,.27649-.63425V117.87765a.84782.84782,0,0,0-.27665-.63441A.90659.90659,0,0,0,119.69217,117.2459Z" fill="#f2edec"/>
          <path d="M138.20622,125.60187a4.78836,4.78836,0,0,0-3.39525-1.39449h-4.0692a.84765.84765,0,0,0-.63425.27649.90207.90207,0,0,0-.26039.63988.89813.89813,0,0,0,.89465.89465h4.0692a2.83526,2.83526,0,0,1,1.156.2371,3.0613,3.0613,0,0,1,1.58564,1.58548,2.84071,2.84071,0,0,1,.2371,1.15613,2.91641,2.91641,0,0,1-.23742,1.16785,3.06788,3.06788,0,0,1-.64207.9531,2.93329,2.93329,0,0,1-2.09923.85776H128.8512V118.94626H134.441a2.504,2.504,0,0,1,1.00452.20475,2.68858,2.68858,0,0,1,.83353.566,2.65592,2.65592,0,0,1,.56548.84338,2.57949,2.57949,0,0,1,.20522,1.0164,2.83781,2.83781,0,0,1-.272,1.2049q-.04056.102-.08143.18381l-.00016.00016a.58519.58519,0,0,0-.05986.26508.884.884,0,0,0,.24929.62878.82894.82894,0,0,0,.62347.26571.78894.78894,0,0,0,.445-.13473,1.07873,1.07873,0,0,0,.317-.329,3.84686,3.84686,0,0,0,.58971-2.0847,4.30875,4.30875,0,0,0-.35-1.7149,4.41074,4.41074,0,0,0-2.35478-2.35478,4.309,4.309,0,0,0-1.71505-.34995h-6.50635a.89759.89759,0,0,0-.89465.89449v14.8406a.89786.89786,0,0,0,.89465.89449H134.811a4.80014,4.80014,0,0,0,3.39525-8.18483Z" fill="#f2edec"/>
          <path d="M155.04618,131.99756h-8.72343V117.87765a.848.848,0,0,0-.27649-.63441.90688.90688,0,0,0-1.27148.0025v.00016a.86517.86517,0,0,0-.26289.63175v15.01456a.89759.89759,0,0,0,.89449.89449h9.6398a.89457.89457,0,0,0,0-1.78914Z" fill="#f2edec"/>
          <path d="M168.69954,117.48191a.93511.93511,0,0,0-.312-.35229.832.832,0,0,0-.47921-.14645.85617.85617,0,0,0-.73538.36949l-5.71345,8.03916a.82235.82235,0,0,0-.19053.55892v7.1156a.89465.89465,0,0,0,1.78929,0v-6.84848l5.5831-7.81206a.77435.77435,0,0,0,.16161-.47374A.99824.99824,0,0,0,168.69954,117.48191Z" fill="#f2edec"/>
          <path d="M161.24525,123.05391l-4.06655-5.71924a.79158.79158,0,0,0-.60237-.36167,1.01056,1.01056,0,0,0-.68364.17005.87928.87928,0,0,0-.355.57689.83428.83428,0,0,0,.14583.66083l4.06655,5.71908a.81765.81765,0,0,0,.58565.372.9902.9902,0,0,0,.14145.01032.95237.95237,0,0,0,.53719-.1688.9279.9279,0,0,0,.36511-.58346A.82244.82244,0,0,0,161.24525,123.05391Z" fill="#f2edec"/>
          <path d="M45.1211,117.74761c-.00578-.01235-.01438-.02243-.02063-.03439a.872.872,0,0,0-.0472-.07862c-.01532-.02282-.03095-.0447-.04814-.06564-.018-.022-.0372-.04251-.05736-.06268-.02063-.02063-.04158-.04025-.06393-.05853-.02047-.0168-.04189-.0322-.06424-.04728a.88851.88851,0,0,0-.08018-.04814c-.01172-.00617-.02157-.01446-.0336-.02016s-.02454-.00789-.03657-.013a.86051.86051,0,0,0-.08643-.03063c-.02657-.008-.05283-.015-.07956-.02032a.83489.83489,0,0,0-.08284-.01164c-.02845-.00281-.05674-.00492-.085-.00492-.02735,0-.05439.002-.08174.00469-.02907.00281-.05767.00641-.08612.012-.02579.00516-.05111.012-.07674.01954a.86151.86151,0,0,0-.08909.03157c-.01172.00485-.02391.007-.03548.0125-.01172.00547-.02126.0136-.03267.01954a.88732.88732,0,0,0-.08174.04908c-.022.01485-.04314.03-.06346.04658a.844.844,0,0,0-.06424.05877.82872.82872,0,0,0-.0572.06252c-.01719.02094-.033.0429-.04845.06572a.88016.88016,0,0,0-.047.07854c-.00641.012-.01485.022-.02079.03439l-3.97933,8.44256a.86795.86795,0,1,0,1.57016.74022l3.19378-6.77565,6.46915,13.7462a.86789.86789,0,0,0,1.57048-.73929Z" fill="#f2edec"/>
          <path d="M46.574,128.193H39.23931a.86669.86669,0,0,0-.8451.4939L36.28,133.17229a.86795.86795,0,1,0,1.57016.74022l1.87776-3.98371H46.574a.86792.86792,0,0,0,0-1.73584Z" fill="#f2edec"/>
        </g>
        <g>
          <path d="M154.61039,242.16806l1.70313-1.44922c.75977-.6416,1.03711-.998,1.03711-1.49707a.83092.83092,0,0,0-.89453-.86279,1.35364,1.35364,0,0,0-1.09277.61768.44891.44891,0,0,1-.78418-.293.48546.48546,0,0,1,.11035-.30078,2.1468,2.1468,0,0,1,1.83789-.89551,1.66,1.66,0,0,1,1.8291,1.65527v.01611c0,.87109-.459,1.34619-1.44141,2.146l-1.14062.9502h2.249a.42773.42773,0,1,1,0,.85547h-3.14355a.46781.46781,0,0,1-.52246-.459A.6055.6055,0,0,1,154.61039,242.16806Z" fill="#f2edec"/>
          <path d="M160.32719,242.6036a.48146.48146,0,0,1-.19824-.37988.47358.47358,0,0,1,.46777-.46777.42875.42875,0,0,1,.28516.09521,1.85707,1.85707,0,0,0,1.20313.46729.97044.97044,0,0,0,1.07715-.958v-.01611c0-.56982-.47461-.91846-1.14844-.91846a3.77877,3.77877,0,0,0-.9502.18994.76084.76084,0,0,1-.459-.18994.46263.46263,0,0,1-.19043-.42773l.11914-1.99561a.44593.44593,0,0,1,.44336-.43555h2.51074a.43944.43944,0,0,1,.43555.43555.43234.43234,0,0,1-.43555.42725h-2.083l-.08691,1.29883a2.3607,2.3607,0,0,1,.87891-.1582,1.71261,1.71261,0,0,1,1.93262,1.74219v.01611a1.86385,1.86385,0,0,1-2.02734,1.87646A2.80755,2.80755,0,0,1,160.32719,242.6036Z" fill="#f2edec"/>
          <path d="M165.83891,240.35458V240.339a2.45,2.45,0,1,1,4.83105-.01611v.01611a2.59516,2.59516,0,0,1-2.42383,2.86621A2.56915,2.56915,0,0,1,165.83891,240.35458Zm3.8252,0V240.339c0-1.09326-.5625-1.98828-1.418-1.98828-.85449,0-1.40137.87109-1.40137,1.97217v.01611c0,1.09277.55469,1.9873,1.418,1.9873S169.6641,241.43954,169.6641,240.35458Z" fill="#f2edec"/>
          <path d="M172.7598,244.02108a.39118.39118,0,0,1-.26953-.38037.40368.40368,0,0,1,.4043-.39551.3747.3747,0,0,1,.17383.03955,2.5609,2.5609,0,0,0,1.2832.33252,1.16889,1.16889,0,0,0,1.32227-1.2832v-.32422a1.75226,1.75226,0,0,1-1.47266.76807,1.87961,1.87961,0,0,1-1.90137-1.95605v-.01611a1.88586,1.88586,0,0,1,1.90137-1.96387,1.80532,1.80532,0,0,1,1.46484.71289v-.19824a.479.479,0,1,1,.958.00781V242.255a2.139,2.139,0,0,1-.53027,1.57617,2.35737,2.35737,0,0,1-1.71875.5625A3.6104,3.6104,0,0,1,172.7598,244.02108Zm2.92188-3.20752v-.01562a1.16837,1.16837,0,0,0-1.22754-1.14844,1.12954,1.12954,0,0,0-1.1875,1.14844v.01563a1.13826,1.13826,0,0,0,1.1875,1.14844A1.16776,1.16776,0,0,0,175.68168,240.81356Z" fill="#f2edec"/>
        </g>
      </g>
    </g>
  </g>
</svg>
