<svg xmlns="http://www.w3.org/2000/svg" width="221.10229" height="291.96924" viewBox="0 0 221.10229 291.96924">
  <title>label-yirgacheffe_1</title>
  <g id="Layer_2" data-name="Layer 2">
    <g id="Layer_1-2" data-name="Layer 1">
      <g>
        <path d="M0,0V188.9375A4.76122,4.76122,0,0,1,4.74561,193.782H216.35669a4.76107,4.76107,0,0,1,4.74561-4.84448V0Z" fill="#3d44ac"/>
        <path d="M0,198.52759v87.76563a5.676,5.676,0,0,0,5.676,5.676H215.42615a5.67607,5.67607,0,0,0,5.67615-5.676V198.52759a4.7457,4.7457,0,0,1-4.74561-4.74561H4.74561A4.7457,4.7457,0,0,1,0,198.52759Z" fill="#ffcf2b"/>
        <path d="M107.5624,59.54495h.32628a10.42853,10.42853,0,0,1,3.10314.46993l-.48881-.9409a10.55331,10.55331,0,0,1-.87842-2.31019l-.06488.12426A10.588,10.588,0,0,1,107.5624,59.54495Z" fill="none"/>
        <g>
          <path d="M31.26323,227.53056l-3.25439-4.46973a1.02817,1.02817,0,0,1-.189-.58057.80752.80752,0,0,1,.83691-.79687.95671.95671,0,0,1,.81055.49951l2.6333,3.79443,2.67383-3.80762a.95259.95259,0,0,1,.79639-.5.78794.78794,0,0,1,.81055.81055,1.00625,1.00625,0,0,1-.22949.59375l-3.22754,4.416v2.95752a.83059.83059,0,0,1-1.66113,0Z" fill="#fff"/>
          <path d="M39.4434,222.50713a.83059.83059,0,0,1,1.66113,0v7.94043a.83059.83059,0,0,1-1.66113,0Z" fill="#fff"/>
          <path d="M44.97807,222.58818a.82472.82472,0,0,1,.8374-.8374h3.376a3.809,3.809,0,0,1,2.728.94531,2.85785,2.85785,0,0,1,.7832,2.03906v.02734a2.79763,2.79763,0,0,1-2.14746,2.82227l1.80957,2.28223a.96165.96165,0,0,1,.27.63477.78315.78315,0,0,1-.79639.76953.94987.94987,0,0,1-.81055-.43213L48.73246,227.909H46.6392v2.53857a.83059.83059,0,0,1-1.66113,0Zm4.0918,3.84863c1.18848,0,1.94482-.62158,1.94482-1.58008v-.02686c0-1.0127-.72949-1.56641-1.9585-1.56641h-2.417v3.17334Z" fill="#fff"/>
          <path d="M55.67,226.5042v-.02686a4.81582,4.81582,0,0,1,4.875-4.88867,5.12967,5.12967,0,0,1,3.22754.959.84178.84178,0,0,1,.3374.6748.82709.82709,0,0,1-.82373.82422.87337.87337,0,0,1-.51318-.18945,3.59323,3.59323,0,0,0-2.29541-.74219,3.19681,3.19681,0,0,0-3.06543,3.335v.02734a3.15709,3.15709,0,0,0,3.21387,3.376,3.86026,3.86026,0,0,0,2.28223-.71582v-1.769H61.04448a.72622.72622,0,0,1-.74268-.71533.73776.73776,0,0,1,.74268-.72949h2.6333a.82431.82431,0,0,1,.8374.83691v2.52539a1.14832,1.14832,0,0,1-.58057,1.05371,6.02264,6.02264,0,0,1-3.36279,1.02637A4.69055,4.69055,0,0,1,55.67,226.5042Z" fill="#fff"/>
          <path d="M67.48246,230.12334l3.51123-7.83252a1.05308,1.05308,0,0,1,.999-.6748h.08105a1.03584,1.03584,0,0,1,.98584.6748l3.51123,7.83252a.72453.72453,0,0,1,.09424.35107.77858.77858,0,0,1-.7832.79688.85521.85521,0,0,1-.81006-.58105l-.77-1.76855H69.71049l-.79639,1.82275a.79983.79983,0,0,1-.77.52686.76089.76089,0,0,1-.76953-.76953A.85217.85217,0,0,1,67.48246,230.12334Zm6.18506-2.67383-1.66113-3.82178-1.66113,3.82178Z" fill="#fff"/>
          <path d="M78.98442,226.5042v-.02686a4.78359,4.78359,0,0,1,4.875-4.88867,4.95591,4.95591,0,0,1,3.24072,1.06689.82986.82986,0,0,1,.32422.66162.83051.83051,0,0,1-1.32324.64844,3.42812,3.42812,0,0,0-2.25537-.85059,3.18114,3.18114,0,0,0-3.11914,3.335v.02734a3.18463,3.18463,0,0,0,3.11914,3.34863,3.38719,3.38719,0,0,0,2.36328-.9043.75377.75377,0,0,1,.49951-.18945.79013.79013,0,0,1,.7832.77.79917.79917,0,0,1-.27.59424A4.829,4.829,0,0,1,83.792,231.366,4.75455,4.75455,0,0,1,78.98442,226.5042Z" fill="#fff"/>
          <path d="M90.71586,222.50713a.83059.83059,0,0,1,1.66113,0v3.17334h4.51025v-3.17334a.83059.83059,0,0,1,1.66113,0v7.94043a.83059.83059,0,0,1-1.66113,0V227.22H92.377v3.22754a.83059.83059,0,0,1-1.66113,0Z" fill="#fff"/>
          <path d="M102.32573,230.3665v-7.77832a.82472.82472,0,0,1,.8374-.8374h5.49609a.74936.74936,0,0,1,.74268.74268.74049.74049,0,0,1-.74268.74268h-4.67236v2.458h4.06494a.75219.75219,0,0,1,.74268.75586.73807.73807,0,0,1-.74268.72949h-4.06494v2.53906h4.73975a.74861.74861,0,0,1,.74268.74219.7406.7406,0,0,1-.74268.74316h-5.56348A.82472.82472,0,0,1,102.32573,230.3665Z" fill="#fff"/>
          <path d="M112.72075,222.58818a.82472.82472,0,0,1,.8374-.8374h5.50977a.75635.75635,0,0,1,0,1.5127h-4.686v2.5791H118.46a.75635.75635,0,1,1,0,1.5127h-4.07812v3.09229a.83059.83059,0,0,1-1.66113,0Z" fill="#fff"/>
          <path d="M122.9268,222.58818a.82461.82461,0,0,1,.83691-.8374h5.50977a.75635.75635,0,0,1,0,1.5127h-4.68555v2.5791h4.07813a.75635.75635,0,0,1,0,1.5127h-4.07813v3.09229a.83059.83059,0,0,1-1.66113,0Z" fill="#fff"/>
          <path d="M133.13237,230.3665v-7.77832a.82472.82472,0,0,1,.8374-.8374h5.49609a.74936.74936,0,0,1,.74268.74268.74049.74049,0,0,1-.74268.74268H134.7935v2.458h4.06494a.75219.75219,0,0,1,.74268.75586.73807.73807,0,0,1-.74268.72949H134.7935v2.53906h4.73975a.74861.74861,0,0,1,.74268.74219.7406.7406,0,0,1-.74268.74316h-5.56348A.82472.82472,0,0,1,133.13237,230.3665Z" fill="#fff"/>
        </g>
        <g>
          <path d="M28.44438,264.46464v-4.89551a.51889.51889,0,0,1,.52686-.52686h3.45947a.47143.47143,0,0,1,.46729.46729.46616.46616,0,0,1-.46729.46777H29.48979v1.54688h2.55859a.47322.47322,0,0,1,.46729.47559.46433.46433,0,0,1-.46729.459H29.48979v1.59814h2.9834a.47143.47143,0,0,1,.46729.46729.46616.46616,0,0,1-.46729.46777h-3.502A.519.519,0,0,1,28.44438,264.46464Z" fill="#fff"/>
          <path d="M34.70024,264.54131a.39445.39445,0,0,1-.19531-.35693.412.412,0,0,1,.4165-.4165.44794.44794,0,0,1,.22119.05957,2.37012,2.37012,0,0,0,1.2915.43311c.44189,0,.69727-.18652.69727-.48437v-.0166c0-.34863-.47607-.46777-1.00293-.62891-.66309-.1875-1.40234-.459-1.40234-1.31738v-.01709a1.43132,1.43132,0,0,1,1.59766-1.36865,3.086,3.086,0,0,1,1.41113.36572.43677.43677,0,0,1,.24609.39111.41349.41349,0,0,1-.4248.416.402.402,0,0,1-.2041-.05078,2.44482,2.44482,0,0,0-1.05371-.30566c-.39941,0-.62891.18652-.62891.44141v.01758c0,.33105.48438.4668,1.01123.63721.6543.20361,1.394.50146,1.394,1.30908v.0166c0,.94336-.731,1.41113-1.666,1.41113A3.06861,3.06861,0,0,1,34.70024,264.54131Z" fill="#fff"/>
          <path d="M39.979,260.97148a.50781.50781,0,0,1,.50977-.51855.51517.51517,0,0,1,.51855.51855v.28076a1.79657,1.79657,0,0,1,1.52979-.84131,2.14663,2.14663,0,0,1,2.082,2.32861v.01709a2.1465,2.1465,0,0,1-2.082,2.32861,1.83259,1.83259,0,0,1-1.52979-.79053v1.58936a.51417.51417,0,0,1-1.02832,0Zm3.59473,1.78516v-.01709a1.32913,1.32913,0,0,0-1.2832-1.43652,1.3531,1.3531,0,0,0-1.30859,1.43652v.01709a1.3531,1.3531,0,0,0,1.30859,1.43652A1.31417,1.31417,0,0,0,43.57377,262.75664Z" fill="#fff"/>
          <path d="M46.53227,260.97148a.50811.50811,0,0,1,.50977-.51855.51517.51517,0,0,1,.51855.51855v.459a1.42784,1.42784,0,0,1,1.13037-.98584.47748.47748,0,0,1,.51025.51025.48283.48283,0,0,1-.4082.49268c-.731.12744-1.23242.68848-1.23242,1.751v1.32568a.51332.51332,0,0,1-.51855.50977.5058.5058,0,0,1-.50977-.50977Z" fill="#fff"/>
          <path d="M52.79643,265.09355a2.239,2.239,0,0,1-2.30322-2.32861v-.01709a2.2272,2.2272,0,0,1,2.19287-2.33691,2.12275,2.12275,0,0,1,2.1333,2.20947.48039.48039,0,0,1-.48437.49268H51.52153a1.25313,1.25313,0,0,0,1.292,1.13916,1.61155,1.61155,0,0,0,1.0625-.39111.38293.38293,0,0,1,.26367-.09326.4044.4044,0,0,1,.40771.4165.44962.44962,0,0,1-.13574.31445A2.3059,2.3059,0,0,1,52.79643,265.09355Zm1.02-2.66016a1.16464,1.16464,0,0,0-1.13867-1.18115,1.21469,1.21469,0,0,0-1.16455,1.18115Z" fill="#fff"/>
          <path d="M56.55375,264.54131a.39445.39445,0,0,1-.19531-.35693.41165.41165,0,0,1,.4165-.4165.446.446,0,0,1,.2207.05957,2.3716,2.3716,0,0,0,1.292.43311c.44189,0,.69678-.18652.69678-.48437v-.0166c0-.34863-.47607-.46777-1.00293-.62891-.6626-.1875-1.40234-.459-1.40234-1.31738v-.01709a1.43176,1.43176,0,0,1,1.59814-1.36865,3.08566,3.08566,0,0,1,1.41064.36572.43635.43635,0,0,1,.24658.39111.4136.4136,0,0,1-.42529.416.4002.4002,0,0,1-.20361-.05078,2.44857,2.44857,0,0,0-1.0542-.30566c-.39941,0-.62891.18652-.62891.44141v.01758c0,.33105.48438.4668,1.01172.63721.6543.20361,1.39355.50146,1.39355,1.30908v.0166c0,.94336-.731,1.41113-1.66553,1.41113A3.06744,3.06744,0,0,1,56.55375,264.54131Z" fill="#fff"/>
          <path d="M61.57719,264.54131a.39445.39445,0,0,1-.19531-.35693.41165.41165,0,0,1,.4165-.4165.446.446,0,0,1,.2207.05957,2.3716,2.3716,0,0,0,1.292.43311c.44189,0,.69678-.18652.69678-.48437v-.0166c0-.34863-.47607-.46777-1.00293-.62891-.6626-.1875-1.40234-.459-1.40234-1.31738v-.01709a1.43176,1.43176,0,0,1,1.59814-1.36865,3.08566,3.08566,0,0,1,1.41064.36572.43635.43635,0,0,1,.24658.39111.4136.4136,0,0,1-.42529.416.4002.4002,0,0,1-.20361-.05078,2.44857,2.44857,0,0,0-1.0542-.30566c-.39941,0-.62891.18652-.62891.44141v.01758c0,.33105.48438.4668,1.01172.63721.6543.20361,1.39355.50146,1.39355,1.30908v.0166c0,.94336-.731,1.41113-1.66553,1.41113A3.06744,3.06744,0,0,1,61.57719,264.54131Z" fill="#fff"/>
          <path d="M66.60942,262.77324v-.0166a2.39325,2.39325,0,0,1,4.78516-.01709v.01709a2.34636,2.34636,0,0,1-2.40527,2.33691A2.32053,2.32053,0,0,1,66.60942,262.77324Zm3.75635,0v-.0166a1.38723,1.38723,0,0,0-1.37646-1.44531,1.34728,1.34728,0,0,0-1.35156,1.42822v.01709a1.38332,1.38332,0,0,0,1.36816,1.43652A1.34672,1.34672,0,0,0,70.36577,262.77324Z" fill="#fff"/>
          <path d="M72.69536,265.52714l3.47607-7.12207a.40473.40473,0,0,1,.77344.15283.65517.65517,0,0,1-.04248.20361l-3.48486,7.12256a.38684.38684,0,0,1-.36523.23779.40467.40467,0,0,1-.4082-.39062A.4739.4739,0,0,1,72.69536,265.52714Z" fill="#fff"/>
          <path d="M78.68754,259.56914a.51889.51889,0,0,1,.52686-.52686h3.46777a.47583.47583,0,1,1,0,.95166H79.733v1.62354h2.56689a.47583.47583,0,1,1,0,.95166H79.733v1.94678a.52273.52273,0,0,1-1.04541,0Z" fill="#fff"/>
          <path d="M84.97758,259.29765a.59353.59353,0,0,1,1.17285,0v.05078a.59219.59219,0,0,1-1.17285,0Zm.07617,1.67383a.50822.50822,0,0,1,.51025-.51855.51517.51517,0,0,1,.51855.51855v3.55273a.51443.51443,0,0,1-1.02881,0Z" fill="#fff"/>
          <path d="M88.335,259.25468a.5061.5061,0,0,1,.50977-.50977.51332.51332,0,0,1,.51855.50977v5.26953a.51418.51418,0,0,1-1.02832,0Z" fill="#fff"/>
          <path d="M91.76909,263.75078V261.388h-.16992a.44189.44189,0,0,1,0-.88379h.16992v-.76514a.51418.51418,0,0,1,1.02832,0v.76514H93.605a.442.442,0,1,1,0,.88379h-.80762v2.20166a.48938.48938,0,0,0,.55225.56055,2.454,2.454,0,0,0,.25537-.02539.43352.43352,0,0,1,.43311.4248.44192.44192,0,0,1-.272.39941,2.03857,2.03857,0,0,1-.70508.11914A1.15,1.15,0,0,1,91.76909,263.75078Z" fill="#fff"/>
          <path d="M97.82914,265.09355a2.239,2.239,0,0,1-2.30322-2.32861v-.01709a2.2269,2.2269,0,0,1,2.19287-2.33691,2.12275,2.12275,0,0,1,2.1333,2.20947.48078.48078,0,0,1-.48486.49268h-2.813a1.2525,1.2525,0,0,0,1.292,1.13916,1.61251,1.61251,0,0,0,1.0625-.39111.38078.38078,0,0,1,.26318-.09326.4048.4048,0,0,1,.4082.4165.448.448,0,0,1-.13623.31445A2.30465,2.30465,0,0,1,97.82914,265.09355Zm1.02-2.66016A1.165,1.165,0,0,0,97.71,261.25224a1.21394,1.21394,0,0,0-1.16406,1.18115Z" fill="#fff"/>
          <path d="M101.75639,260.97148a.50781.50781,0,0,1,.50977-.51855.51517.51517,0,0,1,.51855.51855v.459a1.42654,1.42654,0,0,1,1.13037-.98584.47734.47734,0,0,1,.50977.51025.48243.48243,0,0,1-.40771.49268c-.731.12744-1.23242.68848-1.23242,1.751v1.32568a.51332.51332,0,0,1-.51855.50977.5058.5058,0,0,1-.50977-.50977Z" fill="#fff"/>
        </g>
        <path d="M192.55131,246.01006h-164a.375.375,0,0,1,0-.75h164a.375.375,0,1,1,0,.75Z" fill="#fff"/>
        <g>
          <g>
            <path d="M102.69184,92.50775a3.28095,3.28095,0,0,1-2.91234-4.78328l8.02666-15.56858a3.27974,3.27974,0,0,1,5.83026,3.00582l-8.02666,15.56858A3.27979,3.27979,0,0,1,102.69184,92.50775Z" fill="#f4f4f4"/>
            <path d="M89.74378,117.25172a3.28073,3.28073,0,0,1-2.897-4.8123l4.90786-9.29a3.27939,3.27939,0,0,1,2.8998-1.74769h15.05885a3.27967,3.27967,0,0,1,0,6.55934H96.631l-3.98466,7.54227A3.27933,3.27933,0,0,1,89.74378,117.25172Z" fill="#f4f4f4"/>
            <path d="M131.35836,117.24375a3.27921,3.27921,0,0,1-2.90876-1.75989L116.09882,91.87871a3.27972,3.27972,0,0,1,5.81194-3.041L134.26154,112.443a3.28081,3.28081,0,0,1-2.90319,4.80075Z" fill="#f4f4f4"/>
          </g>
          <g>
            <path d="M76.78034,144.357a4.928,4.928,0,0,0-1.18791-.96469,5.64813,5.64813,0,0,0-1.4964-.607l-2.464-.63081a3.49369,3.49369,0,0,1-1.59466-.90034,1.96283,1.96283,0,0,1-.61079-1.43069,2.01864,2.01864,0,0,1,.23085-.94144,2.45908,2.45908,0,0,1,.65377-.78384,3.359,3.359,0,0,1,.99462-.53952,3.79645,3.79645,0,0,1,1.25577-.19928,6.448,6.448,0,0,1,1.91165.26981,6.35528,6.35528,0,0,1,1.588.74207.72511.72511,0,0,0,.486.15223.81413.81413,0,0,0,.81119-.81124.76239.76239,0,0,0-.10883-.39781.96229.96229,0,0,0-.27168-.29263,8.76828,8.76828,0,0,0-2.03526-.95267,7.78949,7.78949,0,0,0-2.38106-.35188,5.30613,5.30613,0,0,0-1.87452.32452,5.01006,5.01006,0,0,0-1.502.8733A4.07745,4.07745,0,0,0,68.174,138.2125a3.60785,3.60785,0,0,0-.36966,1.61093,3.42741,3.42741,0,0,0,.25713,1.30624,4.04641,4.04641,0,0,0,.71523,1.14442,4.5614,4.5614,0,0,0,1.08886.8958,5.03588,5.03588,0,0,0,1.36007.55841l2.5405.63006a3.94274,3.94274,0,0,1,1.77294,1.02848,2.289,2.289,0,0,1,.69035,1.63829,2.32162,2.32162,0,0,1-.2605,1.07978,2.85552,2.85552,0,0,1-.734.89341,3.58912,3.58912,0,0,1-1.10144.60743,4.1714,4.1714,0,0,1-1.37442.21906,6.42957,6.42957,0,0,1-2.211-.35656,6.83813,6.83813,0,0,1-1.79548-.98124.83731.83731,0,0,0-.4725-.142.784.784,0,0,0-.57268.23838l-.00014.00014a.78394.78394,0,0,0-.23838.57272.74033.74033,0,0,0,.33276.665,8.68326,8.68326,0,0,0,2.246,1.20335,7.98081,7.98081,0,0,0,2.71139.44233,5.6718,5.6718,0,0,0,1.99261-.34426,5.14039,5.14039,0,0,0,1.61219-.95365,4.46289,4.46289,0,0,0,1.0795-1.41567,3.9546,3.9546,0,0,0,.38874-1.72813,3.77036,3.77036,0,0,0-.27691-1.43433A4.3058,4.3058,0,0,0,76.78034,144.357Z" fill="#f4f4f4"/>
            <path d="M90.74921,144.357a4.93081,4.93081,0,0,0-1.18777-.96469,5.64907,5.64907,0,0,0-1.49654-.607l-2.464-.63081a3.49248,3.49248,0,0,1-1.59452-.90034,1.9626,1.9626,0,0,1-.61079-1.43069,2.01947,2.01947,0,0,1,.23085-.94158,2.45586,2.45586,0,0,1,.65377-.7837,3.36025,3.36025,0,0,1,.99443-.53952,3.79778,3.79778,0,0,1,1.256-.19928,6.452,6.452,0,0,1,1.91165.26971,6.35956,6.35956,0,0,1,1.588.74216.72511.72511,0,0,0,.486.15223.81413.81413,0,0,0,.81119-.81124.7637.7637,0,0,0-.10883-.39781.96684.96684,0,0,0-.27172-.29263,8.77075,8.77075,0,0,0-2.03535-.95267,7.78923,7.78923,0,0,0-2.38092-.35188,5.30583,5.30583,0,0,0-1.87456.32452,5.01038,5.01038,0,0,0-1.502.8733,4.07826,4.07826,0,0,0-1.01118,1.29744,3.60815,3.60815,0,0,0-.36961,1.61093,3.42825,3.42825,0,0,0,.25708,1.30624,4.05423,4.05423,0,0,0,.71513,1.14442,4.56215,4.56215,0,0,0,1.089.8958,5.03218,5.03218,0,0,0,1.36007.55841l2.5405.63006a3.94274,3.94274,0,0,1,1.77294,1.02848,2.28884,2.28884,0,0,1,.6903,1.63829,2.32288,2.32288,0,0,1-.26045,1.07978,2.85745,2.85745,0,0,1-.734.89341,3.58987,3.58987,0,0,1-1.10158.60743,4.1702,4.1702,0,0,1-1.37442.21906,6.42883,6.42883,0,0,1-2.21087-.35656,6.83942,6.83942,0,0,1-1.79557-.98124.837.837,0,0,0-.4725-.142.78393.78393,0,0,0-.57254.23838l-.00019.00014a.78366.78366,0,0,0-.23847.57272.74033.74033,0,0,0,.33276.665,8.68335,8.68335,0,0,0,2.24614,1.20335,7.98,7.98,0,0,0,2.71125.44233,5.67123,5.67123,0,0,0,1.99261-.34426,5.14108,5.14108,0,0,0,1.61233-.95365,4.46141,4.46141,0,0,0,1.07936-1.41567,3.95371,3.95371,0,0,0,.38874-1.72813,3.76973,3.76973,0,0,0-.27677-1.43433A4.30768,4.30768,0,0,0,90.74921,144.357Z" fill="#f4f4f4"/>
            <path d="M106.88757,136.05269H97.45619a.81389.81389,0,0,0-.8111.81105v4.02515a.81413.81413,0,0,0,.8111.81124.81719.81719,0,0,0,.58021-.23613.769.769,0,0,0,.25082-.57511V137.675h8.60035a.81115.81115,0,0,0,0-1.6223Z" fill="#f4f4f4"/>
            <path d="M106.88757,149.48939H98.28722V144.423h7.239a.81437.81437,0,0,0,.81119-.81119.8179.8179,0,0,0-.23609-.58021.76945.76945,0,0,0-.57511-.25072h-8.07a.76955.76955,0,0,0-.57516.25072.81752.81752,0,0,0-.23595.58021v6.70848a.81389.81389,0,0,0,.8111.8111h9.43137a.80992.80992,0,0,0,.57282-1.38378A.867.867,0,0,0,106.88757,149.48939Z" fill="#f4f4f4"/>
            <path d="M126.13989,136.13318l-6.1358,6.13594-6.15535-6.13608a.81117.81117,0,0,0-1.38387.573v13.77217a.78443.78443,0,0,0,.23833.57272.82184.82184,0,0,0,1.15293.00239.769.769,0,0,0,.25082-.57511v-11.8137l5.32447,5.36212a.80715.80715,0,0,0,1.146-.00028l5.32419-5.36184v11.8137a.81373.81373,0,0,0,.81119.81105.818.818,0,0,0,.58021-.23595.76893.76893,0,0,0,.25072-.57511V136.706a.76876.76876,0,0,0-.25086-.5752A.82205.82205,0,0,0,126.13989,136.13318Z" fill="#f4f4f4"/>
            <path d="M158.1968,149.50908h-7.90991V136.706a.76887.76887,0,0,0-.25068-.5752.82227.82227,0,0,0-1.15293.00224v.00014a.78441.78441,0,0,0-.23833.57282v13.61428a.81381.81381,0,0,0,.81105.8111h8.74079a.81115.81115,0,0,0,0-1.6223Z" fill="#f4f4f4"/>
            <path d="M170.57681,136.34719a.84833.84833,0,0,0-.2829-.31947.7546.7546,0,0,0-.43452-.13278.77629.77629,0,0,0-.66677.335l-5.18061,7.28939a.74561.74561,0,0,0-.17276.50683v6.452a.81122.81122,0,0,0,1.62244,0v-6.20979l5.06238-7.08347a.70219.70219,0,0,0,.14657-.42957A.90537.90537,0,0,0,170.57681,136.34719Z" fill="#f4f4f4"/>
            <path d="M163.68365,141.21572l-3.55322-5.002a.71783.71783,0,0,0-.54621-.32794.9162.9162,0,0,0-.61987.15419.79711.79711,0,0,0-.32186.5231.75642.75642,0,0,0,.13221.59919l3.55327,5.0019a.74134.74134,0,0,0,.531.33729.90091.90091,0,0,0,.12829.00935.86359.86359,0,0,0,.48709-.15307.8414.8414,0,0,0,.33107-.529A.7457.7457,0,0,0,163.68365,141.21572Z" fill="#f4f4f4"/>
            <path d="M58.52342,136.5881c-.00524-.01118-.013-.02034-.01871-.03115a.78823.78823,0,0,0-.04279-.07132c-.01389-.02067-.02806-.04055-.04363-.05954-.01632-.01988-.03372-.03854-.052-.05678a.7857.7857,0,0,0-.058-.05313c-.01852-.0152-.038-.02918-.05823-.04284a.80243.80243,0,0,0-.07272-.04368c-.01062-.00557-.01955-.0131-.03045-.01824s-.02226-.00716-.03316-.01179a.78836.78836,0,0,0-.07838-.02778c-.02409-.0072-.04789-.01361-.07212-.01843-.02483-.005-.04976-.008-.07511-.01057-.02582-.00253-.05145-.00444-.07712-.00444-.02479,0-.04934.00182-.07413.00426-.02638.00253-.05229.0058-.0781.0109-.02338.00468-.0463.01085-.06954.01773a.77394.77394,0,0,0-.08077.02862c-.01066.0044-.0217.00636-.03218.01136-.01066.005-.01927.0123-.02965.01773a.79014.79014,0,0,0-.07408.04448c-.02.01347-.03915.02722-.05757.04223a.77244.77244,0,0,0-.05823.05327.75106.75106,0,0,0-.05191.05673c-.01557.019-.02988.03886-.04392.05958a.80213.80213,0,0,0-.04265.07118c-.0058.01085-.01347.02-.01885.03119l-3.42156,7.27779a.787.787,0,1,0,1.42372.67117l2.70928-5.76633,5.86586,12.46425a.78694.78694,0,0,0,1.424-.67033Z" fill="#f4f4f4"/>
            <path d="M59.55565,146.05932H53.19021a.78586.78586,0,0,0-.7663.44785l-1.91708,4.0671a.787.787,0,1,0,1.42377.67117l1.7026-3.61219h5.92245a.787.787,0,1,0,0-1.57394Z" fill="#f4f4f4"/>
            <path d="M143.855,145.096a4.32387,4.32387,0,0,0-4.00631-2.65059H136.3356a.76867.76867,0,0,0-.57511.25068.81782.81782,0,0,0-.23609.58021.81429.81429,0,0,0,.81119.81124h3.51314a2.57134,2.57134,0,0,1,1.04817.21495,2.77619,2.77619,0,0,1,1.43775,1.43766,2.57533,2.57533,0,0,1,.215,1.04831,2.644,2.644,0,0,1-.21527,1.05893,2.78192,2.78192,0,0,1-.58222.86423,2.6597,2.6597,0,0,1-1.90342.77776h-5.404V137.675h5.06851a2.27083,2.27083,0,0,1,.91086.18562,2.43823,2.43823,0,0,1,.75577.51319,2.408,2.408,0,0,1,.51277.76471,2.33939,2.33939,0,0,1,.18609.92161,2.52281,2.52281,0,0,1-.12258.76789c-.00772.02432-.01417.04873-.02264.073a.7978.7978,0,0,0-.03442.22079.80706.80706,0,0,0,1.55093.313l.00028-.00028a1.45034,1.45034,0,0,0,.12627-.34693,3.52582,3.52582,0,0,0,.14423-1.02745,3.90675,3.90675,0,0,0-.31728-1.55495,3.99982,3.99982,0,0,0-2.13516-2.1352,3.90812,3.90812,0,0,0-1.55514-.31728h-5.89953a.81389.81389,0,0,0-.81124.81105v13.45653a.81413.81413,0,0,0,.81124.8111h6.235A4.356,4.356,0,0,0,143.855,145.096Z" fill="#f4f4f4"/>
          </g>
        </g>
        <g>
          <path d="M168.53569,263.98076l1.82715-1.55518c.81592-.68848,1.11328-1.07129,1.11328-1.60645a.892.892,0,0,0-.96045-.92627,1.45646,1.45646,0,0,0-1.17285.6626.48145.48145,0,0,1-.84131-.31445.52125.52125,0,0,1,.11914-.32275,2.30117,2.30117,0,0,1,1.97168-.96045,1.78157,1.78157,0,0,1,1.96338,1.77637v.01709c0,.93506-.49316,1.44482-1.54687,2.30322l-1.22412,1.01953h2.41406a.459.459,0,0,1,0,.918h-3.374a.50182.50182,0,0,1-.561-.49268A.64872.64872,0,0,1,168.53569,263.98076Z" fill="#fff"/>
          <path d="M174.67241,264.448a.51428.51428,0,0,1-.2124-.40771.508.508,0,0,1,.50146-.50146.45854.45854,0,0,1,.30566.10205,1.99715,1.99715,0,0,0,1.292.50146,1.04159,1.04159,0,0,0,1.15576-1.02832V263.097c0-.61182-.50977-.98584-1.23242-.98584a4.04343,4.04343,0,0,0-1.01953.2041.818.818,0,0,1-.49316-.2041.49671.49671,0,0,1-.2041-.459l.12744-2.1416a.47883.47883,0,0,1,.47607-.46777h2.69434a.47186.47186,0,0,1,.46729.46777.46433.46433,0,0,1-.46729.459h-2.23535l-.09326,1.39355a2.52748,2.52748,0,0,1,.94336-.16992,1.83779,1.83779,0,0,1,2.07373,1.87012v.0166a2.00057,2.00057,0,0,1-2.17578,2.01465A3.014,3.014,0,0,1,174.67241,264.448Z" fill="#fff"/>
          <path d="M180.58842,262.03447v-.01709c0-1.69971,1.03662-3.07666,2.60059-3.07666,1.55566,0,2.584,1.35986,2.584,3.06006v.0166c0,1.7002-1.03711,3.07715-2.60107,3.07715C181.60844,265.09453,180.58842,263.73418,180.58842,262.03447Zm4.105,0v-.01709c0-1.17285-.60352-2.13281-1.52148-2.13281-.91748,0-1.50439.93457-1.50439,2.11621v.0166c0,1.17285.59521,2.13379,1.52148,2.13379S184.6934,263.199,184.6934,262.03447Z" fill="#fff"/>
          <path d="M188.01713,265.96953a.42128.42128,0,0,1-.28906-.4082.434.434,0,0,1,.43359-.4248.3993.3993,0,0,1,.187.043,2.74439,2.74439,0,0,0,1.377.35645,1.25464,1.25464,0,0,0,1.41943-1.377v-.34814a1.88084,1.88084,0,0,1-1.58105.82471,2.01679,2.01679,0,0,1-2.03955-2.09961v-.0166a2.02387,2.02387,0,0,1,2.03955-2.1084,1.93588,1.93588,0,0,1,1.57227.76514v-.2124a.51418.51418,0,0,1,1.02832.00879V264.074a2.29542,2.29542,0,0,1-.56934,1.69141,2.52427,2.52427,0,0,1-1.84424.60352A3.87473,3.87473,0,0,1,188.01713,265.96953Zm3.13623-3.44238v-.0166a1.25344,1.25344,0,0,0-1.31738-1.23242,1.21255,1.21255,0,0,0-1.2749,1.23242v.0166a1.22184,1.22184,0,0,0,1.2749,1.23242A1.25314,1.25314,0,0,0,191.15336,262.52714Z" fill="#fff"/>
        </g>
      </g>
    </g>
  </g>
</svg>
