<svg xmlns="http://www.w3.org/2000/svg" width="221.10229" height="291.96924" viewBox="0 0 221.10229 291.96924">
  <title>label-alternator</title>
  <g id="Layer_2" data-name="Layer 2">
    <g id="Layer_1-2" data-name="Layer 1">
      <path d="M0,0V188.9375A4.76122,4.76122,0,0,1,4.74561,193.782H216.35669a4.76107,4.76107,0,0,1,4.74561-4.84448V0Z" fill="#3d44ac"/>
      <path d="M0,198.52759v87.76563a5.676,5.676,0,0,0,5.676,5.676H215.42615a5.67607,5.67607,0,0,0,5.67615-5.676V198.52759a4.7457,4.7457,0,0,1-4.74561-4.74561H4.74561A4.7457,4.7457,0,0,1,0,198.52759Z" fill="#ffcf2b"/>
      <path d="M107.5624,59.54495h.32628a10.42853,10.42853,0,0,1,3.10314.46993l-.48881-.9409a10.55331,10.55331,0,0,1-.87842-2.31019l-.06488.12426A10.588,10.588,0,0,1,107.5624,59.54495Z" fill="none"/>
      <g>
        <path d="M28.06287,230.12356l3.51074-7.83252a1.05463,1.05463,0,0,1,.99951-.67529h.08105a1.03673,1.03673,0,0,1,.98584.67529l3.51074,7.83252a.72374.72374,0,0,1,.09473.35059.77858.77858,0,0,1-.7832.79688.85648.85648,0,0,1-.81055-.58057l-.76953-1.769H30.29089l-.79639,1.82324a.79939.79939,0,0,1-.77.52637.761.761,0,0,1-.77-.76953A.85137.85137,0,0,1,28.06287,230.12356Zm6.18457-2.67383L32.5863,223.628l-1.66064,3.82178Z" fill="#fff"/>
        <path d="M40.38806,222.50735a.83059.83059,0,0,1,1.66113,0v7.18359h4.28125a.75635.75635,0,0,1,0,1.5127H41.226a.82472.82472,0,0,1-.83789-.83691Z" fill="#fff"/>
        <path d="M51.06775,223.29055h-2.2959a.77.77,0,0,1,0-1.54h6.2793a.77014.77014,0,0,1,0,1.54H52.74207v7.15723a.83728.83728,0,0,1-1.67432,0Z" fill="#fff"/>
        <path d="M58.84265,230.36672V222.5884a.82513.82513,0,0,1,.8374-.83789h5.49609a.74946.74946,0,0,1,.74268.74316.74049.74049,0,0,1-.74268.74268H60.50378v2.45752h4.06494a.7522.7522,0,0,1,.74219.75635.73756.73756,0,0,1-.74219.729H60.50378v2.53906h4.73975a.749.749,0,0,1,.74268.74268.74049.74049,0,0,1-.74268.74268H59.68005A.82431.82431,0,0,1,58.84265,230.36672Z" fill="#fff"/>
        <path d="M69.23767,222.5884a.825.825,0,0,1,.83691-.83789H73.451a3.812,3.812,0,0,1,2.728.94531,2.86159,2.86159,0,0,1,.7832,2.03906v.02734a2.79724,2.79724,0,0,1-2.14746,2.82227l1.80957,2.28223a.96264.96264,0,0,1,.27.63477.78315.78315,0,0,1-.79639.76953.95123.95123,0,0,1-.81055-.43164l-2.2959-2.93066H70.8988v2.53906a.8306.8306,0,0,1-1.66113,0Zm4.0918,3.84863c1.18848,0,1.94434-.62158,1.94434-1.58008v-.02734c0-1.0127-.729-1.56641-1.958-1.56641h-2.417V226.437Z" fill="#fff"/>
        <path d="M80.348,222.53371a.83263.83263,0,0,1,.83691-.83691h.17578a1.04557,1.04557,0,0,1,.86426.48633l4.72656,6.11719v-5.80664a.81692.81692,0,0,1,1.63379,0v7.94043a.80643.80643,0,0,1-.81006.82324H87.7074a1.0458,1.0458,0,0,1-.86426-.499l-4.86133-6.293V230.461a.81692.81692,0,0,1-1.63379,0Z" fill="#fff"/>
        <path d="M91.82263,230.12356l3.51123-7.83252a1.05416,1.05416,0,0,1,.99951-.67529h.08105a1.03564,1.03564,0,0,1,.98535.67529l3.51123,7.83252a.71745.71745,0,0,1,.09424.35059.77828.77828,0,0,1-.7832.79688.85587.85587,0,0,1-.81006-.58057l-.77-1.769H94.05115l-.79687,1.82324a.79877.79877,0,0,1-.76953.52637.7607.7607,0,0,1-.77-.76953A.8503.8503,0,0,1,91.82263,230.12356Zm6.18506-2.67383L96.34656,223.628l-1.66064,3.82178Z" fill="#fff"/>
        <path d="M105.391,223.29055h-2.29541a.77.77,0,1,1,0-1.54h6.2793a.77014.77014,0,0,1,0,1.54H107.0658v7.15723a.83752.83752,0,0,1-1.6748,0Z" fill="#fff"/>
        <path d="M112.23474,226.50442v-.02734a4.94311,4.94311,0,0,1,9.88525-.02686v.02686a4.94311,4.94311,0,0,1-9.88525.02734Zm8.14355,0v-.02734a3.23869,3.23869,0,0,0-3.21387-3.3623,3.19413,3.19413,0,0,0-3.1875,3.33545v.02686a3.22714,3.22714,0,0,0,3.21387,3.34912A3.18255,3.18255,0,0,0,120.3783,226.50442Z" fill="#fff"/>
        <path d="M125.47839,222.5884a.82513.82513,0,0,1,.8374-.83789h3.376a3.809,3.809,0,0,1,2.72754.94531,2.85744,2.85744,0,0,1,.7832,2.03906v.02734a2.79684,2.79684,0,0,1-2.147,2.82227l1.80957,2.28223a.96264.96264,0,0,1,.27.63477.78327.78327,0,0,1-.79687.76953.95037.95037,0,0,1-.81006-.43164l-2.29541-2.93066h-2.09326v2.53906a.8306.8306,0,0,1-1.66113,0Zm4.0918,3.84863c1.188,0,1.94482-.62158,1.94482-1.58008v-.02734c0-1.0127-.72949-1.56641-1.958-1.56641h-2.41748V226.437Z" fill="#fff"/>
      </g>
      <g>
        <path d="M28.4447,264.46487v-4.89551a.51878.51878,0,0,1,.52637-.52686h3.45947a.47111.47111,0,0,1,.46729.46729.46574.46574,0,0,1-.46729.46729H29.48962v1.54688h2.55859A.47364.47364,0,0,1,32.5155,262a.46433.46433,0,0,1-.46729.459H29.48962v1.59814H32.473a.47143.47143,0,0,1,.46777.4668.46657.46657,0,0,1-.46777.46777h-3.502A.51878.51878,0,0,1,28.4447,264.46487Z" fill="#fff"/>
        <path d="M34.70056,264.54153a.39528.39528,0,0,1-.19531-.35742.41113.41113,0,0,1,.416-.416.44794.44794,0,0,1,.22119.05957,2.37012,2.37012,0,0,0,1.2915.43311c.44238,0,.69727-.187.69727-.48437v-.01709c0-.34863-.47607-.46777-1.00293-.62891-.66309-.187-1.40234-.459-1.40234-1.31738v-.0166a1.431,1.431,0,0,1,1.59766-1.36865,3.086,3.086,0,0,1,1.41113.36572.43463.43463,0,0,1,.24609.39063.4133.4133,0,0,1-.4248.4165.40357.40357,0,0,1-.2041-.05127,2.45162,2.45162,0,0,0-1.05371-.30566c-.39941,0-.62891.187-.62891.44189v.01709c0,.33105.48438.46729,1.01172.6377.6543.20361,1.39355.501,1.39355,1.30859v.0166c0,.94336-.731,1.41113-1.666,1.41113A3.07033,3.07033,0,0,1,34.70056,264.54153Z" fill="#fff"/>
        <path d="M39.97888,260.9717a.50781.50781,0,0,1,.50977-.51855.51517.51517,0,0,1,.51855.51855v.28076a1.79585,1.79585,0,0,1,1.52979-.8418,2.14686,2.14686,0,0,1,2.08252,2.3291v.0166a2.1473,2.1473,0,0,1-2.08252,2.3291,1.8324,1.8324,0,0,1-1.52979-.791v1.58984a.51418.51418,0,0,1-1.02832,0Zm3.59473,1.78467v-.0166a1.32855,1.32855,0,0,0-1.2832-1.43652,1.3531,1.3531,0,0,0-1.30859,1.43652v.0166a1.3531,1.3531,0,0,0,1.30859,1.43652A1.31417,1.31417,0,0,0,43.57361,262.75637Z" fill="#fff"/>
        <path d="M46.53259,260.9717a.50781.50781,0,0,1,.50977-.51855.51517.51517,0,0,1,.51855.51855v.459a1.42579,1.42579,0,0,1,1.12988-.98584.47734.47734,0,0,1,.51025.50977.48294.48294,0,0,1-.40771.49316c-.73145.127-1.23242.68848-1.23242,1.751v1.3252a.51342.51342,0,0,1-.51855.51025.50621.50621,0,0,1-.50977-.51025Z" fill="#fff"/>
        <path d="M52.79626,265.09377a2.2389,2.2389,0,0,1-2.30273-2.32861v-.01758a2.22681,2.22681,0,0,1,2.19238-2.33691,2.12329,2.12329,0,0,1,2.13379,2.21.48078.48078,0,0,1-.48486.49268h-2.813a1.25287,1.25287,0,0,0,1.292,1.13916,1.615,1.615,0,0,0,1.0625-.39111.38078.38078,0,0,1,.26318-.09326.40428.40428,0,0,1,.40771.416.4487.4487,0,0,1-.13574.31445A2.304,2.304,0,0,1,52.79626,265.09377Zm1.02051-2.66064a1.16493,1.16493,0,0,0-1.13916-1.18066,1.2146,1.2146,0,0,0-1.16455,1.18066Z" fill="#fff"/>
        <path d="M56.55408,264.54153a.39467.39467,0,0,1-.1958-.35742.41124.41124,0,0,1,.4165-.416.446.446,0,0,1,.2207.05957,2.3716,2.3716,0,0,0,1.292.43311c.44238,0,.69727-.187.69727-.48437v-.01709c0-.34863-.47656-.46777-1.00293-.62891-.66309-.187-1.40234-.459-1.40234-1.31738v-.0166a1.431,1.431,0,0,1,1.59766-1.36865,3.08761,3.08761,0,0,1,1.41113.36572.43549.43549,0,0,1,.24609.39063.41359.41359,0,0,1-.4248.4165.40357.40357,0,0,1-.2041-.05127,2.45162,2.45162,0,0,0-1.05371-.30566c-.39941,0-.62891.187-.62891.44189v.01709c0,.33105.48438.46729,1.01123.6377.6543.20361,1.394.501,1.394,1.30859v.0166c0,.94336-.73145,1.41113-1.666,1.41113A3.06915,3.06915,0,0,1,56.55408,264.54153Z" fill="#fff"/>
        <path d="M61.57751,264.54153a.39467.39467,0,0,1-.1958-.35742.41124.41124,0,0,1,.4165-.416.446.446,0,0,1,.2207.05957,2.3716,2.3716,0,0,0,1.292.43311c.44238,0,.69727-.187.69727-.48437v-.01709c0-.34863-.47656-.46777-1.00293-.62891-.66309-.187-1.40234-.459-1.40234-1.31738v-.0166a1.431,1.431,0,0,1,1.59766-1.36865,3.08761,3.08761,0,0,1,1.41113.36572.43549.43549,0,0,1,.24609.39063.41359.41359,0,0,1-.4248.4165.40357.40357,0,0,1-.2041-.05127,2.45162,2.45162,0,0,0-1.05371-.30566c-.39941,0-.62891.187-.62891.44189v.01709c0,.33105.48438.46729,1.01123.6377.6543.20361,1.394.501,1.394,1.30859v.0166c0,.94336-.73145,1.41113-1.666,1.41113A3.06915,3.06915,0,0,1,61.57751,264.54153Z" fill="#fff"/>
        <path d="M66.60925,262.77346v-.01709a2.39324,2.39324,0,0,1,4.78516-.0166v.0166a2.34646,2.34646,0,0,1-2.40527,2.3374A2.32083,2.32083,0,0,1,66.60925,262.77346Zm3.75635,0v-.01709a1.3871,1.3871,0,0,0-1.37646-1.44482,1.34662,1.34662,0,0,0-1.35107,1.42822v.0166a1.383,1.383,0,0,0,1.36816,1.43652A1.34592,1.34592,0,0,0,70.3656,262.77346Z" fill="#fff"/>
        <path d="M72.69519,265.52688l3.47607-7.12207a.40487.40487,0,0,1,.77344.15332.65829.65829,0,0,1-.04248.20361l-3.48486,7.12256a.38684.38684,0,0,1-.36523.23779.40507.40507,0,0,1-.4082-.39111A.47763.47763,0,0,1,72.69519,265.52688Z" fill="#fff"/>
        <path d="M78.68787,259.56936a.51878.51878,0,0,1,.52637-.52686H82.682a.47583.47583,0,1,1,0,.95166H79.73279v1.62354h2.56689a.47583.47583,0,1,1,0,.95166H79.73279v1.94678a.52248.52248,0,0,1-1.04492,0Z" fill="#fff"/>
        <path d="M84.97742,259.29739a.59362.59362,0,0,1,1.17285,0v.05078a.59219.59219,0,0,1-1.17285,0Zm.07666,1.67432a.50781.50781,0,0,1,.50977-.51855.51517.51517,0,0,1,.51855.51855v3.55225a.51417.51417,0,0,1-1.02832,0Z" fill="#fff"/>
        <path d="M88.33484,259.2549a.50632.50632,0,0,1,.51025-.51025.51342.51342,0,0,1,.51855.51025v5.269a.51442.51442,0,0,1-1.02881,0Z" fill="#fff"/>
        <path d="M91.76892,263.75051v-2.3623H91.599a.44189.44189,0,1,1,0-.88379h.16992v-.76514a.51417.51417,0,0,1,1.02832,0v.76514h.80762a.442.442,0,1,1,0,.88379h-.80762v2.20117a.48988.48988,0,0,0,.55273.561,2.395,2.395,0,0,0,.25488-.02588.434.434,0,0,1,.43359.42529.4429.4429,0,0,1-.27246.39941,2.03871,2.03871,0,0,1-.70508.11865A1.15,1.15,0,0,1,91.76892,263.75051Z" fill="#fff"/>
        <path d="M97.829,265.09377a2.239,2.239,0,0,1-2.30322-2.32861v-.01758a2.2269,2.2269,0,0,1,2.19287-2.33691,2.12288,2.12288,0,0,1,2.1333,2.21.48039.48039,0,0,1-.48437.49268H96.55408a1.25287,1.25287,0,0,0,1.292,1.13916,1.61407,1.61407,0,0,0,1.0625-.39111.38206.38206,0,0,1,.26367-.09326.40428.40428,0,0,1,.40771.416.44707.44707,0,0,1-.13623.31445A2.30273,2.30273,0,0,1,97.829,265.09377Zm1.02-2.66064a1.16484,1.16484,0,0,0-1.13867-1.18066,1.21425,1.21425,0,0,0-1.16455,1.18066Z" fill="#fff"/>
        <path d="M101.75623,260.9717a.50781.50781,0,0,1,.50977-.51855.51517.51517,0,0,1,.51855.51855v.459a1.42636,1.42636,0,0,1,1.13037-.98584.47759.47759,0,0,1,.51025.50977.48334.48334,0,0,1-.4082.49316c-.731.127-1.23242.68848-1.23242,1.751v1.3252a.51342.51342,0,0,1-.51855.51025.50621.50621,0,0,1-.50977-.51025Z" fill="#fff"/>
      </g>
      <path d="M192.55115,246.01028h-164a.375.375,0,1,1,0-.75h164a.375.375,0,0,1,0,.75Z" fill="#fff"/>
      <g>
        <g>
          <path d="M102.69184,92.50775a3.28095,3.28095,0,0,1-2.91234-4.78328l8.02666-15.56858a3.27974,3.27974,0,0,1,5.83026,3.00582l-8.02666,15.56858A3.27979,3.27979,0,0,1,102.69184,92.50775Z" fill="#f4f4f4"/>
          <path d="M89.74378,117.25172a3.28073,3.28073,0,0,1-2.897-4.8123l4.90786-9.29a3.27939,3.27939,0,0,1,2.8998-1.74769h15.05885a3.27967,3.27967,0,0,1,0,6.55934H96.631l-3.98466,7.54227A3.27933,3.27933,0,0,1,89.74378,117.25172Z" fill="#f4f4f4"/>
          <path d="M131.35836,117.24375a3.27921,3.27921,0,0,1-2.90876-1.75989L116.09882,91.87871a3.27972,3.27972,0,0,1,5.81194-3.041L134.26154,112.443a3.28081,3.28081,0,0,1-2.90319,4.80075Z" fill="#f4f4f4"/>
        </g>
        <g>
          <path d="M76.78034,144.357a4.928,4.928,0,0,0-1.18791-.96469,5.64813,5.64813,0,0,0-1.4964-.607l-2.464-.63081a3.49369,3.49369,0,0,1-1.59466-.90034,1.96283,1.96283,0,0,1-.61079-1.43069,2.01864,2.01864,0,0,1,.23085-.94144,2.45908,2.45908,0,0,1,.65377-.78384,3.359,3.359,0,0,1,.99462-.53952,3.79645,3.79645,0,0,1,1.25577-.19928,6.448,6.448,0,0,1,1.91165.26981,6.35528,6.35528,0,0,1,1.588.74207.72511.72511,0,0,0,.486.15223.81413.81413,0,0,0,.81119-.81124.76239.76239,0,0,0-.10883-.39781.96229.96229,0,0,0-.27168-.29263,8.76828,8.76828,0,0,0-2.03526-.95267,7.78949,7.78949,0,0,0-2.38106-.35188,5.30613,5.30613,0,0,0-1.87452.32452,5.01006,5.01006,0,0,0-1.502.8733A4.07745,4.07745,0,0,0,68.174,138.2125a3.60785,3.60785,0,0,0-.36966,1.61093,3.42741,3.42741,0,0,0,.25713,1.30624,4.04641,4.04641,0,0,0,.71523,1.14442,4.5614,4.5614,0,0,0,1.08886.8958,5.03588,5.03588,0,0,0,1.36007.55841l2.5405.63006a3.94274,3.94274,0,0,1,1.77294,1.02848,2.289,2.289,0,0,1,.69035,1.63829,2.32162,2.32162,0,0,1-.2605,1.07978,2.85552,2.85552,0,0,1-.734.89341,3.58912,3.58912,0,0,1-1.10144.60743,4.1714,4.1714,0,0,1-1.37442.21906,6.42957,6.42957,0,0,1-2.211-.35656,6.83813,6.83813,0,0,1-1.79548-.98124.83731.83731,0,0,0-.4725-.142.784.784,0,0,0-.57268.23838l-.00014.00014a.78394.78394,0,0,0-.23838.57272.74033.74033,0,0,0,.33276.665,8.68326,8.68326,0,0,0,2.246,1.20335,7.98081,7.98081,0,0,0,2.71139.44233,5.6718,5.6718,0,0,0,1.99261-.34426,5.14039,5.14039,0,0,0,1.61219-.95365,4.46289,4.46289,0,0,0,1.0795-1.41567,3.9546,3.9546,0,0,0,.38874-1.72813,3.77036,3.77036,0,0,0-.27691-1.43433A4.3058,4.3058,0,0,0,76.78034,144.357Z" fill="#f4f4f4"/>
          <path d="M90.74921,144.357a4.93081,4.93081,0,0,0-1.18777-.96469,5.64907,5.64907,0,0,0-1.49654-.607l-2.464-.63081a3.49248,3.49248,0,0,1-1.59452-.90034,1.9626,1.9626,0,0,1-.61079-1.43069,2.01947,2.01947,0,0,1,.23085-.94158,2.45586,2.45586,0,0,1,.65377-.7837,3.36025,3.36025,0,0,1,.99443-.53952,3.79778,3.79778,0,0,1,1.256-.19928,6.452,6.452,0,0,1,1.91165.26971,6.35956,6.35956,0,0,1,1.588.74216.72511.72511,0,0,0,.486.15223.81413.81413,0,0,0,.81119-.81124.7637.7637,0,0,0-.10883-.39781.96684.96684,0,0,0-.27172-.29263,8.77075,8.77075,0,0,0-2.03535-.95267,7.78923,7.78923,0,0,0-2.38092-.35188,5.30583,5.30583,0,0,0-1.87456.32452,5.01038,5.01038,0,0,0-1.502.8733,4.07826,4.07826,0,0,0-1.01118,1.29744,3.60815,3.60815,0,0,0-.36961,1.61093,3.42825,3.42825,0,0,0,.25708,1.30624,4.05423,4.05423,0,0,0,.71513,1.14442,4.56215,4.56215,0,0,0,1.089.8958,5.03218,5.03218,0,0,0,1.36007.55841l2.5405.63006a3.94274,3.94274,0,0,1,1.77294,1.02848,2.28884,2.28884,0,0,1,.6903,1.63829,2.32288,2.32288,0,0,1-.26045,1.07978,2.85745,2.85745,0,0,1-.734.89341,3.58987,3.58987,0,0,1-1.10158.60743,4.1702,4.1702,0,0,1-1.37442.21906,6.42883,6.42883,0,0,1-2.21087-.35656,6.83942,6.83942,0,0,1-1.79557-.98124.837.837,0,0,0-.4725-.142.78393.78393,0,0,0-.57254.23838l-.00019.00014a.78366.78366,0,0,0-.23847.57272.74033.74033,0,0,0,.33276.665,8.68335,8.68335,0,0,0,2.24614,1.20335,7.98,7.98,0,0,0,2.71125.44233,5.67123,5.67123,0,0,0,1.99261-.34426,5.14108,5.14108,0,0,0,1.61233-.95365,4.46141,4.46141,0,0,0,1.07936-1.41567,3.95371,3.95371,0,0,0,.38874-1.72813,3.76973,3.76973,0,0,0-.27677-1.43433A4.30768,4.30768,0,0,0,90.74921,144.357Z" fill="#f4f4f4"/>
          <path d="M106.88757,136.05269H97.45619a.81389.81389,0,0,0-.8111.81105v4.02515a.81413.81413,0,0,0,.8111.81124.81719.81719,0,0,0,.58021-.23613.769.769,0,0,0,.25082-.57511V137.675h8.60035a.81115.81115,0,0,0,0-1.6223Z" fill="#f4f4f4"/>
          <path d="M106.88757,149.48939H98.28722V144.423h7.239a.81437.81437,0,0,0,.81119-.81119.8179.8179,0,0,0-.23609-.58021.76945.76945,0,0,0-.57511-.25072h-8.07a.76955.76955,0,0,0-.57516.25072.81752.81752,0,0,0-.23595.58021v6.70848a.81389.81389,0,0,0,.8111.8111h9.43137a.80992.80992,0,0,0,.57282-1.38378A.867.867,0,0,0,106.88757,149.48939Z" fill="#f4f4f4"/>
          <path d="M126.13989,136.13318l-6.1358,6.13594-6.15535-6.13608a.81117.81117,0,0,0-1.38387.573v13.77217a.78443.78443,0,0,0,.23833.57272.82184.82184,0,0,0,1.15293.00239.769.769,0,0,0,.25082-.57511v-11.8137l5.32447,5.36212a.80715.80715,0,0,0,1.146-.00028l5.32419-5.36184v11.8137a.81373.81373,0,0,0,.81119.81105.818.818,0,0,0,.58021-.23595.76893.76893,0,0,0,.25072-.57511V136.706a.76876.76876,0,0,0-.25086-.5752A.82205.82205,0,0,0,126.13989,136.13318Z" fill="#f4f4f4"/>
          <path d="M158.1968,149.50908h-7.90991V136.706a.76887.76887,0,0,0-.25068-.5752.82227.82227,0,0,0-1.15293.00224v.00014a.78441.78441,0,0,0-.23833.57282v13.61428a.81381.81381,0,0,0,.81105.8111h8.74079a.81115.81115,0,0,0,0-1.6223Z" fill="#f4f4f4"/>
          <path d="M170.57681,136.34719a.84833.84833,0,0,0-.2829-.31947.7546.7546,0,0,0-.43452-.13278.77629.77629,0,0,0-.66677.335l-5.18061,7.28939a.74561.74561,0,0,0-.17276.50683v6.452a.81122.81122,0,0,0,1.62244,0v-6.20979l5.06238-7.08347a.70219.70219,0,0,0,.14657-.42957A.90537.90537,0,0,0,170.57681,136.34719Z" fill="#f4f4f4"/>
          <path d="M163.68365,141.21572l-3.55322-5.002a.71783.71783,0,0,0-.54621-.32794.9162.9162,0,0,0-.61987.15419.79711.79711,0,0,0-.32186.5231.75642.75642,0,0,0,.13221.59919l3.55327,5.0019a.74134.74134,0,0,0,.531.33729.90091.90091,0,0,0,.12829.00935.86359.86359,0,0,0,.48709-.15307.8414.8414,0,0,0,.33107-.529A.7457.7457,0,0,0,163.68365,141.21572Z" fill="#f4f4f4"/>
          <path d="M58.52342,136.5881c-.00524-.01118-.013-.02034-.01871-.03115a.78823.78823,0,0,0-.04279-.07132c-.01389-.02067-.02806-.04055-.04363-.05954-.01632-.01988-.03372-.03854-.052-.05678a.7857.7857,0,0,0-.058-.05313c-.01852-.0152-.038-.02918-.05823-.04284a.80243.80243,0,0,0-.07272-.04368c-.01062-.00557-.01955-.0131-.03045-.01824s-.02226-.00716-.03316-.01179a.78836.78836,0,0,0-.07838-.02778c-.02409-.0072-.04789-.01361-.07212-.01843-.02483-.005-.04976-.008-.07511-.01057-.02582-.00253-.05145-.00444-.07712-.00444-.02479,0-.04934.00182-.07413.00426-.02638.00253-.05229.0058-.0781.0109-.02338.00468-.0463.01085-.06954.01773a.77394.77394,0,0,0-.08077.02862c-.01066.0044-.0217.00636-.03218.01136-.01066.005-.01927.0123-.02965.01773a.79014.79014,0,0,0-.07408.04448c-.02.01347-.03915.02722-.05757.04223a.77244.77244,0,0,0-.05823.05327.75106.75106,0,0,0-.05191.05673c-.01557.019-.02988.03886-.04392.05958a.80213.80213,0,0,0-.04265.07118c-.0058.01085-.01347.02-.01885.03119l-3.42156,7.27779a.787.787,0,1,0,1.42372.67117l2.70928-5.76633,5.86586,12.46425a.78694.78694,0,0,0,1.424-.67033Z" fill="#f4f4f4"/>
          <path d="M59.55565,146.05932H53.19021a.78586.78586,0,0,0-.7663.44785l-1.91708,4.0671a.787.787,0,1,0,1.42377.67117l1.7026-3.61219h5.92245a.787.787,0,1,0,0-1.57394Z" fill="#f4f4f4"/>
          <path d="M143.855,145.096a4.32387,4.32387,0,0,0-4.00631-2.65059H136.3356a.76867.76867,0,0,0-.57511.25068.81782.81782,0,0,0-.23609.58021.81429.81429,0,0,0,.81119.81124h3.51314a2.57134,2.57134,0,0,1,1.04817.21495,2.77619,2.77619,0,0,1,1.43775,1.43766,2.57533,2.57533,0,0,1,.215,1.04831,2.644,2.644,0,0,1-.21527,1.05893,2.78192,2.78192,0,0,1-.58222.86423,2.6597,2.6597,0,0,1-1.90342.77776h-5.404V137.675h5.06851a2.27083,2.27083,0,0,1,.91086.18562,2.43823,2.43823,0,0,1,.75577.51319,2.408,2.408,0,0,1,.51277.76471,2.33939,2.33939,0,0,1,.18609.92161,2.52281,2.52281,0,0,1-.12258.76789c-.00772.02432-.01417.04873-.02264.073a.7978.7978,0,0,0-.03442.22079.80706.80706,0,0,0,1.55093.313l.00028-.00028a1.45034,1.45034,0,0,0,.12627-.34693,3.52582,3.52582,0,0,0,.14423-1.02745,3.90675,3.90675,0,0,0-.31728-1.55495,3.99982,3.99982,0,0,0-2.13516-2.1352,3.90812,3.90812,0,0,0-1.55514-.31728h-5.89953a.81389.81389,0,0,0-.81124.81105v13.45653a.81413.81413,0,0,0,.81124.8111h6.235A4.356,4.356,0,0,0,143.855,145.096Z" fill="#f4f4f4"/>
        </g>
      </g>
      <g>
        <path d="M168.53552,263.981l1.82715-1.55566c.81641-.68848,1.11328-1.0708,1.11328-1.60645a.89152.89152,0,0,0-.96-.92578,1.45385,1.45385,0,0,0-1.17285.6626.48178.48178,0,0,1-.8418-.31445.52311.52311,0,0,1,.11914-.32275,2.30214,2.30214,0,0,1,1.97168-.96094,1.78157,1.78157,0,0,1,1.96338,1.77637v.01758c0,.93457-.49268,1.44434-1.54687,2.30273l-1.22412,1.02h2.41406a.459.459,0,1,1,0,.918h-3.374a.50209.50209,0,0,1-.561-.49268A.64872.64872,0,0,1,168.53552,263.981Z" fill="#fff"/>
        <path d="M174.67224,264.44826a.515.515,0,0,1-.2124-.40771.50808.50808,0,0,1,.50146-.502.45631.45631,0,0,1,.30566.10254,1.99914,1.99914,0,0,0,1.292.501,1.04175,1.04175,0,0,0,1.15625-1.02832v-.0166c0-.6123-.51025-.98633-1.23242-.98633a4.04932,4.04932,0,0,0-1.02.2041.81573.81573,0,0,1-.49268-.2041.49462.49462,0,0,1-.2041-.459l.127-2.1416a.47991.47991,0,0,1,.47656-.46777h2.69385a.47153.47153,0,0,1,.46729.46777.464.464,0,0,1-.46729.459h-2.23486l-.09375,1.39355a2.5373,2.5373,0,0,1,.94336-.16992,1.838,1.838,0,0,1,2.07373,1.87012v.0166a2.00057,2.00057,0,0,1-2.17578,2.01465A3.01486,3.01486,0,0,1,174.67224,264.44826Z" fill="#fff"/>
        <path d="M180.58826,262.03469v-.01709c0-1.69971,1.03711-3.07666,2.60059-3.07666,1.55566,0,2.584,1.35938,2.584,3.05957v.01709c0,1.69971-1.03711,3.07666-2.60059,3.07666C181.60828,265.09426,180.58826,263.7344,180.58826,262.03469Zm4.10547,0v-.01709c0-1.17334-.60352-2.1333-1.52148-2.1333s-1.50488.93457-1.50488,2.11621v.01709c0,1.17285.59521,2.1333,1.52148,2.1333C184.1156,264.1509,184.69373,263.19875,184.69373,262.03469Z" fill="#fff"/>
        <path d="M188.017,265.96926a.42023.42023,0,0,1-.28906-.40771.434.434,0,0,1,.43359-.4248.40912.40912,0,0,1,.1875.04248,2.74285,2.74285,0,0,0,1.37646.35693,1.25485,1.25485,0,0,0,1.41943-1.377v-.34814a1.88045,1.88045,0,0,1-1.58105.82422,2.01679,2.01679,0,0,1-2.03955-2.09961v-.0166a2.02373,2.02373,0,0,1,2.03955-2.10791,1.93382,1.93382,0,0,1,1.57227.76514v-.21289a.51418.51418,0,0,1,1.02832.00879v3.10205a2.29619,2.29619,0,0,1-.56934,1.69141,2.52587,2.52587,0,0,1-1.84375.60352A3.87718,3.87718,0,0,1,188.017,265.96926Zm3.13672-3.44189v-.01709a1.25374,1.25374,0,0,0-1.31738-1.23242,1.213,1.213,0,0,0-1.27539,1.23242v.01709a1.22226,1.22226,0,0,0,1.27539,1.23242A1.25344,1.25344,0,0,0,191.15369,262.52737Z" fill="#fff"/>
      </g>
    </g>
  </g>
</svg>
