<svg xmlns="http://www.w3.org/2000/svg" width="205" height="266.06955" viewBox="0 0 205 266.06955">
  <title>label-generator</title>
  <g id="Layer_2" data-name="Layer 2">
    <g id="Layer_1-2" data-name="Layer 1">
      <g>
        <path d="M200.57824,174.13H4.42176A4.42176,4.42176,0,0,0,0,169.70827V0H205V169.70827A4.42176,4.42176,0,0,0,200.57824,174.13Z" fill="#3246c8"/>
        <path d="M196.64393,266.06955H8.35607A8.35607,8.35607,0,0,1,0,257.71347V178.55178A4.42176,4.42176,0,0,0,4.42176,174.13H200.57824A4.42176,4.42176,0,0,0,205,178.55178v79.16169A8.35607,8.35607,0,0,1,196.64393,266.06955Z" fill="#6ab9d9"/>
        <g>
          <path d="M24.819,206.80331v-.02637a4.70754,4.70754,0,0,1,4.76563-4.77783,5.01388,5.01388,0,0,1,3.1543.937.82358.82358,0,0,1,.33008.65967.809.809,0,0,1-.80566.80566.85274.85274,0,0,1-.501-.18506,3.51392,3.51392,0,0,0-2.24414-.72607,3.125,3.125,0,0,0-2.99609,3.26025v.02637a3.08576,3.08576,0,0,0,3.1416,3.2998,3.771,3.771,0,0,0,2.23047-.69971v-1.729H30.07293a.71007.71007,0,0,1-.72656-.69971.72132.72132,0,0,1,.72656-.7124h2.57324a.80555.80555,0,0,1,.81836.81787v2.46875a1.121,1.121,0,0,1-.56738,1.0293,5.88407,5.88407,0,0,1-3.28613,1.00293A4.58481,4.58481,0,0,1,24.819,206.80331Z" fill="#f2edec"/>
          <path d="M36.89422,210.57821v-7.60254a.806.806,0,0,1,.81836-.81836h5.37207a.73268.73268,0,0,1,.72656.72607.72414.72414,0,0,1-.72656.72607H38.51824v2.40186H42.4909a.73468.73468,0,0,1,.72559.73926.72015.72015,0,0,1-.72559.7124H38.51824v2.48145h4.63281a.73258.73258,0,0,1,.72559.72656.72382.72382,0,0,1-.72559.72559H37.71258A.806.806,0,0,1,36.89422,210.57821Z" fill="#f2edec"/>
          <path d="M47.05633,202.92294a.81408.81408,0,0,1,.81836-.81836h.17188a1.02264,1.02264,0,0,1,.84473.4751l4.62012,5.979v-5.67529a.79837.79837,0,0,1,1.59668,0v7.76074a.78871.78871,0,0,1-.792.80518h-.06641a1.02268,1.02268,0,0,1-.84473-.48828l-4.751-6.15039V210.671a.79886.79886,0,0,1-1.59766,0Z" fill="#f2edec"/>
          <path d="M58.80242,210.57821v-7.60254a.806.806,0,0,1,.81836-.81836h5.37207a.73268.73268,0,0,1,.72656.72607.72414.72414,0,0,1-.72656.72607H60.42644v2.40186H64.3991a.73468.73468,0,0,1,.72559.73926.72015.72015,0,0,1-.72559.7124H60.42644v2.48145h4.63281a.73258.73258,0,0,1,.72559.72656.72382.72382,0,0,1-.72559.72559H59.62078A.806.806,0,0,1,58.80242,210.57821Z" fill="#f2edec"/>
          <path d="M68.96453,202.97567a.806.806,0,0,1,.81836-.81836h3.2998a3.72146,3.72146,0,0,1,2.666.92383,2.78993,2.78993,0,0,1,.76563,1.99316v.02637a2.7338,2.7338,0,0,1-2.09863,2.75879l1.76855,2.23047a.93891.93891,0,0,1,.26465.62012.76556.76556,0,0,1-.7793.75244.929.929,0,0,1-.792-.42236l-2.24316-2.86426h-2.0459v2.48145a.812.812,0,0,1-1.624,0Zm4,3.76172c1.16113,0,1.90039-.60742,1.90039-1.54395v-.02686c0-.98975-.71289-1.53076-1.91406-1.53076h-2.3623v3.10156Z" fill="#f2edec"/>
          <path d="M79.29851,210.34091l3.43164-7.65527a1.02966,1.02966,0,0,1,.97656-.66016h.0791a1.01305,1.01305,0,0,1,.96387.66016l3.43164,7.65527a.71053.71053,0,0,1,.0918.34277.76016.76016,0,0,1-.76465.77881.83558.83558,0,0,1-.792-.56738l-.75293-1.729h-4.4873l-.7793,1.78174a.78089.78089,0,0,1-.752.51465.74349.74349,0,0,1-.752-.75244A.8241.8241,0,0,1,79.29851,210.34091Zm6.04492-2.61328-1.623-3.73535-1.624,3.73535Z" fill="#f2edec"/>
          <path d="M92.56219,203.6622H90.318a.75244.75244,0,0,1,0-1.50488h6.1377a.75256.75256,0,0,1,0,1.50488H94.1989v6.99512a.81847.81847,0,0,1-1.63672,0Z" fill="#f2edec"/>
          <path d="M99.25261,206.80331v-.02637a4.83154,4.83154,0,0,1,9.66211-.02637v.02637a4.83154,4.83154,0,0,1-9.66211.02637Zm7.959,0v-.02637a3.1656,3.1656,0,0,0-3.14062-3.28662,3.122,3.122,0,0,0-3.11523,3.26025v.02637a3.15424,3.15424,0,0,0,3.1416,3.27344A3.1103,3.1103,0,0,0,107.2116,206.80331Z" fill="#f2edec"/>
          <path d="M112.1989,202.97567a.806.806,0,0,1,.81836-.81836h3.2998a3.72146,3.72146,0,0,1,2.666.92383,2.78993,2.78993,0,0,1,.76563,1.99316v.02637a2.7338,2.7338,0,0,1-2.09863,2.75879l1.76855,2.23047a.93891.93891,0,0,1,.26465.62012.76556.76556,0,0,1-.7793.75244.929.929,0,0,1-.792-.42236l-2.24316-2.86426h-2.0459v2.48145a.812.812,0,0,1-1.624,0Zm4,3.76172c1.16113,0,1.90039-.60742,1.90039-1.54395v-.02686c0-.98975-.71289-1.53076-1.91406-1.53076h-2.3623v3.10156Z" fill="#f2edec"/>
        </g>
        <g>
          <path d="M24.75359,242.6202v-4.56152a.48366.48366,0,0,1,.49121-.49121h3.22266a.43977.43977,0,0,1,.43555.43555.43469.43469,0,0,1-.43555.43555H25.72722V239.88H28.111a.44112.44112,0,0,1,.43555.44336.43308.43308,0,0,1-.43555.42773H25.72722v1.48877H28.5075a.43944.43944,0,0,1,.43555.43555.43437.43437,0,0,1-.43555.43555H25.2448A.48355.48355,0,0,1,24.75359,242.6202Z" fill="#f2edec"/>
          <path d="M30.70867,242.49325a.461.461,0,0,1,.55469-.73633,2.40291,2.40291,0,0,0,1.55176.57031c.60156,0,.98242-.28516.98242-.69727v-.01562c0-.39648-.22266-.60986-1.252-.84766-1.17969-.28516-1.84473-.6333-1.84473-1.65527v-.01562a1.69544,1.69544,0,0,1,1.89258-1.60742,3.04559,3.04559,0,0,1,1.75781.51465.43916.43916,0,0,1,.21387.3877.45288.45288,0,0,1-.459.45166.47221.47221,0,0,1-.25391-.07129,2.30616,2.30616,0,0,0-1.27441-.41943c-.57031,0-.90332.293-.90332.65723v.01563c0,.42773.25391.61768,1.32227.87109,1.17285.28516,1.77441.70508,1.77441,1.62354v.01611c0,1.03711-.81543,1.65479-1.97949,1.65479A3.45151,3.45151,0,0,1,30.70867,242.49325Z" fill="#f2edec"/>
          <path d="M36.48894,242.49325a.461.461,0,0,1,.55469-.73633,2.40291,2.40291,0,0,0,1.55176.57031c.60156,0,.98242-.28516.98242-.69727v-.01562c0-.39648-.22266-.60986-1.252-.84766-1.17969-.28516-1.84473-.6333-1.84473-1.65527v-.01562a1.69544,1.69544,0,0,1,1.89258-1.60742,3.04559,3.04559,0,0,1,1.75781.51465.43916.43916,0,0,1,.21387.3877.45288.45288,0,0,1-.459.45166.47221.47221,0,0,1-.25391-.07129,2.30616,2.30616,0,0,0-1.27441-.41943c-.57031,0-.90332.293-.90332.65723v.01563c0,.42773.25391.61768,1.32227.87109,1.17285.28516,1.77441.70508,1.77441,1.62354v.01611c0,1.03711-.81543,1.65479-1.97949,1.65479A3.45151,3.45151,0,0,1,36.48894,242.49325Z" fill="#f2edec"/>
          <path d="M42.4909,238.05868a.48366.48366,0,0,1,.49121-.49121h1.69434a1.8606,1.8606,0,0,1,2.10645,1.853v.01611c0,1.24316-.998,1.89258-2.21777,1.89258H43.46453v1.33838a.48683.48683,0,0,1-.97363,0Zm2.10645,2.3916c.73633,0,1.19531-.41211,1.19531-.99023v-.01562c0-.64941-.4668-.99023-1.19531-.99023H43.46453v1.99609Z" fill="#f2edec"/>
          <path d="M48.572,238.05868a.48366.48366,0,0,1,.49121-.49121h1.97949a2.234,2.234,0,0,1,1.59961.5542,1.67643,1.67643,0,0,1,.459,1.1958v.01563a1.64032,1.64032,0,0,1-1.25879,1.65527l1.06152,1.33887a.56468.56468,0,0,1,.1582.37207.45934.45934,0,0,1-.46777.45117.55534.55534,0,0,1-.47461-.25342l-1.34668-1.71826H49.54558v1.48877a.48683.48683,0,0,1-.97363,0Zm2.39941,2.25684c.69727,0,1.14063-.36426,1.14063-.92676v-.01562c0-.59375-.42773-.91895-1.14844-.91895h-1.418v1.86133Z" fill="#f2edec"/>
          <path d="M55.08953,242.6202v-4.56152a.48366.48366,0,0,1,.49121-.49121H58.8034a.43977.43977,0,0,1,.43555.43555.43469.43469,0,0,1-.43555.43555H56.06316V239.88H58.447a.44112.44112,0,0,1,.43555.44336.43308.43308,0,0,1-.43555.42773H56.06316v1.48877h2.78027a.43944.43944,0,0,1,.43555.43555.43437.43437,0,0,1-.43555.43555h-3.2627A.48355.48355,0,0,1,55.08953,242.6202Z" fill="#f2edec"/>
          <path d="M61.04363,242.49325a.461.461,0,0,1,.55469-.73633,2.40291,2.40291,0,0,0,1.55176.57031c.60156,0,.98242-.28516.98242-.69727v-.01562c0-.39648-.22266-.60986-1.252-.84766-1.17969-.28516-1.84473-.6333-1.84473-1.65527v-.01562a1.69544,1.69544,0,0,1,1.89258-1.60742,3.04559,3.04559,0,0,1,1.75781.51465.43916.43916,0,0,1,.21387.3877.45288.45288,0,0,1-.459.45166.47221.47221,0,0,1-.25391-.07129,2.30616,2.30616,0,0,0-1.27441-.41943c-.57031,0-.90332.293-.90332.65723v.01563c0,.42773.25391.61768,1.32227.87109,1.17285.28516,1.77441.70508,1.77441,1.62354v.01611c0,1.03711-.81543,1.65479-1.97949,1.65479A3.45151,3.45151,0,0,1,61.04363,242.49325Z" fill="#f2edec"/>
          <path d="M66.8239,242.49325a.461.461,0,0,1,.55469-.73633,2.40291,2.40291,0,0,0,1.55176.57031c.60156,0,.98242-.28516.98242-.69727v-.01562c0-.39648-.22266-.60986-1.252-.84766-1.17969-.28516-1.84473-.6333-1.84473-1.65527v-.01562a1.69544,1.69544,0,0,1,1.89258-1.60742,3.04559,3.04559,0,0,1,1.75781.51465.43916.43916,0,0,1,.21387.3877.45288.45288,0,0,1-.459.45166.47221.47221,0,0,1-.25391-.07129,2.30616,2.30616,0,0,0-1.27441-.41943c-.57031,0-.90332.293-.90332.65723v.01563c0,.42773.25391.61768,1.32227.87109,1.17285.28516,1.77441.70508,1.77441,1.62354v.01611c0,1.03711-.81543,1.65479-1.97949,1.65479A3.45151,3.45151,0,0,1,66.8239,242.49325Z" fill="#f2edec"/>
          <path d="M72.58074,240.35507V240.339a2.89922,2.89922,0,0,1,5.79785-.01562v.01563a2.89921,2.89921,0,0,1-5.79785.01611Zm4.77539,0V240.339a1.89859,1.89859,0,0,0-1.88477-1.97168,1.87242,1.87242,0,0,0-1.86816,1.95605v.01563a1.89192,1.89192,0,0,0,1.88477,1.96387A1.86567,1.86567,0,0,0,77.35613,240.35507Z" fill="#f2edec"/>
        </g>
        <line x1="23.50695" y1="224.94162" x2="178.01415" y2="224.94162" fill="none" stroke="#f2edec" stroke-linecap="round" stroke-linejoin="round" stroke-width="0.65987"/>
        <path d="M99.69469,55.89014h.30625a9.78858,9.78858,0,0,1,2.91271.4411l-.45882-.88316a9.90569,9.90569,0,0,1-.82452-2.16842l-.0609.11664A9.93828,9.93828,0,0,1,99.69469,55.89014Z" fill="none"/>
        <g>
          <path d="M104.02976,50.03854a2.99913,2.99913,0,0,0-4.03943,1.29113L92.65158,65.56411a2.99867,2.99867,0,1,0,5.33056,2.74829L105.32077,54.078A2.99865,2.99865,0,0,0,104.02976,50.03854Z" fill="#f2edec"/>
          <path d="M101.73409,78.06918H87.96576A2.99843,2.99843,0,0,0,85.31449,79.667L80.827,88.16081a2.99868,2.99868,0,1,0,5.30281,2.80151l3.64308-6.89594h11.96117a2.9986,2.9986,0,1,0,0-5.9972Z" fill="#f2edec"/>
          <path d="M124.17851,88.16412,112.88615,66.58189a2.9986,2.9986,0,1,0-5.31376,2.78038L118.86476,90.9445a2.9986,2.9986,0,1,0,5.31376-2.78038Z" fill="#f2edec"/>
        </g>
        <g>
          <path d="M65.2558,126.31552a5.43688,5.43688,0,0,0-1.31009-1.06392,6.228,6.228,0,0,0-1.65034-.66942l-2.71739-.69568a3.85313,3.85313,0,0,1-1.75866-.993,2.16459,2.16459,0,0,1-.67364-1.57782,2.22574,2.22574,0,0,1,.25461-1.03828,2.71123,2.71123,0,0,1,.721-.86448,3.70588,3.70588,0,0,1,1.0969-.595,4.18812,4.18812,0,0,1,1.385-.21975,7.11123,7.11123,0,0,1,2.1083.29759,7.00786,7.00786,0,0,1,1.75131.81837.79981.79981,0,0,0,.53594.16786.89786.89786,0,0,0,.89465-.89465.84048.84048,0,0,0-.12-.43873,1.06086,1.06086,0,0,0-.29962-.32275,9.67078,9.67078,0,0,0-2.24459-1.05063,8.59061,8.59061,0,0,0-2.626-.38809,5.852,5.852,0,0,0-2.06735.35792,5.52569,5.52569,0,0,0-1.65644.9631,4.498,4.498,0,0,0-1.11518,1.4309,3.97936,3.97936,0,0,0-.40762,1.77663,3.78077,3.78077,0,0,0,.28352,1.44059,4.463,4.463,0,0,0,.78883,1.2621,5.03093,5.03093,0,0,0,1.20083.988,5.55483,5.55483,0,0,0,1.5.61581l2.80179.6949a4.34772,4.34772,0,0,1,1.95528,1.13425,2.52446,2.52446,0,0,1,.76132,1.8068,2.56043,2.56043,0,0,1-.28727,1.19083,3.14944,3.14944,0,0,1-.80946.9853,3.95836,3.95836,0,0,1-1.21474.66989,4.60035,4.60035,0,0,1-1.51577.24164,7.09145,7.09145,0,0,1-2.4384-.39324,7.54153,7.54153,0,0,1-1.98013-1.0822.92339.92339,0,0,0-.5211-.15661.86457.86457,0,0,0-.6316.26289l-.00016.00016a.86457.86457,0,0,0-.26289.6316.81652.81652,0,0,0,.367.73335,9.57675,9.57675,0,0,0,2.477,1.32712,8.802,8.802,0,0,0,2.99028.4878,6.25523,6.25523,0,0,0,2.19754-.37965,5.66937,5.66937,0,0,0,1.778-1.05173A4.92317,4.92317,0,0,0,65.987,131.164a4.36152,4.36152,0,0,0,.42872-1.90589,4.158,4.158,0,0,0-.30541-1.58189A4.74883,4.74883,0,0,0,65.2558,126.31552Z" fill="#f2edec"/>
          <path d="M80.66141,126.31552a5.43907,5.43907,0,0,0-1.30993-1.06392,6.229,6.229,0,0,0-1.6505-.66942l-2.71739-.69568a3.85178,3.85178,0,0,1-1.7585-.993,2.16434,2.16434,0,0,1-.67364-1.57782,2.22729,2.22729,0,0,1,.25461-1.03844,2.70832,2.70832,0,0,1,.721-.86432,3.707,3.707,0,0,1,1.09674-.595,4.18906,4.18906,0,0,1,1.38511-.21975,7.11717,7.11717,0,0,1,2.1083.29743,7.01372,7.01372,0,0,1,1.75131.81853.79981.79981,0,0,0,.53594.16786.89786.89786,0,0,0,.89465-.89465.84194.84194,0,0,0-.12-.43873,1.0664,1.0664,0,0,0-.29962-.32275,9.6749,9.6749,0,0,0-2.24474-1.05063,8.59031,8.59031,0,0,0-2.6258-.38809,5.85137,5.85137,0,0,0-2.06735.35792,5.52569,5.52569,0,0,0-1.65644.9631,4.498,4.498,0,0,0-1.11518,1.4309,3.97887,3.97887,0,0,0-.40762,1.77663,3.78077,3.78077,0,0,0,.28352,1.44059,4.47034,4.47034,0,0,0,.78868,1.2621,5.03176,5.03176,0,0,0,1.201.988,5.55071,5.55071,0,0,0,1.5.61581l2.80179.6949a4.34772,4.34772,0,0,1,1.95528,1.13425,2.5242,2.5242,0,0,1,.76132,1.8068,2.56187,2.56187,0,0,1-.28727,1.19083,3.15159,3.15159,0,0,1-.80946.9853,3.95919,3.95919,0,0,1-1.2149.66989,4.599,4.599,0,0,1-1.51577.24164,7.09054,7.09054,0,0,1-2.43824-.39324,7.54245,7.54245,0,0,1-1.98029-1.0822.923.923,0,0,0-.5211-.15661.86447.86447,0,0,0-.63144.26289l-.00016.00016a.8641.8641,0,0,0-.263.6316.81652.81652,0,0,0,.367.73335,9.5777,9.5777,0,0,0,2.47716,1.32712,8.8011,8.8011,0,0,0,2.99013.4878A6.2546,6.2546,0,0,0,78.424,133.777a5.67014,5.67014,0,0,0,1.7782-1.05173,4.92094,4.92094,0,0,0,1.19036-1.56126,4.36053,4.36053,0,0,0,.42872-1.90589,4.15727,4.15727,0,0,0-.30525-1.58189A4.75021,4.75021,0,0,0,80.66141,126.31552Z" fill="#f2edec"/>
          <path d="M98.45963,117.15712H88.05819a.89759.89759,0,0,0-.89449.89449v4.43916a.89786.89786,0,0,0,.89449.89465.901.901,0,0,0,.63988-.26039.84805.84805,0,0,0,.27665-.63425v-3.54451h9.48491a.89457.89457,0,0,0,0-1.78914Z" fill="#f2edec"/>
          <path d="M98.45963,131.97584H88.97472v-5.58748h7.98352a.89813.89813,0,0,0,.89465-.89465.90194.90194,0,0,0-.26039-.63988.84839.84839,0,0,0-.63425-.27649h-8.9a.84839.84839,0,0,0-.63425.27649.90152.90152,0,0,0-.26024.63988v7.3985a.89759.89759,0,0,0,.89449.89449H98.45963a.89322.89322,0,0,0,.63175-1.52609A.95637.95637,0,0,0,98.45963,131.97584Z" fill="#f2edec"/>
          <path d="M119.69217,117.2459l-6.7669,6.76705-6.78847-6.76721a.89465.89465,0,0,0-1.52624.63191v15.18867a.86507.86507,0,0,0,.26289.6316.9063.9063,0,0,0,1.27148.00266.84805.84805,0,0,0,.27665-.63425v-13.0288l5.87209,5.91367a.89016.89016,0,0,0,1.26382-.00031l5.87178-5.91336v13.0288a.89759.89759,0,0,0,.89465.89449.90231.90231,0,0,0,.63988-.26024.8479.8479,0,0,0,.27649-.63425V117.87765a.84782.84782,0,0,0-.27665-.63441A.90659.90659,0,0,0,119.69217,117.2459Z" fill="#f2edec"/>
          <path d="M138.20622,125.60187a4.78836,4.78836,0,0,0-3.39525-1.39449h-4.0692a.84765.84765,0,0,0-.63425.27649.90207.90207,0,0,0-.26039.63988.89813.89813,0,0,0,.89465.89465h4.0692a2.83526,2.83526,0,0,1,1.156.2371,3.0613,3.0613,0,0,1,1.58564,1.58548,2.84071,2.84071,0,0,1,.2371,1.15613,2.91641,2.91641,0,0,1-.23742,1.16785,3.06788,3.06788,0,0,1-.64207.9531,2.93329,2.93329,0,0,1-2.09923.85776H128.8512V118.94626H134.441a2.504,2.504,0,0,1,1.00452.20475,2.68858,2.68858,0,0,1,.83353.566,2.65592,2.65592,0,0,1,.56548.84338,2.57949,2.57949,0,0,1,.20522,1.0164,2.83781,2.83781,0,0,1-.272,1.2049q-.04056.102-.08143.18381l-.00016.00016a.58519.58519,0,0,0-.05986.26508.884.884,0,0,0,.24929.62878.82894.82894,0,0,0,.62347.26571.78894.78894,0,0,0,.445-.13473,1.07873,1.07873,0,0,0,.317-.329,3.84686,3.84686,0,0,0,.58971-2.0847,4.30875,4.30875,0,0,0-.35-1.7149,4.41074,4.41074,0,0,0-2.35478-2.35478,4.309,4.309,0,0,0-1.71505-.34995h-6.50635a.89759.89759,0,0,0-.89465.89449v14.8406a.89786.89786,0,0,0,.89465.89449H134.811a4.80014,4.80014,0,0,0,3.39525-8.18483Z" fill="#f2edec"/>
          <path d="M155.04618,131.99756h-8.72343V117.87765a.848.848,0,0,0-.27649-.63441.90688.90688,0,0,0-1.27148.0025v.00016a.86517.86517,0,0,0-.26289.63175v15.01456a.89759.89759,0,0,0,.89449.89449h9.6398a.89457.89457,0,0,0,0-1.78914Z" fill="#f2edec"/>
          <path d="M168.69954,117.48191a.93511.93511,0,0,0-.312-.35229.832.832,0,0,0-.47921-.14645.85617.85617,0,0,0-.73538.36949l-5.71345,8.03916a.82235.82235,0,0,0-.19053.55892v7.1156a.89465.89465,0,0,0,1.78929,0v-6.84848l5.5831-7.81206a.77435.77435,0,0,0,.16161-.47374A.99824.99824,0,0,0,168.69954,117.48191Z" fill="#f2edec"/>
          <path d="M161.24525,123.05391l-4.06655-5.71924a.79158.79158,0,0,0-.60237-.36167,1.01056,1.01056,0,0,0-.68364.17005.87928.87928,0,0,0-.355.57689.83428.83428,0,0,0,.14583.66083l4.06655,5.71908a.81765.81765,0,0,0,.58565.372.9902.9902,0,0,0,.14145.01032.95237.95237,0,0,0,.53719-.1688.9279.9279,0,0,0,.36511-.58346A.82244.82244,0,0,0,161.24525,123.05391Z" fill="#f2edec"/>
          <path d="M45.1211,117.74761c-.00578-.01235-.01438-.02243-.02063-.03439a.872.872,0,0,0-.0472-.07862c-.01532-.02282-.03095-.0447-.04814-.06564-.018-.022-.0372-.04251-.05736-.06268-.02063-.02063-.04158-.04025-.06393-.05853-.02047-.0168-.04189-.0322-.06424-.04728a.88851.88851,0,0,0-.08018-.04814c-.01172-.00617-.02157-.01446-.0336-.02016s-.02454-.00789-.03657-.013a.86051.86051,0,0,0-.08643-.03063c-.02657-.008-.05283-.015-.07956-.02032a.83489.83489,0,0,0-.08284-.01164c-.02845-.00281-.05674-.00492-.085-.00492-.02735,0-.05439.002-.08174.00469-.02907.00281-.05767.00641-.08612.012-.02579.00516-.05111.012-.07674.01954a.86151.86151,0,0,0-.08909.03157c-.01172.00485-.02391.007-.03548.0125-.01172.00547-.02126.0136-.03267.01954a.88732.88732,0,0,0-.08174.04908c-.022.01485-.04314.03-.06346.04658a.844.844,0,0,0-.06424.05877.82872.82872,0,0,0-.0572.06252c-.01719.02094-.033.0429-.04845.06572a.88016.88016,0,0,0-.047.07854c-.00641.012-.01485.022-.02079.03439l-3.97933,8.44256a.86795.86795,0,1,0,1.57016.74022l3.19378-6.77565,6.46915,13.7462a.86789.86789,0,0,0,1.57048-.73929Z" fill="#f2edec"/>
          <path d="M46.574,128.193H39.23931a.86669.86669,0,0,0-.8451.4939L36.28,133.17229a.86795.86795,0,1,0,1.57016.74022l1.87776-3.98371H46.574a.86792.86792,0,0,0,0-1.73584Z" fill="#f2edec"/>
        </g>
        <g>
          <path d="M154.611,242.16854l1.70313-1.44922c.75977-.6416,1.03711-.99756,1.03711-1.49658a.83077.83077,0,0,0-.89453-.86328,1.35491,1.35491,0,0,0-1.09277.61768.44891.44891,0,0,1-.78418-.29346.48755.48755,0,0,1,.11035-.30078,2.14728,2.14728,0,0,1,1.83789-.89453,1.65976,1.65976,0,0,1,1.8291,1.65527v.01563c0,.87109-.459,1.34619-1.44141,2.146l-1.14062.95068h2.249a.42749.42749,0,1,1,0,.855h-3.14355a.46789.46789,0,0,1-.52246-.45947A.60463.60463,0,0,1,154.611,242.16854Z" fill="#f2edec"/>
          <path d="M160.32781,242.60409a.48239.48239,0,0,1-.19824-.38037.47338.47338,0,0,1,.46777-.4668.42593.42593,0,0,1,.28516.09473,1.85707,1.85707,0,0,0,1.20313.46729.97053.97053,0,0,0,1.07715-.9585v-.01562c0-.57031-.47461-.91846-1.14844-.91846a3.77877,3.77877,0,0,0-.9502.18994.76387.76387,0,0,1-.459-.18994.46263.46263,0,0,1-.19043-.42773l.11914-1.99561a.44593.44593,0,0,1,.44336-.43555H163.488a.43977.43977,0,0,1,.43555.43555.43308.43308,0,0,1-.43555.42773h-2.083l-.08691,1.29883a2.35036,2.35036,0,0,1,.87891-.15869,1.71271,1.71271,0,0,1,1.93262,1.74268v.01563a1.86422,1.86422,0,0,1-2.02734,1.877A2.81061,2.81061,0,0,1,160.32781,242.60409Z" fill="#f2edec"/>
          <path d="M165.83953,240.35507V240.339a2.44992,2.44992,0,1,1,4.83105-.01562v.01563a2.59578,2.59578,0,0,1-2.42383,2.86719A2.56987,2.56987,0,0,1,165.83953,240.35507Zm3.8252,0V240.339c0-1.09277-.5625-1.9873-1.418-1.9873-.85449,0-1.40137.87109-1.40137,1.97168v.01563c0,1.09277.55469,1.98828,1.418,1.98828S169.66472,241.44,169.66472,240.35507Z" fill="#f2edec"/>
          <path d="M172.76043,244.02157a.39188.39188,0,0,1-.26953-.37988.40419.40419,0,0,1,.4043-.39648.37458.37458,0,0,1,.17383.04,2.5559,2.5559,0,0,0,1.2832.33252,1.16875,1.16875,0,0,0,1.32227-1.28271v-.3252a1.75147,1.75147,0,0,1-1.47266.76855,1.87932,1.87932,0,0,1-1.90137-1.95605v-.01562a1.886,1.886,0,0,1,1.90137-1.96436,1.80532,1.80532,0,0,1,1.46484.71289v-.19775a.479.479,0,1,1,.958.00781v2.89063a2.13779,2.13779,0,0,1-.53027,1.57568,2.35515,2.35515,0,0,1-1.71875.562A3.61,3.61,0,0,1,172.76043,244.02157Zm2.92188-3.207v-.01611a1.16768,1.16768,0,0,0-1.22754-1.14795,1.12915,1.12915,0,0,0-1.1875,1.14795v.01611a1.13884,1.13884,0,0,0,1.1875,1.14844A1.16837,1.16837,0,0,0,175.6823,240.81454Z" fill="#f2edec"/>
        </g>
      </g>
    </g>
  </g>
</svg>
