<svg xmlns="http://www.w3.org/2000/svg" width="96.69167" height="94.19016" viewBox="0 0 96.69167 94.19016">
  <title>stamp</title>
  <g id="Layer_2" data-name="Layer 2">
    <g id="Layer_1-2" data-name="Layer 1">
      <g opacity="0.8">
        <path d="M73.07361,69.04367a7.06716,7.06716,0,0,1-.557-.784c-1.23676-2.34734-2.455-4.70445-3.69089-7.05222-.37636-.71494-.814-1.39792-1.18285-2.11645-.95994-1.8701-1.8829-3.75923-2.84825-5.62649-.77257-1.49437-1.60486-2.95791-2.375-4.45347-.65015-1.26256-1.23907-2.55652-1.87495-3.82664-.31793-.635-.69737-1.23913-1.01865-1.87262a6.57336,6.57336,0,0,1-.77054-3.4587,6.255,6.255,0,0,1,3.63124-5.56671,6.51251,6.51251,0,0,1,7.05688.65113,6.22381,6.22381,0,0,1,1.848,2.2223c1.39084,2.66749,2.762,5.34525,4.15907,8.00946.81143,1.54744,1.67133,3.06944,2.48385,4.61631.58633,1.11623,1.11262,2.264,1.69781,3.38084.81044,1.5468,1.65074,3.078,2.47916,4.61531.09219.17108.20745.33163.28322.50933.75014,1.75918,1.70135,3.41523,2.59354,5.10219.98309,1.85886,1.926,3.73892,2.89978,5.60275.62913,1.20418,1.29292,2.39024,1.92178,3.59456.71858,1.37616,1.40447,2.76941,2.12451,4.14479q1.93578,3.69755,3.8992,7.3806a6.63758,6.63758,0,0,1,.78876,2.67525,7.48091,7.48091,0,0,1-.01709,2.128,4.33,4.33,0,0,1-.21061.844A6.79357,6.79357,0,0,1,92.035,93.89172a6.57229,6.57229,0,0,1-7.81852-3.15062c-1.86467-3.40491-3.6859-6.83595-5.4268-10.30542-1.11633-2.22473-2.22582-4.45322-3.4095-6.64155-.66192-1.22371-1.32922-2.44306-1.9283-3.69831C73.3028,69.78344,73.21464,69.442,73.07361,69.04367ZM66.99253,50.877c.058.1459.08766.31736.35465.33087l.28342-.32518-.66718.03163-.14149-.31175c-.23144.05271-.41536.09563-.59977.13628-.15622.03443-.19418.139-.163.34579a1.028,1.028,0,0,0,.41862-.01985C66.64495,50.97811,66.76954,50.80654,66.99253,50.877Zm21.58412,31.0805-.72129.08986c-.09566.36382-.082.63056.2505.79824.34947-.21152.37538-.574.43789-.91871.25633.04382.5006.06281.58492-.32014l-.26712-.193c-.0959.07321-.20192.11431-.233.18733A1.34019,1.34019,0,0,0,88.57665,81.95745ZM70.30909,56.695c-.088.2899-.02854.62959-.291.86365-.01015.009.0409.08671.07217.15014.3238-.04307.45176-.2694.54324-.58419l-.35218-.40489c-.03153-.24883-.04875-.50075-.10136-.74505a1.25024,1.25024,0,0,0-.207-.32639l-.55271.866.20615.38662ZM88.2575,76.88674a.80779.80779,0,0,0,.59927.41232c.04154.00366.08919-.06212.17885-.12944l-.29143-.319-.50934.06617a.96634.96634,0,0,0-.84984-.51809l-.29964.31546c.24578.2142.324.55949.73914.62277Zm-20.16-33.27707c.23473.27027.25565.72346.703.86724a.67165.67165,0,0,0-.08654-.92l-.64252.08542.01818-.43663-1.15288-.53764c-.12253.00742-.34542.01431-.56677.03674-.13628.01381-.23518.08135-.20483.29844a1.64055,1.64055,0,0,1,.49679.1541,2.946,2.946,0,0,1,.44579.46883A1.05989,1.05989,0,0,1,68.09754,43.60967ZM90.79873,87.60875c-.03817-.16941.022-.38637-.26472-.47236a3.77915,3.77915,0,0,0-.32417.2686c-.02881.02879-.00322.112-.00188.235l.41684.054.0794.364a4.37413,4.37413,0,0,0,.56438.37514c.22755.10614.11735.50684.48054.5111a3.62288,3.62288,0,0,1,.07286-.45352,4.01507,4.01507,0,0,1,.18086-.436c-.22985-.27218-.34192-.62882-.7144-.75551Zm-1.19238-3.742a1.27967,1.27967,0,0,1,.6882-.49694l.55018.13875c.20608-.08261.36614-.17992.27025-.43731-.47579-.316-.919.1374-1.39928.07726-.18429-.02308-.405.24473-.70619.4443l.63361.24461-.22583.58184c.19942.28088.51227.44486.537.80844.0164.2409.0088.452-.25927.54876-.92795-.19622-1.10519-.20129-1.40481-.04048a1.08557,1.08557,0,0,0-.36.76978l.78536-.44174c.08656.08973.17781.17239.25421.267a3.29037,3.29037,0,0,1,.18625.28441,2.18958,2.18958,0,0,1,1.13282-.63978,3.57759,3.57759,0,0,0-.37388-2.0903ZM80.84643,77.386a.49.49,0,0,0,.11472.74313,10.50429,10.50429,0,0,0,1.92414-.19358l.26607-.56966.81672.14836c.19906-.10492.31917-.19975.23621-.41634l-.91423-.58113-.81689.45645-.33233.02011c-.22565.24979.01086.62113-.26253.80318C81.506,77.69292,81.38706,77.17238,80.84643,77.386ZM74.19568,47.68281c-.12724-.5074-.64612-.64885-.93487-.95328.01488-.30042.04073-.55169.03144-.80167-.00273-.0737-.10478-.14372-.17358-.231l-.56466.19735-.69653-.13922c-.23979.10441-.49158.15109-.36877.49259l1.17716.251c.1824.30461.45532.4954.566.804l-.24018.21838c-.32206-.05245-.4412-.51078-.85016-.38726l-.099.23333.48274.34139c.22973.26474-.10455.59342.19547.72837.2865-.28483.55018-.55273.8231-.81087.03349-.03166.11641-.01109.1824-.01509l.34585.284C74.1337,47.78941,74.16476,47.73615,74.19568,47.68281Zm-6.00676-6.62905-.53894.101-.33894.34438c-.17518-.03608-.3186-.09181-.25637-.38042l.69355-.53325L67.72609,40.22l-.66809-.50556-.52621.16275a1.37566,1.37566,0,0,1,.11456,1.31651,1.08989,1.08989,0,0,0,.165,1.11794c.616-.29992,1.36331-.29888,1.74791-1.05855l-.07229-.55837ZM74.74173,66.532a.75325.75325,0,0,1,.06-.21056c.03242-.0467.097-.07107.19028-.13425a1.81766,1.81766,0,0,0,1.03511.76052c.18967-.04812.31688-.15588.23752-.44669l-.5202-.49356L74.513,65.72977l.01465-.885-.56385.08392.24825,1.79955c.29043.22456.35814.7235.84247.79185l.12385-.17968ZM69.10411,54.675l.03478.57466a2.7425,2.7425,0,0,0,1.06873-.14594c.09945-.02111.17829-.1393.31525-.25361l-.95139-.54059.0346-.66074c-.27152.06646-.4749.11624-.67792.16574l-.58711-.43688c-.31668.12269-.58933.22347-.59115.61915C68.05294,54.42866,68.63137,54.32789,69.10411,54.675Zm2.17113-5.75337c.30867.32406.52507.71572.84792.84848.4021.16535.40506.78851,1.00595.716a1.644,1.644,0,0,0-.02714-.42472c-.03756-.11565-.16983-.19838-.21779-.31337a2.59611,2.59611,0,0,1-.1039-.44783l-.36291-.14967-.2895-.43827-.53478-.169c-.1257-.1641.00232-.39028-.292-.43989l-.68781.50659c.00762.26014-.34546.466-.07437.826ZM78.794,60.2225c.02945-.00654.07957-.00343.08967-.02205.17776-.32751.35066-.65766.52119-.98079l-.17133-.30364-.60015.08079a1.57446,1.57446,0,0,0-.9512-.49358l-.23853.67174A2.46441,2.46441,0,0,0,78.794,60.2225Zm1.19927,9.22491c.07752.25545.10968.5737.45838.6456.23414-.05107.434-.13486.49342-.39734l-.79479-.66979.00613-.696.68888-.19762.18284-.51535a1.82269,1.82269,0,0,0-.496.01724c-.5825.20416-.88978.74557-1.34045,1.07364C79.27823,69.13755,79.651,69.18388,79.99325,69.44741ZM71.77314,59.37605c-.35741.02706-.31817.407-.4164.362-.59-.28087.03181-.60743-.28849-.83289a.54725.54725,0,0,0-.65815.28609l.29655.7132.55092.329.02581.42647c-.15313.04486-.30495.08457-.45341.13423-.13267.04437-.21356.124-.11711.32886l.7407.03216.37985-.60857-.21974-.59992c.10331-.23213.42093-.21039.33174-.50707Zm6.55735,13.46187a.69007.69007,0,0,0,.43458-.68073,3.394,3.394,0,0,0-.28451-.76286l.16407-1.7703-.65434.681a2.16261,2.16261,0,0,0,.16353,1.2934l-.13642.35718ZM64.81016,39.06135c-.06912-.43009-.54516-.32588-.81783-.74748l-.42147-.55065c.02459-.26035.29687-.37963.09443-.63115l-.7105.043c-.16336.56849.31183.82066.50707,1.15231l.09743.55923A1.47478,1.47478,0,0,0,64.81016,39.06135Zm9.14313,24.37544a3.10473,3.10473,0,0,0,.23975.31475,1.53984,1.53984,0,0,0,.26573.17208,2.8589,2.8589,0,0,0,.858-.6129l-.66113-.36249c.24514-.17008.43648-.30283.62787-.43554l-.04684-.18578c-.1412-.11812-.29463-.0049-.44377-.00392-.14635.001-.29272.0032-.38906.00431Zm1.489,4.60851a8.61527,8.61527,0,0,1,.59745.63745c.0593.07616.02242.22723.03038.35876l-.56584-.0589-.13561.39223c.23383.32149.47139.2677.7878.11154l.49241-.73907-.24622-.64-.9288-.35507Zm-9.219-29.13563.50825-.38172c.28073.00049.46461.41306.84989.13475.02953-.297.07442-.64137.08962-.9871.00323-.07344-.10181-.15165-.20762-.29745l-.40525.57579-1.384.42753ZM80.4634,66.71976c.1377.43267.55662.15383.67419.30029l.24671.69911.35226.00045.12292-.70706.39256.0626c.17035-.24318.01658-.36614-.13346-.49059l-1.08329-.19986ZM74.829,57.99861c.531-.49808,1.0857-.057,1.682.06671l.27359-.45345-.644-.45615a1.35727,1.35727,0,0,1-1.48614-.04561A.739.739,0,0,0,74.829,57.99861Zm7.3544,3.95586c-.51285.007-.52023.58966-.9023.70113-.2224-.09037-.43057-.17613-.64084-.25641-.00892-.00341-.03726.044-.06267.07533-.1469.49662.5166.41852.56405.77587.06971.13157-.14518.3208.15508.44175l.43928-.33531.11383-.65725.51053-.41348Zm6.11633,28.04037.45656-.49986-.23165-1.46424-.2674-.12022c-.25536.109-.56949.12656-.63547.48626l.53662.175C88.142,89.03175,87.8666,89.46745,88.29974,89.99484ZM77.42564,56.329l-.37384.45515a4.841,4.841,0,0,1,.38726.47467,3.17389,3.17389,0,0,1,.20221.46386c.41742-.06662.1047-.5089.43584-.62626l.49.29174.2971-.24487ZM65.646,48.82771a3.39185,3.39185,0,0,0,.64222-1.00433L65.93056,47.45l-.09545-.486-.31641-.003c-.2347.25192-.04013.50942-.05993.75425-.02279.282-.066.56235-.10442.87676ZM76.30581,62.19777c.22364-.22489.45142-.36677.42312-.71069l-.34524-.15186-.68235.16232-.53588-.378-.47.35748C75.3855,61.60627,75.6583,62.17346,76.30581,62.19777ZM93.55606,86.2862a1.19875,1.19875,0,0,0-.69894.9037l.69562.6221C94.11213,87.05816,94.115,86.87379,93.55606,86.2862ZM70.3775,50.29657l-.78537,1.019a10.04036,10.04036,0,0,0,.07887,1.1181c.0409.23672.15236.49671.51007.4551a1.08322,1.08322,0,0,0,.055-.27725.7139.7139,0,0,0-.08429-.36808A1.22628,1.22628,0,0,1,70.02,51.23675l.5775-.624Zm-1.163-11.43369a1.10106,1.10106,0,0,0,.42387-.81876,1.51041,1.51041,0,0,0-1.42.0534C68.27081,38.76081,68.81,38.67867,69.21447,38.86288Zm-5.37426,5.66757a2.76249,2.76249,0,0,0-1.04171-.0025c-.19265.23987-.30939.45639-.08033.71537.43148.17432.71253-.19776,1.074-.302l.24273.498.29364-.5222Zm-1.18631-4.9209c-.59351.28987-.59351.28987-.59729.7624l1.42206.35025.1495-.39034-.58284-.19762ZM85.05041,84.30416c.03439-.45194.03439-.45194-.29237-1.1358l-.89766.77307c.078.4239.078.4239.41619.52718l.26131-.39168ZM75.87829,60.49654c.41343-.24.34466-.61709.47684-.88537l.30381-.23445c.0046-.3372-.14071-.49262-.46673-.45749-.57235.96395-.57235.96395-.57009,1.463ZM73.575,52.548c.35992.24984.57681-.10642.85782-.08852a5.70361,5.70361,0,0,0,.84565-.01153c.06979-.006.13011-.12268.21984-.214l-.37579-.30979-.56592.16175c-.29023-.06457-.22527-.45437-.57024-.397l.0255.42129Zm-1.26313,8.34083c.51077.20913.85026.35726,1.19826.48152.0573.02046.152-.06374.25791-.11276l-.3616-.65445.08686-.48878-.25093-.15337-.28462.57248Zm1.12947-6.6828-.64631.86677c.37359.24978.62039-.25484.93639-.06777.15585.04211.13194.3174.37742.25562l.13612-.24828C74.03324,54.717,73.95368,54.31,73.4414,54.20605Zm-7.13064-9.23294-.56843.25157c-.02649.10691-.04549.1676-.05525.22975a.34095.34095,0,0,0,.01222.09571c.42952.29387.42994.29852.86551.25886.18323-.01668.40452.01341.465-.31833ZM86.97317,89.782c-.353.14849-.558.2308-.75971.32075-.19349.08631-.42772-.192-.63338.11019a1.28043,1.28043,0,0,0,1.51094.30043ZM74.47952,56.30393c.53609-.49556.53609-.49556.59518-1.023a7.382,7.382,0,0,1-.76187.37878c-.24578.09037-.57078-.02834-.78808.29355C73.83335,56.2364,74.20739,56.1618,74.47952,56.30393Zm3.56509,9.54439a1.51807,1.51807,0,0,0-.03963,1.20822c.0977.047.15923.10344.20852.09426a.94014.94014,0,0,0,.23286-.11039l-.19512-.737c.24593-.06423.43082-.10466.60916-.16461.04493-.0151.06885-.09268.13277-.18569C78.69126,65.64679,78.35482,65.84216,78.04461,65.84832Zm3.00152,5.69121.42021.29444c.18133-.47092.588-.75447.54126-1.24342-.38-.3385-.45227-.35951-.66828-.15954l.0724.53709Zm-2.36892-6.94526a1.74576,1.74576,0,0,0,.40976.19564,4.45227,4.45227,0,0,0,.66529.01757c.04662-.00111.09184-.06167.151-.10447l-.18319-.4083.18388-.55779-.2964-.17673a3.15211,3.15211,0,0,1-.30615.50872A6.33213,6.33213,0,0,1,78.67721,64.59427Zm7.16172,8.56707c-.07864.12853-.11029.156-.1093.18235.01291.3474.03033.69462.05024,1.04168,0,0,.05233-.00008.00941.00013l.64349-.57991a.56344.56344,0,0,0-.27235-.69609Zm3.93117,5.59272c-.174.09893-.40052.22062-.61737.35757-.0382.02412-.0361.112-.0524.17057a1.68707,1.68707,0,0,0,1.76583-.45157Zm-9.55756-1.72275c.10382-.49527-.10769-.66406-.52141-.774-.21313.17922-.62279.12364-.7731.55939Zm4.39676-8.24245-.44367.81153.20745.116.34561-.28766c.24579.01164.50054.18765.72613-.08467C85.31366,68.95609,84.97425,68.88574,84.6093,68.78886Zm-.00375,10.7219-.24089.71213.43642.24094.65217-.37887C85.17594,79.85631,85.04155,79.52839,84.60555,79.51075ZM76.81127,65.21811a.68.68,0,0,0-.44028-.64118l-.43889.26774.19828.37719c.02882.19385-.22114.427.12362.58975Zm6.85728,16.76509.41973.58939.31068-.0188.13144-.293-.415-.7564C83.823,81.51149,83.72913,81.65674,83.66856,81.98321ZM73.06991,61.81684l-.65478.52.6081.19384.29776.48689.44652-.1519ZM63.396,42.11958c.10963.07834.231.17252.35983.25494.12206.07808.21223.24892.4934.11617a.74344.74344,0,0,0-.30386-.9033A.6024.6024,0,0,0,63.396,42.11958Zm2.58443,7.34962c.18772.23544.18146.59657.53373.74922.31005-.4029.15227-.77927.06867-1.1494C66.2703,49.0043,66.135,49.16352,65.98046,49.4692Zm8.54539,3.38963c-.60213.49947-.60213.49947-.46479.64577l.648-.28565.85.07644.16421-.35655Zm13.63336,37.477c-.34509.23941-.749.412-.92235.86959l.33889.22163c.1838-.35922.65158-.45415.74692-.89205ZM83.98172,70.96076a1.30387,1.30387,0,0,0,1.10788.43326.49342.49342,0,0,0-.09576-.71512ZM62.86152,43.20149c.1872.29757.09247.70553.46893.88912.32375-.48882.32375-.48882-.0882-1.139a.58914.58914,0,0,0-.17629.03639C63.01479,43.01639,62.98,43.07433,62.86152,43.20149Zm9.89036,1.75183a1.04668,1.04668,0,0,0-1.01734-.13966c-.05024.009-.0894.07981-.17055.15692l.14922.263.93171-.05639Zm-2.5651.80822-.52558-.32191-.32819.46114.4185.69806C70.052,46.44238,70.048,46.12669,70.18678,45.76154Zm-6.36667-2.6746.47619,1.0299.29309-.16657a1.29768,1.29768,0,0,0-.52931-1.06675Zm4.31916,9.869c.40518-.36705.3328-.74216.427-1.02072-.11933-.25859-.21564-.46584-.53274-.41707A3.48436,3.48436,0,0,0,68.13927,52.95592ZM80.84841,78.93253c-.42166.13825-.781-.2721-1.27154-.01778l.65158.52342C80.50048,79.34566,80.77372,79.359,80.84841,78.93253ZM67.75305,48.45914c.231.29169.395.51338.77341.53844a4.02864,4.02864,0,0,0,.22456-.37387c.022-.04586-.016-.12057-.03316-.22045A.74809.74809,0,0,0,67.75305,48.45914Zm2.18817-4.399c.4602-.2218.30809-.59185.36372-.91581-.50719.04343-.72323.17309-.74469.46358ZM82.3645,74.86938l.71393-.26219-.30253-.18c-.17985-.13557.15823-.50985-.31822-.49031l-.40169.57252ZM68.4617,45.92478c.016-.60258-.00747-.62289-.86159-.81249l-.11609.31834ZM71.78155,43.564l-.29528-.30724c-.24617.27491-.605.3235-.78283.62911C71.31128,44.10838,71.38269,44.08743,71.78155,43.564Zm5.47464,10.98592a5.31443,5.31443,0,0,1,.45939.43727c.13666.16886.23932.36493.37067.53865.02718.03594.11591.02535.23705.04714l.015-.54457C78.01214,54.86386,77.80662,54.54148,77.25619,54.54995Zm1.1724,8.7255a.71219.71219,0,0,0-.04989.78617c.03208.08939.16816.14146.29072.237a.8933.8933,0,0,0,.14108-1.00015ZM65.348,44.09875l-.65837.41273.43482.51025.57956-.44181ZM86.28541,77.29088c-.4085-.65986-.4085-.65986-.94133-.90593a1.52925,1.52925,0,0,0,.62454,1.01061Zm-9.794-4.96732c.38264-.02316.66782-.02947.949-.0664.05827-.00766.10158-.129.1564-.20438-.57872-.23288-.9186-.26765-1.09526-.10121ZM87.034,85.8072c-.3116.29785-.58336.55209-.84593.8155-.03313.03323-.01792.11464-.02739.19253l.29243.12415c.25626-.3007.67492-.46387.72981-.92726Zm.66347-13.0678-.015-.14016c-.27766-.02059-.55526-.042-.833-.06063a.27045.27045,0,0,0-.09388.01875c-.03056.00949-.07106.01615-.08688.03847-.04953.06986-.08947.14651-.14786.24553l.39035.19471Zm-12.398-16.88062c.11389.62079.11312.62188.53.69224a.80406.80406,0,0,0-.16674-.87553ZM89.43168,89.95857a.66625.66625,0,0,0-.4931.87122l.463.0134ZM84.99307,72.014c-.13363.24624-.26429.47675-.38194.7137-.0205.0413.01381.10983.03153.21992a.62248.62248,0,0,0,.62279-.29742C85.30324,72.3997,85.31986,72.15465,84.99307,72.014Zm-2.7082.94064c.33765.068.60423.04757.74225-.34478l-.54338-.26593C82.17582,72.47581,82.07365,72.63359,82.28488,72.95464ZM66.36452,39.69222c-.7621.00183-.7621.00183-.94024.47393l.35558.13741c.138-.105.2688-.19079.38168-.29577A1.87433,1.87433,0,0,0,66.36452,39.69222ZM82.571,69.95663l.94873.0874-.03654.60521c.26251-.29977.509-.45921.40522-.8269A1.74882,1.74882,0,0,0,82.571,69.95663ZM78.4085,61.717l-.31858-.36477c-.48953.01784-.49732.02628-.52113.3331l.31784.29717Zm4.94993,9.09263c-.58382-.01728-.60009-.01052-.64937.24569a.86535.86535,0,0,0,.70821.26792Zm5.41943,4.97a.78791.78791,0,0,0-.73609-.21489c-.06414.0168-.106.11866-.16337.1878a.82676.82676,0,0,0,.762.26053Zm-15.37948-22.738c-.29579-.21109-.49021-.3776-.77393-.18179A.74259.74259,0,0,0,73.2873,53.4Zm3.829-.09171-.646-.40194a.4808.4808,0,0,0,.03094.68274A.47493.47493,0,0,0,77.22736,52.94985Zm-6.46966,1.31759c.06069.26764.15422.45017.50282.377l.19524-.42449-.42734-.22584ZM79.07761,73.662l.05589.189.556-.00441.15161-.37548-.26893-.21161ZM62.8198,39.05862c.169-.53707.14428-.716-.13409-.777a.48283.48283,0,0,0-.32417.53485ZM85.42341,83.61184l.5174.74619.19506-.18541C85.97789,83.92336,85.87841,83.62146,85.42341,83.61184Zm-2.30879.04688-.53252.437.41158.312.43116-.51141Zm3.88688-6.094c-.51757.0856-.59642.31723-.6054.63182l.26537.12454ZM73.0429,58.19062l-.26367-.47123-.44465.12811.43529.66557ZM84.26557,77.80411c.318-.01389.63368.00074.83006-.28207-.03947-.07177-.05614-.14129-.09982-.1706-.04523-.03037-.11662-.02176-.22468-.037Zm-7.26078-10.5646c.24171.02945.409.09183.47022-.1821l-.47386-.50347-.19165.15519c-.00313.06253-.02758.13445-.005.18569A3.39572,3.39572,0,0,0,77.00479,67.23952Zm4.02665,5.2108c-.03475-.03871-.06269-.08649-.07642-.08271-.35709.09843-.40823.42731-.56062.66947a1.46131,1.46131,0,0,0,.16.1651c.0168.01229.05989-.01132.14435-.031ZM68.15676,42.71943l.58443-.3866c-.34919-.17475-.60194-.19663-.86783.07819ZM87.54632,73.96087c.13423-.1984.26774-.4.40583-.59831a.20552.20552,0,0,0-.04561-.32281,1.12845,1.12845,0,0,0-.55133.81686Zm-.73945,6.02984c-.26625.18725-.26625.18725-.30326.48058.204-.04847.449.07877.52881-.267ZM79.96622,60.91829c.2266.33324.40287.35919.63136.11579l-.28167-.3974Zm4.48216,12.71012c-.09075.20069-.15.36389.09338.47871.2245-.02815.34416-.13533.28079-.409ZM82.895,63.86366c-.09811-.19158-.21929-.31772-.4934-.11982l.04292.38968C82.75214,64.2181,82.8469,64.07469,82.895,63.86366ZM81.4274,75.3357l.42653-.26893c-.17295-.21689-.29191-.39978-.54828-.104ZM80.40266,63.37308c.18406.53476.18406.53476.46073.2341Zm8.572,28.24115-.39875-.31047-.13038.28278c.096.14265.147.31056.35242.25759Zm-9.28648-29.93c-.41933-.10847-.41948-.10759-.63323.249C79.43441,62.03351,79.43441,62.03351,79.68815,61.68425ZM81.595,68.36814c.18689.39948.42637.34164.723.22283l-.17136-.29852Zm-5.4016-17.631a.38845.38845,0,0,0-.12218.626C76.43269,51.10356,76.43179,51.103,76.1934,50.73711Zm-.66086-.79954-.35289-.49526-.24413.5314Zm-8.25163,3.10822.25933-.204c-.37629-.45818-.47123-.49292-.64258-.21633ZM88.10114,78.77922c-.14651.41026-.14355.41.20708.63323C88.46339,79.01112,88.46307,79.01056,88.10114,78.77922Zm3.008,3.19632-.1618-.05929-.24026.35505c.08973.16861.142.32049.40175.19389Zm-6.26-5.7992c-.04907-.19821-.17673-.252-.38665-.1986l-.09149.25978C84.56215,76.31321,84.72422,76.455,84.84915,76.17633Zm-11.122-17.076-.54759.03314c.11153.344.28779.33152.50082.20431Zm-.45527,6.44886-.24143.35146.41076.25946.14018-.31992Zm9.51731,1.97293c-.18725.29606-.11877.44189.21838.504C83.02968,67.835,83.10685,67.65725,82.78917,67.52208Zm2.88326,17.876-.11662.34543c.18943.11351.35576.194.47844-.119Zm-2.23158-4.75455c.07061.20116.03435.42108.32564.36212.10064-.1929.10487-.35158-.1339-.43179Zm9.31475,9.7782-.4805.38057a.54725.54725,0,0,0,.69331-.14894ZM74.15242,56.65014c-.39265-.1617-.51656-.1159-.47236.17147l.30071.09039ZM89.464,88.43733l-.27209.4477.37721.26454.20388-.19716Zm-8.06773-23.824c-.01494-.31313-.20235-.32077-.3951-.28428-.14249.027-.19484.13072-.12413.3157ZM76.62741,53.95523c-.274-.34223-.274-.34223-.55222-.15417C76.222,53.98051,76.37555,54.13515,76.62741,53.95523Zm9.21588,25.3545.23461-.31079-.1488-.12656c-.22487.01357-.35033.07588-.35469.2908Z" fill="#fff"/>
        <path d="M41.97065,75.37034c-.53911.06063-.88909.11742-1.24108.13563-.58162.03008-1.16473.05348-1.74685.04718-1.25763-.01363-2.51594-.08786-3.77213-.05846-.73524.01721-1.47334-.00132-2.2054-.00251-.77444-.00126-1.54818.03117-2.32226.03327-1.35669.00368-2.71543.04547-4.06943-.01535-1.10119-.04946-2.19654.02781-3.29434.01476-.58017-.0069-1.15991-.05422-1.74006-.05975-.35273-.00336-.70591.03816-1.09683.06182-.51092.94856-1.03635,1.87522-1.51688,2.82462-2.076,4.10171-4.30628,8.12155-6.46375,12.17989a6.5878,6.5878,0,0,1-5.81157,3.614,5.69065,5.69065,0,0,1-2.72629-.58083A6.79208,6.79208,0,0,1,.25643,89.42189,6.62664,6.62664,0,0,1,.0313,86.82634a7.24015,7.24015,0,0,1,.89816-2.94948c1.21572-2.24967,2.41423-4.50863,3.6283-6.75919,1.39783-2.59118,2.81109-5.174,4.20387-7.76791.36682-.68314.67331-1.39841,1.02484-2.09011.35123-.69111.68016-1.39939,1.09672-2.05031a6.34469,6.34469,0,0,1,3.85323-2.76061,5.5543,5.5543,0,0,1,2.39229-.21619,6.24585,6.24585,0,0,0,1.35623-.058,17.03021,17.03021,0,0,1,3.00291-.00162,6.56758,6.56758,0,0,0,.77631-.02746c1.3891-.002,2.77844-.01359,4.16725.00731,1.09589.01649,2.19095.08286,3.28679.11062.3553.009.712-.03259,1.06791-.05364a13.13165,13.13165,0,0,1,2.61.03038,11.2217,11.2217,0,0,0,1.25824-.03885c1.22746.0285,2.45708-.00693,3.68116.02982,1.2644.038,2.52176-.13117,3.77926-.04878,1.32859.08706,2.64918-.01435,3.97392-.04532a8.244,8.244,0,0,1,4.16491,1.10508,6.05946,6.05946,0,0,1,2.69759,3.19378,2.24559,2.24559,0,0,1,.17663.55193,9.3929,9.3929,0,0,1,.00789,3.66784,6.17211,6.17211,0,0,1-4.353,4.55448A9.813,9.813,0,0,1,45.418,75.526c-.84158-.03168-1.67908-.00018-2.51781-.00156A1.72859,1.72859,0,0,1,41.97065,75.37034ZM3.96325,88.2532l-.77658-.02268-.151.38569c.56546.50684.56546.50684,1.082.23734l-.18461-.6223.99061-.06-.10327-.49494a1.71078,1.71078,0,0,0-1.0788.14575Zm8.73361-10.11555.05934.36029.511.109.17949-.561-.77714.12226a1.42615,1.42615,0,0,1,.66241-.76949c.2-.09422.41485.28564.6052-.04283-.08223-.26469-.148-.54825-.5509-.61256l-.66983.45294-.25611.74221Zm1.574-3.54169-.36661-1.02037c-.45437-.38555-.89629-.76054-1.33779-1.13556l-.1648-.42013-.39346-.20907a2.69512,2.69512,0,0,0-.17571-.41684c-.08648-.141-.21282-.24859-.38321-.08759l.14891,1.21709c.0806.13388.27612.18487.25845.4068l-.18792.14763-.52211-.35155-.441.31673c.167.41634.50313.52835.79063.69025.21376-.19395.39618-.31974.64738-.07563l-.27217.48145.16559.1574.75453-.47786A2.82527,2.82527,0,0,0,14.27082,74.596ZM4.775,82.26982l.075.62927c.1784.22358.46621.10121.49153.30728-.1605.32434-.3193.59538-.42754.88529-.05295.14181-.01776.32207.26912.379.20134-.23807.42071-.504.64975-.76133.03507-.03941.1148-.03908.175-.05746l.49841.32753c.29-.004.51435-.013.665-.30484l-.43193-.38663-.0467-.77159c-.53748-.168-.9293-.60676-1.54005-.60333ZM20.79367,66.2227l.46633-.55925-.42613-.40426-1.02042-.04885L18.58013,64.327l-.29266.45167a4.00169,4.00169,0,0,1,.39192.40252,3.75768,3.75768,0,0,1,.25846.46016l.57921.16049a1.58789,1.58789,0,0,0-.01789.78963l.64692-.33243c.20045-.212.09477-.44982.27953-.56308Zm21.8842.961c-.0422.53048.14869.96516-.16058,1.325l-.4788.16113c.143.25908.25633.47683.38424.68565.02494.04072.10645.04679.20037.08416l.45632-.41753-.08826-.46626.75434-.92787.11024-.62132.49095-.17806c.11706-.17627.24493-.33934-.01966-.53471C43.74265,66.49188,43.34534,67.071,42.67787,67.18367ZM19.192,70.36442a1.21826,1.21826,0,0,1,1.44493-.37062c.33562-.20471.35494-.41687.22563-.64142-.50108-.21526-.83862.1487-1.2237.22248l-.68649-.21479-1.043.28732a.48528.48528,0,0,0,.1482.68294c.06253.05449.1724.05468.254.07786l.32626-.39542Zm6.4917,1.50756-.424-.67808a.86871.86871,0,0,0-.86749.41891.9783.9783,0,0,0-.28347.87263c.01844.07809.11731.13717.18961.21647l.48632-.25564.5.2698c.26207-.16075.50132-.30319.73426-.45531.03323-.02169.03579-.09033.06454-.17083Zm-.05974-3.87089-.39014.73363.26541.57975.67763-.00948c.04418.185.07154.33972.122.48649.0152.04416.09481.06617.19263.129l.38907-.45689-.28552-.369c.04868-.14414.10341-.29235.14855-.44342.054-.18063.09979-.36371.15477-.56655l-.3146-.311a1.596,1.596,0,0,0-.5207.95323c-.00326.01243-.056.01193-.08575.0176l-.15982-.08727C25.75372,68.46169,26.03295,68.21629,25.62391,68.00108Zm1.63826,2.76735,1.39592-.23971c.34751.25694.61983.48724.92082.67045a.41708.41708,0,0,0,.61739-.1061,1.57234,1.57234,0,0,0-.5728-.99357c-.6072.18046-1.27881-.1672-1.80435.24881-.30438-.04613-.54716-.25845-.8024.05374ZM12.46571,81.44071c-.29982-.149-.35809-.62-.7643-.63747a.80128.80128,0,0,0-.1151.82788,4.33506,4.33506,0,0,1,.66291.08957,6.67368,6.67368,0,0,1,.72922.305,3.33426,3.33426,0,0,1,.26411-.54207,3.12973,3.12973,0,0,1,.41982-.3957l-.1029-.418-.54833.18061-.44956-.32574-.26849.25158.30058.46909ZM8.46783,78.098c-.84554-.081-1.4241-.70368-2.26321-.56335.07927.33583.14861.63552.2233.93388.00549.02194.0496.03422.10546.07l.40364-.11413c.52564-.04128.496.5887.953.54576l.0354-.45686Zm15.5526-10.97781c-.25379.01536-.44319.02463-.6322.039-.14818.01124-.23688.07432-.17787.27719a2.38464,2.38464,0,0,0,.92705.22276.74959.74959,0,0,0,.4996-.72585c.0184-.19057-.04142-.38843-.02514-.57954a6.79637,6.79637,0,0,1,.149-.73284l-.68677.25925.15374.45423-.336.29336ZM11.13131,83.0012l.65056.63376,1.8294-.016.0851-.18192c-.01774-.02684-.02927-.06661-.05415-.07856-.30992-.14881-.62179-.29358-.88631-.41745-.20315.05119-.2293.30913-.44419.21877l-.14457-.463ZM45.1235,71.82674c.811.11969,1.22285-.4222,1.75936-.60782.01916-.30284.16918-.561-.10075-.80171l-.54106.10133-.39144.63231-.684.24447ZM35.83032,65.971c.26254-.23158.26254-.23158.37857-.80679l-.21013-.18606a4.98184,4.98184,0,0,1-.66385.09759,5.9877,5.9877,0,0,1-.683-.07372c-.22873.25364-.46483.50858-.2.95444l1.09749-.273ZM4.34113,86.61738l-.04863-.80359-.47018-.364.26594-.62807a1.37582,1.37582,0,0,0-1.06-.24921L3.32127,85.6a3.26923,3.26923,0,0,1,.46159.31838A8.1323,8.1323,0,0,1,4.34113,86.61738ZM33.12007,70.12224l-.69164-.00139-.32768-.53684-.74728.04523-.19905.30388.62663.11847.33871.52626,1.31458.20892C33.49325,70.47423,33.30522,70.33582,33.12007,70.12224Zm11.23339-1.766-.0959.29049a2.2222,2.2222,0,0,0,1.02224.58c.11408.22259.16752.45983.49934.49318l.60429-.71572-.38706-.296L45.523,68.927ZM15.32454,75.38258c.08657.06452.16127.1679.23719.16879a1.78975,1.78975,0,0,1,1.07095.36523c.07229.05295.226-.00527.32024-.011L16.8871,74.818a5.58482,5.58482,0,0,1-.68943.21606,6.0457,6.0457,0,0,1-.74192.0517Zm1.02136-7.58887c-.09062.17658-.15325.24023-.14213.28592q.1785.73381.38268,1.46117c.01183.04208.10181.0622.1873.11048.19715-.38155.40078-.76312.58984-1.15178a.5927.5927,0,0,0,.03172-.2827c-.00793-.13135-.04917-.24905-.2231-.22054l-.35926.4425Zm-.10411-1.43314c-.17793-.32024-.289-.58535-.58486-.6782-.42086.63377-.62122,1.33435-.43009,1.57011l.355-.02149ZM11.058,87.85687c-.16067-.43192-.289-.78937-.4302-1.14167-.01891-.04715-.10268-.0683-.21927-.14033l-.709.24455a5.73278,5.73278,0,0,0-.08939.65335c-.00216.0648.10908.13336.18441.21824l.34631-.429.28438.01738C10.655,87.44741,10.4717,87.92864,11.058,87.85687ZM28.10263,69.12019l-.144-.62237.811-.04908-.51067-.8072-.70476.13864a3.67374,3.67374,0,0,0,.03076.80814C27.64341,68.80421,27.70922,69.08762,28.10263,69.12019ZM26.99143,70.978l-.63149.325-.61408-.189.03033.50121.89763.13365c.14352.06575.22022.30929.52364.20916l.27048-.66191Zm6.98573-2.46143-.214.87049,1.5976.48962.1521-.4499-.81421-.03941C34.48,69.10933,34.41206,68.68546,33.97716,68.5166Zm.87867.38155c.26179.00376.366.03679.43308.00077a1.48594,1.48594,0,0,0,.62382-.75583l-.10944-.53573-.32178-.13537C34.94288,67.8121,35.19649,68.38677,34.85583,68.89814ZM6.17994,87.62413,5.8766,86.82c-.16306-.06425-.2753-.2246-.48107-.06649l.10139.37972-.2347.54088.51841.49433Zm6.47-3.22228-.62415.57522a.98522.98522,0,0,0-.70336.0253,2.4778,2.4778,0,0,0,.84945.63l.47212-.1313C12.70151,85.15973,12.88288,84.85428,12.64994,84.40185ZM40.16963,69.41167c-.23068-.4869-.62076-.52564-.96341-.68591-.15009.63921-.12567.78716.24129,1.03009a2.00106,2.00106,0,0,0,.55126.15527Zm8.29575-.65357.1947,1.02092c.44647.17936.44647.17936.81571-.20532-.44327-.16812-.17157-.76026-.68951-.97916ZM21.68462,72.69852l.92514.59617a1.58041,1.58041,0,0,0,.29509-.07586c.04663-.02208.0696-.09413.1299-.183a1.27754,1.27754,0,0,0-1.13385-.67262ZM47.647,66.70471a1.55777,1.55777,0,0,0,.94318-.83983,5.36447,5.36447,0,0,1-.64064.03361,6.92536,6.92536,0,0,1-.68224-.12146A1.4685,1.4685,0,0,0,47.647,66.70471ZM19.67019,73.441l.912-.0552.50359-.50022c.02816-.37273.03034-.56213-.25174-.64939l-.2427.42156C20.31846,72.97358,19.84755,72.97521,19.67019,73.441ZM49.599,67.29821l-.14381.56285c.18041.24454.34774.47369.51912.69979.016.02111.05751.02287.12335.04672.38432-.34452.281-.71316.05089-1.11556ZM5.34753,79.72254c-.05571.2504-.08585.39067-.1183.53042-.03945.16987-.08083.3393-.13065.54768.45725.1719.75759-.0733,1.17346-.1923ZM38.595,73.559c.33489-.315.21616-.73277.3886-1.10739l-.848-.34069C38.4161,72.66514,38.16746,73.17868,38.595,73.559Zm-16.999-6.40725.58528.69884L22.491,67.75a.68238.68238,0,0,1,.11555-.71815c.02374-.04-.01-.11415-.0195-.19061l-.24426-.16078Zm26.22111.20665a.861.861,0,0,0-.71635.0658c-.204.09529-.42936.16408-.48539.4876l.26473.57548.15634-.39754C47.30063,67.82839,47.74295,67.807,47.81706,67.35844ZM8.43086,84.99673c-.16745-.10179-.37531-.23449-.591-.35291-.035-.01922-.10474.02482-.174.0439l-.01984.30055.99726.63041c.36595-.42065.39677-.54153.19792-.75136ZM49.53033,72.092c-.08872-.30073-.14921-.55531-.54563-.55526l-.39387.76346.5493.31643ZM22.04938,70.15954c.36032-.37686.8145-.59513,1.046-1.043l-.24294-.17746a4.67835,4.67835,0,0,1-.5078.35924c-.21537.11589-.502.12838-.56806.50845Zm17.26789.33549a.90965.90965,0,0,0,.53643.85333.76189.76189,0,0,0,.35266-.81186Zm.93775-3.72342c-.32589-.1526-.54294-.272-.77331-.35384a1.58621,1.58621,0,0,0-.4649.02121c.33933.29433.26114.7346.7025.8848Zm-12.0865,5.54016-.181-.15954c-.27409.12154-.55027.23875-.82037.3686-.04878.02345-.07261.09881-.15475.2182.259.174.43562.46683.89057.53l-.11179-.71826Zm-9.51073-1.739-.51195.7428.28226.14222.244-.30911.548.12741.22482-.306Zm.876,3.11879-1.19642.07241c-.17423.14658-.369.284-.10813.548.19794-.06425.39909-.14362.6073-.19341.23732-.05674.51741.04133.71016-.21373Zm-5.192,8.23693c.06691-.36529.17383-.62876-.1727-.75019-.39669.27826-.39669.27826-.62559.83445ZM13.87483,72.436c.22808-.74771.22808-.74771-.02593-1.12393-.255.09079-.10816.33337-.18587.48814-.09368.18658-.20863.36248-.36.62083ZM9.03789,75.45347,8.0111,74.47984a1.29219,1.29219,0,0,0,.00968.3729c.13273.28375.28007.56093.43079.83572.02287.04171.092.05806.17066.10437Zm24.44547-2.39853a1.85972,1.85972,0,0,0,.10869.30617c.02851.04911.09805.07441.16033.11824l.4751-.68131.50175-.03037A.79847.79847,0,0,0,33.959,72.587ZM28.14548,65.5673a.73967.73967,0,0,0-.75058.56056l.17353.16185c.43525-.01583.68448-.09577.736-.46989ZM8.17478,83.12368c.2723-.24841.43253-.47093.18016-.77436-.516.09454-.516.09454-.58875.7055Zm7.26546-13.14453c.30534.29694.53512.42778.855.30622l.09463-.2407a1.02106,1.02106,0,0,0-.62146-.42028Zm16.41887,2.50951-.7193-.95827-.24076.21751.56541.89506.261.05605Zm6.04111-4.55232c-.38038.07605-.479.29074-.40492.66251l.50111.33809A1.54449,1.54449,0,0,0,37.90022,67.93634ZM13.16076,69.20774c-.24141.13852-.51467.02446-.52306.38191.13653.12682.26891.26152.41389.38093.12476.10276.23356.26489.4675.22024Zm-1.99421,9.40884c.39682-.17622.48445-.57775.76653-.91165l-.377-.18347A1.42165,1.42165,0,0,0,11.16655,78.61659ZM48.84892,70.934a.87908.87908,0,0,0-.93078.16419l.16611.37393C48.53594,71.34721,48.53594,71.34721,48.84892,70.934ZM9.52886,79.85954a.93659.93659,0,0,0,.63511-.695l-.26617-.08278-.82359.553Zm34.55987-8.36742c.14212-.12836.25458-.22582.36224-.32835.10271-.09783.20039-.201.33892-.34072l-.47206-.278-.48067.63243ZM17.272,72.52607l-.19783-.99849-.38307-.03145c.04.19789.08475.3701.1074.54518.02313.17881.02454.36044.03744.57359Zm-1.935,5.7562a3.58233,3.58233,0,0,0-.04549.44612c.00529.15665.03722.31239.0571.46424.36683-.00356.34179-.29241.4219-.48222a.38931.38931,0,0,0-.11461-.53159ZM8.41484,86.75082c-.79652-.074-.79652-.074-1.09094.493l.17382.12237Zm6.97039-18.04038c.02371.26613.0654.44624.30821.4783.41445-.44236.41854-.487.0403-.93525ZM9.8689,84.28492l-.11925.61179.467.20719.39277-.37795ZM7.57447,86.0911l.28569-.35981-.765-.432.121.7132Zm1.60283,2.81009.21847-.22724-.30716-.91432C8.75221,88.20208,8.75221,88.20208,9.17731,88.90119Zm23.6205-24.62946c-.2787.169-.53361.23239-.62924.49974.50179.1441.50179.1441.82229-.25126Zm-1.54528.93236c.27952.11786.41518.44235.77492.47764l.10637-.28219c-.147-.34253-.43175-.38038-.71539-.41347Zm-.19906,1.06109c.2306.319.40133.4287.65719.31662.14047-.17179.16691-.33493-.0871-.514Zm4.30592,5.1087-.16289.84959.50314.26867C35.82452,72.00451,35.4802,71.728,35.35939,71.37389ZM44.88161,73.234a.62739.62739,0,0,0-.05717-.69155c-.21476-.037-.3829.00078-.42643.24946C44.49044,72.996,44.55771,73.22227,44.88161,73.234Zm-2.72124-3.06237c-.38177-.62365-.473-.70537-.71008-.5607l.1378.45058C41.80485,70.17247,41.9697,70.25052,42.16037,70.17159Zm-26.63916.73513-.33922.4121c.25275.28031.47056.3143.704.09178.01856-.01769.01271-.061.02893-.15378Zm4.9821-.28573.23017.20865c.36528-.006.54428-.03937.59846-.3138l-.26729-.2678ZM22.386,71.97474l.02144.21035.60931.07542.42254-.52457C22.99171,71.66233,22.72973,71.96732,22.386,71.97474Zm-6.48177,1.59263c.00436-.36521-.22486-.44438-.502-.414-.08748.00958-.16176.13971-.2426.21513C15.3957,73.65685,15.60386,73.82536,15.90428,73.56737Zm17.30359-6.64675.51036.42012.17407-.32669c-.11923-.25193-.23525-.42913-.52422-.36522ZM33.97455,65.13c.26754-.268.43244-.50065.19976-.84144-.40813.46238-.4558.54537-.40769.69539Zm-7.00907,1.7202c-.07715-.26218-.07715-.26218-.43547-.39938l-.333.27183C26.44379,67.05268,26.702,66.95848,26.96548,66.85024Zm9.66486,5.20651c.45468.338.45468.338.80039.07067C37.04,71.77967,37.03951,71.78012,36.63033,72.05675ZM19.64151,67.30569a.97245.97245,0,0,0,.36.84469C20.16781,67.7218,19.92188,67.50469,19.64151,67.30569Zm11.029,1.0164c.11116-.31477.18641-.51632.25294-.72069.03838-.11785-.08528-.22741-.24972-.19482l-.21721.70129ZM43.62912,65.098c.19817-.0498.39678-.06953.40107-.32644-.18036-.22537-.37-.20335-.55433-.00878-.034.03588-.0287.109-.04533.18153ZM22.99439,70.62623l-.5186-.27408-.22125.3C22.47481,70.88283,22.66733,70.96508,22.99439,70.62623ZM47.14747,72.87c.11284-.60781.113-.64735-.12734-.81915-.13756-.09833-.29213-.11055-.40382.13351Zm-34.7977,3.91012c-.44554-.41383-.53-.45138-.684-.29006a.59228.59228,0,0,0,.51646.46985Zm7.77083-5.19063c-.27-.09258-.38226.00311-.403.2923l.30308.35154A.393.393,0,0,0,20.1206,71.58945ZM8.37254,83.95546c.07323.27952.18764.44365.50937.37871l.06589-.32353C8.75906,83.86984,8.61026,83.76637,8.37254,83.95546Zm32.99933-16.262-.33394.39316.40165.29067.30885-.32156Zm3.53738,1.96922-.58765-.22636-.17552.26029C44.50447,69.97237,44.50447,69.97237,44.90925,69.66266ZM10.04167,76.69094c-.32321-.2063-.51728-.13748-.67232.18094l.22187.294Zm8.23765-9.28952c-.35756-.118-.596.01136-.52856.3517l.32867.08931c.083-.08688.14446-.12372.1616-.17528A1.39551,1.39551,0,0,0,18.27933,67.40142ZM29.842,72.48312c-.44185-.01572-.47062-.00188-.46947.27022l.44914.22451C29.96584,72.7191,29.96584,72.7191,29.842,72.48312Zm16.05328-7.20581c-.2483-.23157-.43688-.09009-.64239.1083l.108.235C45.6156,65.62005,45.82548,65.58388,45.89532,65.27731Zm-7.35248-.07.38421-.26619-.22632-.26741c-.22068.08817-.41153.14119-.39473.3873Zm-9.227,8.91922c.40046-.18341.43854-.2331.34915-.43114-.1594-.13615-.28109-.06026-.41978.10627ZM43.231,63.97361c-.45389-.14147-.53437-.12431-.57873.095.02437.25252.196.29371.46925.27834ZM7.80381,81.33457l.57235-.03464c-.01333-.35481-.17659-.49144-.53011-.50152ZM36.512,69.93754c.02614-.1232.04481-.2486.08044-.369.03819-.12911.09231-.25351.13948-.38C36.4919,69.38748,36.17849,69.55579,36.512,69.93754Zm-20.99672,2.5636c.20459-.13055.41063-.17019.42023-.42839l-.21029-.15566-.39254.37042ZM6.95636,79.0044l-.69555.42773.56167.27117Zm.60445-2.49176-.43477-.364-.22077.45292.30676.14516ZM47.26712,64.879c-.461.15576-.46623.153-.58142.43457-.01014.02481.05829.08175.11209.15256ZM11.062,81.75812c-.00332-.42929-.07028-.616-.34324-.68723l-.164.23947Zm-1.86257-7.076.15866.13853.54179-.27774-.52147-.27047ZM32.7034,71.94669l.44512.2762.188-.29666-.3906-.23229Zm16.95208-5.49038c.24708-.11923.33772-.22307.175-.39508-.17869-.07833-.314-.06069-.37576.17395ZM38.134,69.55385c-.22346.12442-.32137.23193-.27231.43859l.23759.13716.23643-.28631ZM9.1777,77.40807l-.2816.0989c.09593.19728.01762.48514.3822.41741C9.41721,77.72624,9.361,77.565,9.1777,77.40807Zm3.58958-11.31895.0691.5843.39081-.09151.04326-.25835Zm-5.631,15.79817c-.01395.48823.02642.5162.47556.344Zm2.131-1.6316c-.21966-.17382-.37239-.19935-.45634.09769l.23381.18488Zm31.08686-7.27721-.07128.21956c.19471.21243.36842.23778.54334.0262C40.7524,72.978,40.58071,72.94536,40.35411,72.97848ZM5.94255,85.02933c.16787.16084.30244.20956.43068.051a.16844.16844,0,0,0-.02389-.15892C6.21039,84.777,6.08433,84.81348,5.94255,85.02933ZM42.33042,66.4665c-.18654-.2369-.31644-.27023-.41354-.00531C42.02938,66.63746,42.15136,66.64586,42.33042,66.4665Zm-14.34765.38969c-.32018-.15476-.32018-.15476-.52232.11794C27.80392,67.13258,27.80392,67.13258,27.98278,66.85619Zm-2.52192-.40773a1.12593,1.12593,0,0,0-.19185.35333c-.01773.14673.10664.19128.24777.14834C25.65414,66.79608,25.7092,66.6427,25.46085,66.44845Zm24.143-1.29082c-.02573.18339.10543.2245.23073.21936.13209-.00542.24213-.07322.18-.24677A.25451.25451,0,0,0,49.60385,65.15763ZM17.87341,75.65656l.092-.40308-.25835-.11738C17.54519,75.32217,17.54122,75.47209,17.87341,75.65656ZM6.137,91.38253c.17952-.16349.3054-.27143.15947-.45166-.20195-.09964-.28386.03273-.36394.2032Z" fill="#fff"/>
        <path d="M55.46834,6.34943c-.01707.17725-.05768.43324-.0637.69a7.06881,7.06881,0,0,1-.8751,3.14793c-1.18671,2.2642-2.35788,4.53654-3.53926,6.80354-.92727,1.77934-1.86269,3.55443-2.79029,5.3336-.95764,1.83675-1.92168,3.67031-2.8625,5.51566-1.64507,3.22664-3.26218,6.46756-4.91658,9.68937-.66494,1.295-1.36379,2.57524-2.108,3.826a6.36757,6.36757,0,0,1-3.67441,2.85206,6.46381,6.46381,0,0,1-5.97141-1.04132,6.33624,6.33624,0,0,1-2.61844-5.26049,6.9649,6.9649,0,0,1,.99393-3.6946c.89909-1.61,1.72309-3.26211,2.57387-4.899q1.36579-2.62772,2.71921-5.26184c.26537-.51792.48171-1.06119.75229-1.57614.54167-1.03084,1.11241-2.04636,1.65831-3.075,1.07666-2.02877,2.1593-4.05458,3.21263-6.09546,1.54339-2.99044,3.06311-5.99308,4.59326-8.99035.1031-.202.21371-.4002.313-.604A6.77536,6.77536,0,0,1,45.81883.71666,5.82076,5.82076,0,0,1,49.17595.02177a6.98025,6.98025,0,0,1,3.7487,1.43235A7.2509,7.2509,0,0,1,55.18,4.55924a2.92915,2.92915,0,0,1,.11123.66659C55.34109,5.54335,55.39132,5.86079,55.46834,6.34943ZM34.50755,29.84589c-.34321-.03043-.02706-.50649-.41083-.54654a1.0527,1.0527,0,0,0-.51155.76043c.30271-.02374.54744.166.83709.04812l.05943-.28577,1.2345.135.15183-.4054c.12422.028.24745.063.37313.08071a.50311.50311,0,0,0,.1659-.03565c.16943-.30015-.21853-.44033-.19833-.71039l.08085-.42418c-.08128-.18662-.35245-.2369-.27678-.48235.26129-.44785.82122-.3344,1.22389-.68026l.36306-.69435c.13913-.16291.47746-.0254.52131-.39532l-.87118-.813c-.3434.34627-.11.73376-.2443,1.13832l-.35766.576-.47136.02853-.84114.93589-.28825.841.76229.4071.09045.25869-1.1543-.06957Zm3.39066.7844c.15329-.08569.41687-.02776.41461-.3052l-.33246-.35489c.40479-.26585.712-.52957.72382-1.01116l-.241-.08825-.18058.326-.8383.17028-.56141.72955a1.40638,1.40638,0,0,0-1.2059.69467l1.15142-.4086.03359-.30541.67948.001.3861.58a.73931.73931,0,0,0-.781.11748c-.09935.37242.11434.53075.40561.63864l-.41261.60452.6695,1.10827.337-.11934-.084-.68439.79357-.28289c.39081-.55538.39081-.55538.33416-.70853a.62955.62955,0,0,0-.71606-.32778c-.35374.08987-.532.52443-.95162.43743.06571-.10129.10991-.23331.20161-.29751C37.9193,31.00728,37.89178,30.81823,37.89821,30.63029Zm-7.30791,9.91763c.26241-.54029-.20022-.93957-.10486-1.33064.20676-.33407.628-.27776.85459-.67173-.46409.0456-.8318.08526-1.20042.11242-.036.00265-.07763-.0716-.12437-.11778l.27224-.45368a.77978.77978,0,0,0-.69971-.50257.37293.37293,0,0,0-.43938.32416l.47667.889-.12.5002.24247.463c-.09884.19058-.40206.21133-.25622.52358.20214-.00041.42308-.00086.64407-.00119Zm8.93205-25.33163a1.50764,1.50764,0,0,0,.48294.85353l.536-.24577c.12417.13753.24291.28055.37413.411a.33125.33125,0,0,0,.47239.04819l.21565-.95738c-.301-.17268-.57171-.33455-.84859-.485a.88336.88336,0,0,0-1.03655-.01013ZM47.81356,6.855c-.39511.07586-.67318.12176-.94758.18391a5.62516,5.62516,0,0,0-.92892.24484c-.27923.11657-.5336-.27465-.80711-.00713l.72982.75175,1.21355-.14023.402-.62221c.06061.07605.08306.09967.10034.12662.1908.29774-.21121.53038-.08032.84781l.23966.15347.35288-.47678Zm.61772,7.708-.3568-.72291-.63813.53484.03156.52141.51049.36162c.00273.2019-.1354.3675.102.47775l.27109-.11467c.045-.20673.07823-.42558.14544-.63343.0253-.07822.12945-.13094.20169-.19909a2.37978,2.37978,0,0,0,.27288.09638c.11779.0265.23925.03669.33623.05061a.50144.50144,0,0,0,.10922-.73822l-.50721-.0547Zm.19145-2.67159c-.25884.37594-.45624.58936-.84308.57649l-.50691-.23-.69226.1562-.33066.6674.37654.15331.45445-.39746.44088.48208.81339-.51125.51218.28511.213-.29627Zm-6.127,7.52157.77509-1.1247.82851-.47263c.02168-.39353-.05526-.6355-.45357-.61372a4.74759,4.74759,0,0,0-.56174.53047c-.17113.22125-.23286.50406-.48531.69564-.17783.13494-.25193.40656-.37263.61764a2.72618,2.72618,0,0,0-.29134.05653c-.09774.02992-.26555-.05155-.2702.167A.84344.84344,0,0,0,42.49576,19.41295Zm-8.7461,13.94938c-.36248-.086-.41018-.07012-.517.17021l.17942.39124-.53522.29812a6.95793,6.95793,0,0,0,.70257.2341c.20553.04344.32553.3381.58478.20225.40851-.85159.45911-1.0101.40147-1.29033-.32692-.00523-.38546.41073-.68863.44637Zm7.72739-13.42344a.5185.5185,0,0,0-.69808.26553c-.07532.36273.05656.78548-.27523,1.08782-.42555.12777-.42555.12777-.43145.46382a2.15188,2.15188,0,0,1,.4496-.0651,2.45125,2.45125,0,0,1,.46322.118l.53616-.40919-.254-.27153C41.00009,20.59839,41.28021,20.28705,41.47706,19.93888ZM35.048,32.48328a.77982.77982,0,0,0,.94107-.58822l-.676-.51489-1.5714-.13556-.10416.2864,1.67006.39007Zm2.48717-13.09608a8.21438,8.21438,0,0,1,.71841-.44644c.28675-.13736.59546-.22847.88446-.36172.09037-.04166.14758-.15528.26735-.28877-.83382-.17888-1.43121.2766-2.08825.46021-.038.0106-.05213.10624-.09786.20779ZM32.46153,33.25667c-.28675-.24944-.38517-.63134-.78552-.71219a.50731.50731,0,0,0-.484.538,1.63081,1.63081,0,0,0,.96051.79417ZM43.92448,14.99844c-.31362-.19026-.53337-.31808-.7474-.45484a1.00742,1.00742,0,0,0-.82489-.13115c-.04929.01267-.0838.08278-.15576.15861l.15308.263.47178.12812c.29688.23358.09253.62068.50537.69709Zm-1.672,6.74057c.14187.61437-.327.97721-.10507,1.47932l.25708.12792.31024-.94222.68227-.25644-.0475-.30609a2.59247,2.59247,0,0,1-.47026.05447A4.39052,4.39052,0,0,1,42.25244,21.739ZM38.7347,34.76893c-.16679-.42466-.7216-1.00293-.89809-.981-.2712.28182.08763.52736.04929.80185l-.30541.60866.2829.355.21657-.68492Zm4.79075-14.70351.09973.51769c-.05081.20889-.33329.33243-.20934.598.2839.10311.2839.10311.60063-.02566l.24234-1.04606A.45752.45752,0,0,0,43.52545,20.06542Zm-4.81951,10.219c.24485.24584.42446.55918.767.63393.26212-.10771.10249-.29869.15747-.42667.07007-.16313.16957-.31362.27349-.5003-.20578-.01307-.36613-.01267-.523-.036-.176-.02621-.34882-.07389-.53515-.11489Zm-6.47108,6.28915a3.803,3.803,0,0,1,.35645.52606,2.60058,2.60058,0,0,1,.12493.50153l.62707-1.439-.2169-.16427Zm13.40744-17.3584c-.36909.19922-.722.26921-.893.66049.03448.1319.07729.2813.11213.43254.04167.18078.07654.36313.10563.5029l.26279.14258.40119-.42376-.61442-.557a3.08487,3.08487,0,0,1,.38661-.30441C45.5338,19.59677,45.72232,19.598,45.64231,19.21513Zm-5.83864,8.632a.71545.71545,0,0,0,.06585-.97858l-.66551-.061-.29983.48948Zm1.6648-14.26087a1.12225,1.12225,0,0,0,.82187-.85466l-.26063-.28278-.86424.72766ZM31.41232,34.0346c-.742.18647-.742.18647-.88141.39726l.11784.42932.60162.01295A.9474.9474,0,0,0,31.588,34.169Zm14.195-18.42634-.127-1.0268-.51295-.62732-.23447.23785.43291.51023-.13781.62858C45.16273,15.52342,45.27355,15.67958,45.60728,15.60826Zm-.772,3.0248,1.28591.12992.14478-.23661c-.4909-.47671-1.042-.27034-1.62416-.18342Zm-9.068,20.9258.26634-.26842-.5371-.29019c-.12453-.1717.00243-.48461-.38738-.52816-.06011.19245-.13639.39166-.17954.59781-.01628.07774.04412.17153.06765.25149ZM51.52257,5.92748c-.301-.05573-.61291-.11873-.92724-.16528-.04079-.006-.09413.07275-.187.1499l.18515.51214c.20365-.052.35485-.095.50811-.12859.167-.03661.36478.20323.52037-.07527ZM30.12658,37.495l.641.19051c.2711-.14838.59939-.16784.65556-.5625-.457-.18066-.8704.06423-1.29375.04644ZM41.0237,19.37577l-.89757-.54254-.20042.20032.35094.65025C40.639,19.79542,40.8593,19.73582,41.0237,19.37577ZM33.14507,41.26644l-.50388,1.28463.24779.06822.753-.57615ZM31.333,36.04211l.33788-.45735-1.04612-.35891-.40017.26894ZM46.45929,14.56484c-.0762.28394-.13493.38044-.11736.46011a6.47073,6.47073,0,0,0,.214.72218c.01476.04257.095.06245.17642.1119a.51724.51724,0,0,0,.30384-.57426ZM36.54952,32.54832c-.41551.17306-.6689.50692-.57887.73407.19166.187.38059.15609.61933-.06549ZM45.20511,5.75158c-.07847.38183.17756.604.38057.84568.0257.03058.10263.01812.178.02873l.14976-.34672c-.19109-.22192-.11221-.6035-.489-.6928Zm5.30465,7.11971c-.2819-.33184-.54911-.38311-.85231-.19146-.065.04109-.08559.15249-.1459.26858l.35242.3477ZM39.14155,21.56147l-.40789.102c-.15769.50919-.15769.50919.05244.8931l.57445-.69858ZM38.392,36.09022l-.49273.293.0406.67083c.50544-.24158.64969-.39192.63632-.81416ZM46.9372,18.57089c-.47777.64707-.481.64575-.41767,1.04228l.85527-.64436Zm1.98028-7.25031c.29748.34726.46486.3568,1.20577.02809A1.18556,1.18556,0,0,0,48.91748,11.32058ZM39.66,24.97835c.66111.00537.67807-.0023.96174-.43148-.3413-.01561-.67039-.03195-.99968-.0428-.02124-.00071-.04387.04089-.11122.10805ZM35.5988,23.24908c-.18052.25556.10441.3488.127.51664.028.20811.0291.41983.04252.64169.42489-.07063.29976-.46545.54112-.66309Zm6.10313,5.2168a.45735.45735,0,0,0,.70384-.0614c.0953-.23109.08909-.42429-.14559-.5519C41.89158,28.05759,41.89158,28.05759,41.70193,28.46587ZM52.60868,9.813c-.62466-.38762-.88272-.37779-1.29769.024A2.62013,2.62013,0,0,0,52.60868,9.813ZM32.865,31.86445a.53375.53375,0,0,0,.116-.73546c-.21689-.16825-.43228-.28735-.68354-.02949ZM47.92247,2.68389a1.09665,1.09665,0,0,0,.93317-.10484c-.13774-.3284-.311-.52934-.71035-.46258a1.5989,1.5989,0,0,0-.20388.2775A.85187.85187,0,0,0,47.92247,2.68389ZM46.178,12.45218l.21047-1.06148-.30278-.0528C45.8338,11.66819,45.83641,11.9747,46.178,12.45218Zm-1.71334-2.14685-.63363.107c-.13545.23622-.316.39747-.17391.71672C44.02866,11.04446,44.22179,10.79011,44.46462,10.30533Zm4.84219-.18215c-.38793-.04314-.365-.49187-.74293-.46931a.6449.6449,0,0,0,.12288.74738l.32538.02869ZM32.6672,35.29879l.58413.19558.23009-.35854-.54342-.28608Zm6.43329-18.105c.32093-.17043.52019-.3307.56172-.642-.15593-.11488-.28142-.209-.41015-.29846-.00866-.006-.04161.02288-.07228.04081Zm-6.284,23.71414-.48269-.18857-.29169.30918.37919.48577Zm5.61586-15.45943.25109-.20756-.26655-.60529C38.11,25.06778,38.11,25.06778,38.43234,25.44852ZM50.38386,9.2159c-.03632.25025-.07665.48467-.099.72079-.00418.04413.0638.09508.13292.19034L50.779,9.6504C50.63949,9.358,50.63949,9.358,50.38386,9.2159Zm-1.8395-.35039c.3709.22938.57928.22769.76732.01051.03367-.03889.02891-.111.04685-.18952l-.207-.16829ZM28.94371,36.05732l-.68046.32017.549.3049.265-.32064Zm2.57683-5.14523a.54442.54442,0,0,0-.64055-.31261l.04846.31472C31.15009,31.06924,31.32307,31.1067,31.52055,30.9121ZM49.10328,5.66575l.0519.85755.45612-.30578ZM51.177,4.52743c.04733-.28428.15907-.46164-.12-.55-.15924.06875-.27237.162-.21946.37762ZM37.26993,21.16127c-.17158.13653-.33937.19355-.27631.44082.19318.091.369.11909.47215-.18518Zm8.05651-9.71672-.49431.06014c.00478.28018.09238.44257.41977.44727Zm-6.80469,9.048-.158.28072.53078.19171.14368-.32141ZM35.24988,34.01837c.18.517.18.517.50784.46492A.51271.51271,0,0,0,35.24988,34.01837Zm7.31288-23.55581-.398.37922.29663.20546L42.745,10.713ZM44.79515,9.3034l-.35863.13866a.4716.4716,0,0,0,.36048.60961Zm6.69826-2.1765c-.18243.31966-.22821.50718.09347.64773l.251-.38676ZM34.78122,28.46124c.05095-.33566.0064-.54645-.34387-.63335l.03632.6002Zm6.40573-3.146c-.31375-.17668-.447-.00123-.60312.22154l.34166.22271Zm1.91883-12.70348c-.06006.338-.06006.338.2361.43336l-.02528-.41765C43.21814,12.62,43.162,12.61578,43.10578,12.61176ZM34.16691,32.27388c-.10716.47768-.10955.48044.23273.38494Zm10.293-9.652c-.24641.1209-.30818.26674-.08284.4994C44.64774,23.01779,44.68954,22.86675,44.4599,22.62187ZM37.05856,34.36427l.26082-.51958-.60587-.03846ZM37.45321,20.693c-.21215-.37862-.21215-.37862-.52954-.16908Z" fill="#fff"/>
      </g>
    </g>
  </g>
</svg>
